<mxfile host="app.diagrams.net" agent="Mozilla/5.0 (Macintosh; Intel Mac OS X 10_15_7) AppleWebKit/537.36 (KHTML, like Gecko) Chrome/134.0.0.0 Safari/537.36" version="26.0.8">
  <diagram name="第 1 页" id="BLcaBYjpJHiY6RSmbT_C">
    <mxGraphModel dx="1434" dy="761" grid="1" gridSize="10" guides="1" tooltips="1" connect="1" arrows="1" fold="1" page="1" pageScale="1" pageWidth="827" pageHeight="1169" math="0" shadow="0">
      <root>
        <mxCell id="0" />
        <mxCell id="1" parent="0" />
        <mxCell id="zQihhSDClOiV8K8tjyNQ-3" value="&lt;font style=&quot;font-size: 20px;&quot; face=&quot;Times New Roman&quot;&gt;(a) CAIS&lt;/font&gt;" style="text;html=1;align=center;verticalAlign=middle;whiteSpace=wrap;rounded=0;" parent="1" vertex="1">
          <mxGeometry x="155" width="90" height="30" as="geometry" />
        </mxCell>
        <mxCell id="zQihhSDClOiV8K8tjyNQ-7" value="&lt;font style=&quot;font-size: 20px;&quot; face=&quot;Times New Roman&quot;&gt;(b) SMP2019&lt;/font&gt;" style="text;html=1;align=center;verticalAlign=middle;whiteSpace=wrap;rounded=0;" parent="1" vertex="1">
          <mxGeometry x="127.5" y="217" width="145" height="30" as="geometry" />
        </mxCell>
        <mxCell id="zQihhSDClOiV8K8tjyNQ-8" value="&lt;font style=&quot;font-size: 20px;&quot; face=&quot;Times New Roman&quot;&gt;(c) SMP2020&lt;/font&gt;" style="text;html=1;align=center;verticalAlign=middle;whiteSpace=wrap;rounded=0;" parent="1" vertex="1">
          <mxGeometry x="127.5" y="431" width="145" height="30" as="geometry" />
        </mxCell>
        <mxCell id="zQihhSDClOiV8K8tjyNQ-9" value="" style="shape=image;verticalLabelPosition=bottom;labelBackgroundColor=default;verticalAlign=top;aspect=fixed;imageAspect=0;image=data:image/png,iVBORw0KGgoAAAANSUhEUgAAA6cAAAG1CAYAAAAFnYLJAAAACXBIWXMAAAsTAAALEwEAmpwYAAAgAElEQVR4nOzde3xU9Z0//tc5c78k3BLuEHIhJOFesRWh2kVqldXdtrbSdqW/4m/rVl1d3G611naX1bbbrrrtb39VFFz51br+1Lpfv21RadmifaxAUVEKuUDIjVyAMAmQzGTu53y+f5yZMzOZmSQzJDNJeD0fDx+cmTnnzGd4aJxX3p/P+yNBI0BERERERESUH5IEBlMiIiIiIiLKM2P0QAhmVCIiIiIiIsotSZIAAHKex0FERERERETEcEpERERERET5x3BKREREREREecdwSkRERERERHnHcEpERERERER5x3BKREREREREecdwSkRERERERHnHcEpERERERER5ZxztG/b39+O3v/0tKioqsHr16hFdo6oq3nvvPTQ1NUGWZSxbtgxVVVUwm81jcm0gEEBtbS3q6upgMBhQU1Mz4rECwEsvvYS+vj584xvf0DeMJSIiIiIiouxJAAQACCEu60YXL17Enj17sH//fgQCAXz+85/HF77whWGvc7lcePzxx9HZ2YmioiKEw2FcunQJs2bNwre//W3MmjVrVK/1+/3Yvn072tvbUV1djdbWVvj9ftx0003YsmXLsGHznXfewc6dO0f8+YiIiIiIiCi9aAa77Gm9fr8fu3fvxrZt2/DWW28hEAiM+FqXy4VHH30UnZ2d2LBhA37605/iqaeewh133IHu7m5s374dnZ2do3atEAJPPfUU2tvbsW7dOnzve9/Do48+CgDYu3cvPvjgg2HH+8ILL6C0tBSf+9znRvw5iYiIiIiIaGiXHU4lScK0adPw8MMPZzQ1FgB27dqF3t5eTJ8+HVu2bIEsy5AkCZs2bUJlZSX6+vrwwgsvjNq1Z8+exZEjRwAA69atAwDMnz8fFRUVAIA33ngj7ViFEHj22WehKAruueceGAyGjD4rERERERERpXfZ4dRiseCzn/0sqqqq9MA3Eh999BFqa2sBAJ/+9KdhsVgSXr/hhhsAALW1tWhsbByVa1taWvTj+Cm/c+fOBQA0NzdDUZSU4927dy/q6+tx++23Y968eSP+nERERERERDS8Ue3W63A4Rnzuvn379OPq6uqk1+Ofe+2110bl2vhwarPZ9OOCggIAgKIouHDhQtL9urq68PLLL6OqqgqbNm1K/YGIiIiIiIgoa6MaTkc61TUUCqG+vh6ANi24rKws6ZyioiIUFhYC0Cqg/f39l32tyWTSz4lvfBTfDGrwZ1AUBc888wwMBgPuvvtuduclIiIiIiIaA6MaTkca3E6cOIFgMAhAq7Yajal3tJk9e7Z+fP78+cu+try8XH/O6/Xqx263G4AWXqdNm5Zwn1/96ldobm7GHXfcgeLi4hF9PiIiIiIiIsrMqIbTkXK5XPqx0+lMe57dbk+65nKuja+ydnR06MfR6b4VFRUJAbu1tRWvv/46Vq1ahQ0bNqT/QERERERERHRZ8hJOo9NsgaEDZvy60GjAvJxri4qKcMsttwAAfvOb30AIgSNHjqCrqwsAsHnzZv2aUCiEp59+GjabDXfdddeIPhcRERERERFlJ/Wc2DE2MDCgHw8VMGU5lp17enou+1oA+PKXv4yenh4cPnwY27Ztg8vlgsViwZ133onKykr9vFdffRVdXV247777MHXq1IR7e71e+Hw+zJgxY6iPSURERERERCOUl3AaHxyHaqIUXVsKAGaz+bKvBbR1sffffz/6+/tx7Ngx2Gw2LF68WG+gBGjrWt98802sXbsWa9eu1Z93uVx47rnnUF9fD0VRMHv2bGzatAkbN24c7iMTERERERHREPISTqdMmaIfh8PhtOcFAgH9OLrdy+VcG6+wsBDr169Pet7v92PHjh2YMmUKtm7dmvD8E088gY6ODtx666246qqr8NRTT+H555+H0+nENddck3YsRERERERENLS8rDmN74gbP013sFQB83KuHYkXX3wRLpcLd911V8K04VdffRUdHR0oLCzE5s2bUVlZiRtvvBEA8Mwzz+gdf4mIiIiIiChzeQmn8Ws1PR5P2vMuXLigH8+bN++yrx3O0aNHsX//fmzYsAGrVq1KeK2hoQEAsGTJEn1q8dKlSwFoU4ibm5tH9B5ERERERESULC/htLS0VK9Kulwu+P3+pHMCgYDeyMhut6OiouKyrx2Kx+PBzp07UVxcjDvuuCPhtVAohM7OTgCJTZjiK7LR7WiIiIiIiIgoc3kJpyaTSV/vqSgKTp48mXROV1cXhBAAgOXLl+vNjy7n2qHs3r0bfX19uPvuu2G1WhNe6+vrg6IoAACLxaI/H38cX6klIiIiIiKizIxqOI0GQgBQVXXIc6+//nr9uK6uLun1Y8eOAdC66956662jdm0qhw4dwqFDh3DzzTejqqoq6fUZM2bA4XAA0LaRiYpf88ptZYiIiIiIiLI3quE0vglR/FYuqZSUlODaa68FALz99tvo6+vTX/P7/di/fz8A4JprrkFZWdmoXTvYpUuXsHv3bsybNw+bN29OeY4kSfp9ent79ee7u7v149mzZw/5PkRERERERJTeqG0lEwqFcOjQIf3xRx99hFtuuQVTp05Ne83WrVvR1taGM2fOYMeOHfjqV78Kj8eDV155BT09PaisrMTXv/71Ub823q5du+Dz+fDwww/DZDKlPe+6667D8ePHceLECfT396OwsBAHDx4EABQVFWHNmjXDvhcRERERESW7+VsfZHT+W4/zu/dkJAEQQOKU3Ez96Ec/Ql1dnb4uU7+5JKGgoAA7duyAJEkpr3W73di5cyeOHDmiP2c0GrFx40bcfvvtSes/R+taQKu67tq1C7fddhtuu+22YT/nSy+9hD179qC4uBirV6/Gvn37YDabsW3bNqxcuXLY64mIiIiIKBnD6ZUtmhVHJZyOhu7ubnR2dsJkMqGsrCyhK+5YXCuEwGOPPQa73Y4HHnhgRE2ThBA4cuQI3n//fZw9exaLFi3CZz7zmRFvVUNERERERMkYTq9s4y6cEhERERHRxKGqAr6gCl9AgS+gwhtQ4I/8Gf9c9DjVc9o1Ci55whm9N8Pp5BINp6O25pSIiIiIiMYvIRAJhQq80bAYVOHzD3oucuwPKvD61eRrIsEyEBp6dw6iTDGcEhERERGNQ0JAC4iDQ2OKIJlYnUwOkr6AAn+QYZLGN4ZTIiIiIqJRoIXJFAExTXVSnxLrTwyY3oACf1A7vlJ9wvgBVpqOY7f/DoRE+h01aHJhOCUiIiKiK5IQQCCkRkJj4rrIVBXI4aqW/qACtnFJzWqWYbMYYLcYYLVEj7U/bRYD9h526ed+2vwOtlpfBAAslLvwzwMPIQQG1CsBwykRERERTQhCAMGwCq8/MUBGK5Ap10emrE7GnmeYTM1ikmG3GmCzyLCaE4Ok3Ro7tpkHBU2rdhx/jdUsQ5ZTbysZFQ2n8cEUAMoMbfim/Sk86b2XAfUKwHBKRERERGNCCCAUVtNUH2MBM9X6yHSvM0ymZjbJCQHSZolVKm1xlUpr0nOxY/3PEYTJsTA4mALatiIrjLUMqFcIbiVDRERENIYm0v6NQgAhRdVCoX/QVFe9OpkYIP1BNXZeimtUld8xUzEbZS0MWiNTXc1yYmiMVC1t5hRBctA1VosMQx7CZCIBEQ4CIT9E0AcR8kEEvUDIpz0OeiFCvshjr35O9PWmP9VioaEjzZ210HIsvEwPqNxKZnLhVjJEREREk0AoLFJUGuP3m0y/pjLVNQrDZEomo5S20pj4nHacqjoZrVpazTKMhjyFSVWJBMe4oBgXIBHyxT1OPifpcfyxyL6B00JD+teif1MrjLX4e/tT+NQ//yLr96HxjeGUiIiIaBz59YHzkepkJDgGB4VJf2LVMqwwTKZiNEiRUGiAzRqrQNrjA6TVoK+JTAqT1sSqZW7DpIAI+YG4CqQI+bTHwbjwGPKmPieuOqlXLqMBUgnm8HOMvpXGWqieXsjOonwPhcYAp/USERERDRJWBAJBrfuqP6jCF1Thj3vsD8QdD34tcqx1b1XRcsab748zIRgNUkLV0To4SA5aS5l6TWXsurEPkwJQQonBb/AU1kiATDnNVa88pg6XlJptw/2wrrsz38OgUcZpvURERDShqaoYMhxq+01qjwMJIXNQqAwkX8dq5PAMspQQGlOHyVRTXeOO9eqkASbjGIVJocbWNwbTBcVBVcaE9ZBprgl6L2saKwGSyQbJbAfMNkiQoVzqAoSS9nzbhvsYTCc5hlMiIiIaM0JAD32BSAD0jSAcpg6ZsXv4gyqC4YkXDCRJ4Cbz77HCUIuf+u5GQFhy9t7yoDAZX4EcHBqt5tiU13TXmAwypFHLk5FprIOb5SSsh/TFrYf0pn88+JoJPo017wxmSGab9o/JBkQCZfSxZLZHnos8r58Td43ZBslkj3tsh2SyILaaVKOcbYD7xb+B8PcnDUMLpv93jj405Qun9RIREV3hontHJoXDQVNXfZEQGQglT11NnO4aexwITbwAOVYkSeBL5v+FWy1vAQCalTJ83/vNtAFVkpAcGkcw1TX5Gm0LEZNxFMKkEhp6PWM0GEarjNHXBj/Ww2c0TPoR+UpK2ZBkPTDqwdAU/9geCZK2Ic5JdY0VkIfoVDQGUgVUBtPJLzqtl+GUiIhoAhBCWwcZrToGUlQV005xDSS/5ht0D34NuDxmowyrWfvHYpZhjTTSsZplvNfQlxRMo+qUKjzhvS8hoL70jythtxpgzjZMCnXo9YxxATJhmmtSw50U24Co6adc0vBiVcRYGEx4nCpMJp0TqVTGX2MwYXAVciJTzjbA/fM7IUI+BtMrBMMpERHRGIg20hnJ1FVf3FrIVCFz8H24X+TlMRqkSIA06EHSaok7joZKPWRqr0VDZsJ15sTr5CH2mNz04Pspg2n0a9gppRw/938ZElRYpQD+ZevCQXtCpl8DmTjt1avtMRkOjOnf46QXncZqGlxljFsfGRcgk6esxp0ff43RAkhyvj/dhKH2n4Padw7GBavyPRTKAYZTIiK6bDd/64OMzh8vm6ZHG+lEm+PEr2P0pagyJh0Pnu4adx820rk8sqwFSFskAFoi4U8LiMlBMuF4UIi0xb1mGY19JaONdYIDEIEBiOAAEIgdJ/wZGNBCZMCDsw3HUCT3js5fEGkkOXH9YlwYRNr1kLZB6yHj10fGhcscT2Ol1IKnfwql/zCsNc9BMjjyPRwaY+zWS0RE41p8I52RTFX1DQqZg9dDBuJCZCjMAHk5JAnpK4mDQuTgkKkFzXQVSG37j9FrsoNYoBzwQAl69fCYGCo9epDU/oycMzhwBrPbEqboCi6WSSZrcvgb/DjtlNW49Y8Jj62QjGZMpmmslEj1tSHQ+E0AQNBWAUvFY3keEeUKwykREeXMz/d2JVcm06yHDLKRzmWzmBLDoCUuBI5kqurgKa+2yOuj0lhnKEJNCIl6oAwOQAS8EEFP0mvxFUvEB80sA+UVxWBKEwZTr4FE9HjwNFeTNekxp7FSNoKt/6Ifh7qeg7n0YUgGex5HRLnCcEpERFnJZjXIy78/O/oDmeDiG+mkWv+YtB7SMmg95KDzLJEwajGNcYAcTA+UnrgAqT1GXMUyXahE/OshXw4HPkFIclw4TLGecfAayLgAOXgNZOK0Vxsg8+sgjR+qrw2hM/+f/lgEzyPU+SzMJQ/kb1CUM1xzSkREIyIE0Ony43iLO/KPB719V8b+gYMb6dgssXAYX1GMBcT4ymT2jXTGnFDTVx+jj9MEzujziFY4GShjott6WJyQLHYABigXWgElnO4CWNZ8EaaK9ekb7HAaK002QoEInIXqPw3VdxrCfxqqrw3hnrcgAl0Jp0rmmXCsb2b1dBLjmlMiIhqSEMDpcz4ci4TR2hY3LnnSfbnOP1mWkhrgjGTqqs1iSJzuOqhSOSqNdEaTqkRCpHdQqPQAqQJkMLlaqQfPkD/fn2b8kGRIFof2jznyT+QxLHGPzQ5IFjsksxY8JYtTD6Iw27VzTFYMDpJKdyPcv/g6hK9v8BvD8ZePwbzilpx9VKKcEGGo/s5I6DwN4W+D6jsN1X8awncaqr8DEKGR3YrV0ysGK6dERARA62DbctaH482RMNrqgdubWRg1QIUsKQgJU8rXtUY6yeEwfm/IVF1WR9KpddQb6YwmPVAmdnFNOaV1cMUyWqGMBk5uExIjGxJCpF6tjDyHlK8NCpQWu3a+yYKxrkwmBVRJ1oLp8j8f0/clGhNqAKq/HcLfHgmdbZHQGQmfgU5AjF7vAFZPJzduJUNEdIULKwLNXV6tMtrsRl2bB16/kvX9ZsgX8Ij9ScyWu/G9gUfQrJQmnfPmv64ZvwFyMDU8KEgmNujBoGmwSVNj46uUDJQxsiEy3TVaoYxNf41VH6Ph0TEofMb+hMUxIae6Kt2NcP/8ToiAB47P/oDBlMYtoXi1qqe/HcLXFhdA27U/A7nvIWCpfILV00mK4ZSI6AoTCgs0dgzoa0br2zzwB7P7rbbZKKOqxIFjzW4AQJF0Ad91Po6ZkgsA4BU2/ND7TbQoixKuG/N9TqOBciRdXOP/jJ8OG2SgTCIbIwHRmbYKiWjANCcHSX16rNk+IQPlaBPei1B9fTDMWJTvodAVTIT79Sm3WrWzLW7K7WmIoCvfQ0zC6unkxXBKRDTJBUIqTpyOhdETpwcQDGcXRq1mGTWLnFheVoDlZQWoXOCAySjh5m99oAVTx79iptyTcI0WUP8BLUqJ/lzKcKqE4qqSKYJj0DtoT8ohgicDZYzBnLgmMr4CGRcaMWh9ZXKwtAMGc74/DRFlRECELkL1tUWm3bZFqqCx5kMidDHno5LMsyDbFkGyLoRsWwTZWgLJVgJIRvg+uhUQwy8lYfV0cmI4JSKaZHwBFfVtHtS2unGs2Y3GjgGElex+ttutBixd5MTy8gKsKCtA+Tx7yqZAWx76Lb5rfzwpmEaFYMQxZTmCqgk2yYc1ZaakiiWUK6Pj70hIRktsWusQVUikXUPpiFUyDanX/RLRZCAggucjQVMLn7HqpzYNVyieHI9JgmSZGwmdCyHp4VN7LNsWArIt5ZX+hm8g1LlrxO9UcIMn7b1oYmK3XiKiCW7Ap6C2zYPayJrRU11eqGp2YbTAbsSy0khltLwAZXNsw25xovadwXb7jzBdTv/bdxPCuMrwEWDQHofbsxreuCYZLVpYTNHldfAxBq2vHFzR5H6TRAQgsm/w2UHdbWMNh1RfO6DmePsmyQDZMl8Pm9HwKdsWQbIthGxZAMjZzbIQvtOZnR/u1/bopUmHlVMiogmi3xvWgmiLB8db3Gg540W2P7qnOo1YXlaAZWVaZbRktm1EjYpE0Itw63sINR9A8OivICZo1VMyWWNNdYbo5CpZ7LGOr2bHoAplJHDKhnx/HCKaaEQYaqArodKpRvb5FL52qIEOQM3xz1fJBNlWMmjKbTSIlkC2zAOkMfoFmuqD0v8hIrFkSLK1BJJ1wdiMg/KG03qJiMa5i+5QZL2oVh1tO5f9b8lnTDFjRZkTyyJrRucXW0fYNVdAcbUg1PQuQk0HEG7/EFDzs9epZLLFNdYZ1OXVnDwNFoPXUJpjQZSBkojGlBqA6u8YZpuV7LujZ0W2DjHldhEk82xAknM7JqIITuslIhpnevqCON7sxrFIGO10+bO+16xpFiwvjzUwmj3dMuItXERgAOHWwwg1H0Co6QDU/nNZjwMAIBthmDoHsBSkabiTokFPXDMefQ0lvzQR0Xih+iKhsz2uy61WBVV90W1Wclv4kQzO1FNu9fBZjCu9UzaNfwynRER5IATQfTGgVUabPTje6sa53uw7zc4rsuphdFlZAWZOzWTdj4ByvgmhpgMINb2LcMdHgDo6v9E3zFyMgi07Idmnjcr9iIhyQYTd+jYrIjLdNnGblfM5H5NkmgbJWgLZVhKZ2joofJqmgeGTJjqGUyKiHBACONPjx/GWWGXUdSn79UQls2xYVubEivICLCstwPTCzDqzioAHoZY/Itx8EKHmA1D7uzMeg2H2EpjK18NY+nEEDv4coZaDia8zmBLRuCQgQpcg/G1Qfe2DGg1Ft1m5kPNRSeZifWuV2JTbksg60BJIxsKcj4ko17jmlIhoDAgBtJ/34XhzrIHRRXcoq3tJElA6x47lZbHK6BRHpr9bFFC6T8XWjnYezbg6KlkLYCpbC1PFehjLr4XsLIrdPRzAwC+/iVDTuwAAw6xKFNyxE5J9aobjJCK6XAIi6IpUOuPDpxZGhb8NIuzO+agky5yE8KlVPUv0JkSSwZHzMRGNF2yIREQ0ilRVoO2cD8ciYbS21Y3+gewaB8myhIp5sTC6tLQATlvmDXyE3x2pjh7QqqNuV8b3MMypgan8Wi2Qzls+ZCMhEQ7A++YPIDy9cHz2BwymRDQ2hAoRPJdQ6dS63Maqn7nfZkWGZJmX1HBIn3ZrXQDI1tyOiWgCYTglIroMiirQ1OXV9xitbfNgwJfdOk2jQULlAoe2z2h5AZYucsJmyaabrIBy7mRcdfRPgFAzuoNkmxKpjq7TqqOOGVmMg4joMogw1MCZ1Nus+Nuh+tvzsM2KEbJ1QYqqZzR8zgekzJZXEFEMu/USEWUgrAg0dgxEtnZxo77NA18gs+AXZTJKqFqoBdHlpU5UL3LCYsquE63w9yPUfAih5gMINx+E6unJ8A4SjHNrYCxfF6mOLmNXXCIaW2oQaqBDm3IbbTQUXwX1d+RhmxVLZEuV+EZDcc2HLHMBiVtQEY01hlMiohSCYRUnTg+gtsWNYy1uNJweQDCUXRi1mGTULIpu6+JE5UIHzMYsA6BQoZw7Eeus23U8u+poZKquqWwtJMf07MZCRJSK6os0Gkq3zcoZ5H6bFTsk6yLItoWRP0sgWxdBskU73c7kL+aIxgGGUyIiAP6givo2ba3o8WY3TrQPIKxk9+XJZjFgaakTKyJ7jFbMt8NoyL69v/D1IRTpqhtqPggxkGkXSQnGecsi1dF1MM5dyi9hRJQ1oXhiW6rojYbiqp/BzLt/Xy7JWKiHTy10Dt5mZQa4zQrR+MdwSkRXJK9fQV2bR5+me6rDC0XNLow6bQYsiwTR5WUFKJtrg0G+jC9BQkX4bAPC0bWjZ2ozr47apyVWR9mciIhGSIQvJVY6ExoPnYYI9eZ8TJJpht7VNn69Z7T5kGTkzziiyYDhlIiuCG5vGLWt2v6ix1vcaOryIts+cFMcRi2IlmthdNFsG6TL/IW88F6KVEff1aqj3kuZ3UCSYZy3DKbydTBWrIdxTjWro0SUgoAI9kTWebbHdbmN32alP+ejksyz4tZ7lsSqn5GtVySDM+djIqLcYzgloknpkiesB9HjLW60nfNlHUZnFJqwvLwAy0oLsKK8APOLrZcdRiFUhM/UaZXRpncRPlOHTNdgSY7pMEWm6prK1kKyTbnMQRFRLvhrvwbF/RHsa96BZJo2ujcXKkSwO27K7emk6qdQvKP7nsOSIFnmxpoLDQqfsm0hINtyPCYiGo8YToloUujtD+F4cyyMdpz3Z32vmdPM+hTd5WUFmDPDcvlhFIAYuJC4dtTXl9kNJBnG+Sv0QGqYXcXqKNEEo1x6F6GzvwAABNv/H1jKt2d2A6FABM5Eutym22YlMPoDH4pkgGyZH9nbM36Pz0gQtSwAZHNux0REExL3OSWiCen8xSCOt7hxrNmN2lY3zvRk/2VsbpElIYzOnDZKX6KEinBXbWTf0XehnG1AptVR2VkEo7529BpI1sLRGRsR5YX3yI1QLvweACCZpsOxvhmSMe6/axGC6o9ss5LQaCgaPjsAEc7toCVTJHSmnnIrW+YBEusdRJS96D6nDKdENO4JAZztDehV0ePNbpy/lP0G7AtmWrEisl50WVkBZhSO3sbp6kAvwk3RtaOHIPwZrt2SZBgXrNKbGRlmVbI6SjRJKJfehff96xOeM0z7FGTr3MjWK5FtVjJsgHbZZOsQU25LIJnn8OcQEY0phlMiGreEADpdfhyLTNOtbXGjtz+U1b0kCVg026Y3MFpWWoCpzlH8Db+qINx1XKuONh+IVEczIxcURxoZrYOp9BpI1oLRGx8R5YdQtMqnpx7qQD1UTx1C538NKO6cD0UyOFNMuY1us1ICyTwT3GaFiPIpGk45B4OI8k4IoO2cT6+KHm9xo28gu2lrkgRUzHNgeZkTy8sKsLTUiQL76P6oUz09CDcd0KqjLX+E8Gf4ZVM2RKqj6yLV0cXgF0OiCUooUH2tkQBaD3WgDoqnAepAA6Bmv/Y9E5Jxqh4+47dZie3xOQ38GUNEEwHDKRHlnKIKtJzx4niLR6+MenxKVvcyyBIWL7BjeVkBVpQVoGaRE3arYXQHrCoId/4JoUggVc6dzPgWcsFMbd1oxToYSz8BycJtEYgmFKFA9bUkVEKVgQaoAyfGPIRK5mJtym00bEam3sq2hZCsJZCM7NRNRJPDuAinp0+fxqlTp3DmzBkIITBnzhwsWbIEJSUlw16rqiree+89NDU1QZZlLFu2DFVVVTCb0zc0CQQCqK2tRV1dHQwGA2pqarB69eoRj/ell15CX18fvvGNb+glaCJKL6wInOocQG2LB8da3Khr9cAXyC6MGg0SqkqcemW0usQJq3n010Kp7vPaNi/NB7TqaMCT2Q1kA4wLPxbrrDuzAqxcEE0AIgzV2wx1oAGqpw7qQH1cCB27LriydQHkqdfGTbmNrPe0LoRkcIzZ+xIRjSd5XXPq8/nwi1/8An/4wx9gt9tRVVUFSZJw4sQJDAwMYP369di6dSusVmvK610uFx5//HF0dnaiqKgI4XAYly5dwqxZs/Dtb38bs2bNSrrG7/dj+/btaG9vR3V1NVpbW+H3+3HTTTdhy5Ytw4bNd955Bzt37sTnP/95fOELXxiVvweiySYYVtHYPqBXRuvbPAiEsmvwYTbJqFnkxPJSJ5aXF2DJQgfMxjFozKGGEe74U2ztaHdjxreQC2dreyJN9lwAACAASURBVI5WrIex9OOQzPxCSTRuiTBUb5MeQpXotFzvSUDNvuFatiTTNDjWtyR27iUiukKMizWnO3bswAcffIClS5fi7/7u7+B0atPcPB4PnnjiCfzP//wP/H4/tm3blhQaXS4XHn30UfT29mLDhg248847IUkS3nrrLbz44ovYvn07HnnkEcyfP1+/RgiBp556Cu3t7Vi3bh3uvfdedHZ24sEHH8TevXtRXV2Nq6++Ou14XS4XXnjhBZSWluJzn/vc2PylEE1AgZCKhjYPjrd6cLzZjRPtHoTC2f3Cy2aRsXRRtHmRE5ULHDAaxqbiqPZ361N1wy2HIYIDmd1ANsJYclWss25xGVgdJRpnRChNCG0ckxAqmaZDdi6F7KiG7FwKSVXgb/z7EQzzIkIdP4O59DujPiYiookib+H02LFj+OCDDyBJEv72b/9WD6YA4HQ6sXXrVjz88MN4//330djYiCVLliRcv2vXLvT29mL69OnYsmULZFmrpGzatAnvvfceGhsb8cILL+A734n9kD979iyOHDkCAFi3bh0AYP78+aioqEBTUxPeeOONtOFUCIFnn30WiqLgnnvugcEwymvaiCYQX0BBXZsWRGtbPWjsGEBYyS6MOmwGLCuN7jHqRPk8OwzyGAU8JYRwx9FYdfR8U8a3kKfMia0dXfRxSGb7GAyUiDImQlC9p6B6GiJNiSJrQwcaAZFdt++hSKYZkRBaA9lZA4NjKWRndVLnW9+HN4/4noGm78G0cBskA3+uENGVKW/htK6uDgBgsVhQWJg8hWXBggWQJAlCCJw6dSohnH700Ueora0FAHz605+GxWJJuPaGG25AY2Mjamtr0djYiMrKSgBAS0uLfk78lN+5c+eiqakJzc3NUBQlZfDcu3cv6uvr8Vd/9VeYN2/eZXxyoolnwKegtjWyx2iLB01dXqhqdmG00GGMBFEtjC6abYM8VmEUgNp3Tuuq2/Quwq3vQQS9md3AYIKp5CoYo511ixaB1VGiPFKDWggdaIASWROqV0JFdl2+hyKZi+MCaI1eFdVC6AgYbBm810xEVlsREV2R8hZOvV7tC6Lf70dzczMqKioSXj9//ry+Dra4uDjhtX379unH1dXVSfeOf+61117Tq6fx4dRmi/3PoqBA21NQURRcuHAh6f26urrw8ssvo6qqCps2bRr5hySaoPoHwpEgqoXR1rNeZLssfVqBSeukW66F0QUzbRjTPmJKEOH2j2KddV0tw18ziDx1Xmzt6KKrIZlG/uWSiEaJGoTqbYTqqdem4uoh9NQYhdCZ+lRcQySMyo4aSObi4S8egm3lf0GEekc2BuMUQDJd1vsREU1keQunNTU1+P3vfw8AePbZZ/H9738/oQJ6/PhxAIDVak3opBsKhVBfXw9AWzhbVlaWdO+ioiIUFhaiv78ftbW16O/vR2FhIUym2A/8+DWs8c2gBldNFUXBM888A4PBgLvvvpvdeWlSutAfQm2rG8eatTDa3u3L+l7FU82xymi5E3NnWMc2jAJQL52JVEcPaNXRUIbjN5hhWrQGpvJ1MFasg2FGCVgdJcoRNZAYQj112vpQ7ylAZNfVeyiSeRZkZ3VkGm6NXhWVTEWj/l6RdxzDexMRTS55C6fLly+HLMtQVRVdXV3413/9VzzwwANwOp3o7u7GK6+8AgC45ZZbEraFOXHiBIJBrYGBw+GA0Zj6I8yePRv9/f0AtCpsYWEhysvL9de9Xi+mTNH2BXO73QAAk8mEadOmJdznV7/6FZqbm/HXf/3XSRVVoonKdSkYq4w2e9DVk/0efXNmWBLC6KxpluEvulxKEKHTHyIcXTva05rxLeRpC2LV0ZI1kEypu4IT0ShR/VC9jbG1oHoIbRqjEDo7TQidMervRUREoyNv4dTpdOJzn/sc/uu//gsA0NDQgO9+97vYsmULdu/eDZ/Phy9+8YtJXXFdLlfCPdKx22PNBFwuFyoqKhKqrB0dHZgzZw6A2HTfioqKhMpoa2srXn/9daxatQobNmy4jE9LlD9CAN0XAjgWF0a7L2a/V9+CmVYsLyvAsrICrChzYsaU9HsKjyb1YidCzQe0taNt70OEMgvUktEC46KrtUBavg7y9IVjNFKiK5zqhzpwMtYVd6BOa1LkawJEdltKDUWyzIHsqIHBWQM50pRIdtRAMk0f9fciIqKxldetZG677Ta43W787ne/A6BVOJ988klYLBY88sgjqKmpSbomWg0Fhg6n8WtKo4G2qKgIt9xyC/bs2YPf/OY3uPrqq/Hhhx+iq6sLALB582b9mlAohKeffho2mw133XXX5X1QohwSAuh0+VEbCaPHWjzo7ct+u4RFc2xYEamMLi11YlpBbtZDiXAA4dNHtKm6ze9C6T2d8T3k6QtjnXVL1kAy5qCqS3SlUH1aCB1cCfU1j1EInRsJoLGmRFoInTb8xURENCHkNZwCwNe+9jWYzWbs2bNHfy4YDOLUqVMpw+nAQGwfwqHCaXRrGQDo6enRj7/85S+jp6cHhw8fxrZt2+ByuWCxWHDnnXfqXX0B4NVXX0VXVxfuu+8+TJ06NeHeXq8XPp8PM2ZwahDlnxDA6XM+HG9161u7XHRnt22CJAHlc+1YXh4Lo4X23P2YUC90xNaOtr0PEc6swisZLTCWflwLpOXXQp62YIxGSnTlEIoXwpsqhLaMUQidlxxCnTWQjFOHv5iIiCa0vIfT7u5uHD16FIDWjEhRFAgh8Morr8DtduOOO+5IOD8+dA6112h0XSqAhDWrkiTh/vvvR39/P44dOwabzYbFixcnbGdz4sQJvPnmm1i7di3Wrl2rP+9yufDcc8+hvr4eiqJg9uzZ2LRpEzZu3Jj9XwBRhlRVoOWsD7UtbhxrcaOuxYN+b3adK2VZwuL5dq0yWl6AmkVOOKy528NXhPwIn/5A76yrXujI+B6GGYtgjK4dXfgxVkeJsiQUrxY6BxoGTcdtwVhsbyJZ58d1xY2bjmucMurvRUREE0New+nZs2exfft2uN1u3HvvvZg1axaeeOIJferum2++CVmW8ZWvfEW/JtrECADC4fRfyAOBWMUlulVMvMLCQqxfvz7peb/fjx07dmDKlCnYunVrwvNPPPEEOjo6cOutt+Kqq67CU089heeffx5OpxPXXHNNZh+eaITCikBzl1dvYFTX6sGAP7vmIUaDhKqFDiyLTNOtLnHCZpGHv3DUCCi97QhHq6Onj2ReHTVZYSz9RGzt6FTuO0yUCaEMxIXQuH1CfW0YixAqWxfqW7TIehithmRM3uOciIiubHkLp36/Hz/60Y/gdrtx8803Y926dQCAxx57DD/+8Y9x5swZAMCePXtw9dVXY/HixQCQ0E03forvYMOF03RefPFFuFwuPPjggwnThl999VV0dHSgsLAQmzdvhizLuPHGG/Gf//mfeOaZZ7B06dKM3oconVBYoLFjQA+j9W0e+IPZTZ0zm2RUlzj0brpVCx0wm3IZRgER8iHc9gFCkc666sXOjO9hKCrVKqMV62FauBow5KYJE9FEJhRPJIA2RKqgkWm5vrYxeT/ZWhKpfsZ1x3VUQzLy/41ERDQyeQunv/vd7/RGRTfccIP+fHFxMb7zne/gH//xH3HhwgUAWkB94IEHACBhnafH40l7/+i1ADBv3sgqK0ePHsX+/fuxYcMGrFq1KuG1hoYGAMCSJUv0qcVLly4FoE0hbm5uTrqGaCSCIRUN7QPaetEWNxpODyAYzi6M2iwyahY5say0ACvKC1C5wAGjIdf7dQooPW0INR/Qtno5/SGgZNaQSTLb49aOroM8Zc4YjZVo4hOKJxI8B1VC/Zk3ERsJ2bYouRJqr2IIJSKiy5a3cPqnP/0JgNbUKLqlS9T06dPx0EMP4eGHH4aqqmhra9NfKy0thdPphMfjgcvlgt/vh9WauD9hIBDQmyDZ7XZUVFQMOx6Px4OdO3eiuLg4aZ1rKBRCZ2enPt6o+EppS0sLwymNiC+gouG0R6+MnmwfQFjJbiqdw2rAslInlpdrW7tUzLPDIOc6jAIi6EW47f3Y2tFLZzK+h6G4PNZZd8FqwJCbrsBEE4UIu7XgmRRC28fk/WRbaYrpuFWQDOmbERIREV2OvIVTt9sNQAui8XuLRi1YsACLFy/GyZMn4ffH9jM0mUxYv3499u7dC0VRcPLkSaxcuTLh2q6uLgihfdlfvnz5kI2Tonbv3o2+vj5873vfSwq7fX19UBRtjZ/FEmu2En8cX6klijfgV1DXGgujpzq9UNXswmih3RhZL+rE8rIClM6xQc5DGAUEFFdrrLNu+4eAklmHYMnsgLHsEzCVRzrrTpk9RmMlmlhEuC9pOq4yUA/hz7xh2PAkLYQmbdFSBcngGIP3IyIiSi9v4XTBggXo7OzE+fPnoapqQhfeqJKSEpw8eTKp8nn99ddj7969AIC6urqkcHrs2DEAWmfeW2+9ddixHDp0CIcOHcKmTZtQVVWV9PqMGTPgcDgwMDAAr9erPx+/5pXbykw+N3/rgxGf+9bja/Tjfm8YdS0eHGvRpuk2n/FCZNljZFqBKbJeVKuOLpxpQ4rf5eSECA4g3Pp+ZO3ou1D7zmV8D8PMxVojo4r1MM5fyeooXdG0EFofWwvqqYMy0ADhz3xd9vAkyLayNCHUPgbvR0RElLm8hdPrrrsOhw4dgt/vx759+/CZz3wm4fVwOIy6ujoASOqqW1JSgmuvvRYHDx7E22+/jT//8z/Xu/j6/X7s378fAHDNNdegrKxsyHFcunQJu3fvxrx587B58+aU50iShLKyMhw/fhy9vb36893d3frx7Nms+kwmmQTT6Pm3XjsTx1vcaDvny/p9i6aYsby8ACsildG5Rda8hVFAQDnfjFDzAYSa3kW4/SNAzWzLGsnigKlsLYzl62CqWAe5YOYYjZVo/BLhS3EBVNuiRfE0QAS6xuDdJMj28rhpuEthcGohFLJtDN6PiIho9OQtnK5cuRI33ngjfve73+Hll1+GxWLB9ddfD0mS0NfXh+effx5dXV341Kc+lbDXaNTWrVvR1taGM2fOYMeOHfjqV78Kj8eDV155BT09PaisrMTXv/71Ycexa9cu+Hw+PPzwwzCZ0ldxrrvuOhw/fhwnTpxAf38/CgsLcfDgQQBAUVER1qxZk/ZaujL85uD5jK+ZPcOC5aUFWF6uhdFZ0yx5DKOACAwg3Ho4Ml33INT+LKqjsypja0fnrwTkvG+nTJQTInQxoRKqeOqgDjRABDJfgz0sSYZsK0+ohBoc1ZAdSxhCiYhowpIQ2dRMZDvv8DIdPHgQP//5z+F2u2G1WlFQUIDe3l44nU585StfwSc/+cmUa1IBbd3qzp07ceTIEf05o9GIjRs34vbbb09aOzrY22+/jV27duG2227DbbfdNuxYX3rpJezZswfFxcVYvXo19u3bB7PZjG3btiVNLaaJLdPK6UjNL7ZieXkBlpc6saysAMVT870lioDSfSpWHe04CqiZ7aEqWZwwla+FqXw9jOXXQi4oHqOxEo0PInQhTQg9O/pvJsmQbRVpQujQ/48jIiKaKKJ5L+/hNKqnpwcdHVqzh7lz56K4uDjlOtRUuru70dnZCZPJhLKysoSOuukIIfDYY4/BbrfjgQceGFHTJCEEjhw5gvfffx9nz57FokWL8JnPfGbEW9XQxDFa4XTRbBuWlxVgWWSa7rSC/K+xFAEPQi2HEG4+iFDTAajuzCu+htlVserovBWAPPx/P0QTjQj1JkzHVQbqoHoaIIKZzygYlmSAbF+sd8c1OGq0PUPtSwDZMvz1REREE9i4C6dE40k24VSSgLK5diwvK8CKsgIsLXWi0DEeprQKKOcaY511O44CIrN9VCVrYVx1dC1kZ9EYjZUo90SoJ7I1S0OkCqqFURHM/Bc3w5KMKUJoDWT7YoZQIiK6YkXD6Xj45kw0Kfzyn1fDYRsfFUTh70eo5Y8INR9AuOkAVE9PxvcwzKmJddadu4zVUZrwRNA1qAqqVUVF0DX6byYZIdsrteqnYykM0Wm59sWAnO/p/EREROMTwynRKMlrMBUqlHMnY2tHO49lXh21TYGp/FqYytfBVH4tJMf0MRos0VgSWggdtB5U9dRBhDL/Jc2wJBNkRyVkRzUMzqWxLrm2CoZQIiKiDDGcEk1QwteHUMuhSHX0INSB3uEvSiDBOLcGxuja0bnLAGlk67yJ8k9ABM9HqqD1+rRcLYRm+t/CCEgmyI4lkJ012lRcfTpuBSDlfy05ERHRZMBwSjRRCBXKuRMINb2rVUe7ajOvjtqnRqqj62EqXwvJPm2MBktXKqX/fSA8AMP0T43SHQVEsDtNCL0wSu8RRzZDtseFUOdSbX2ovZwhlIiIaIwxnBKNY8LXh1DzQW26bvNBiIFMv4xLMM5bplVGK9bDOKeG1VEaMyJ0Ad7D1wAAHNccgVywKpOrIQLnIlNx66FGOuOqA3UQoYujP1jZDNleFVsLmhBC+b9GIiKifGC3XqI0MunY+9bja0bnTYWK8Nl6hJsinXW7ahH5T3TEJPs0rZFRdO2obcrojI1oGIHmf0Sw5QcAAOOsL8C24pUUZwmIwBkokeAZv1WLCF8a/UHJFsiOqlhXXMdSrUmRrYwhlIiIaJzgVjJE44TwXkysjnoz/IIuyZHq6HqYKtbDMLuK1VHKORG6gIF3yyDCbv05+8d+BwE1MhW3PtYdN9w3+gOQrVoIHVwJtZUBEjtNExERjWfcSoYoX4SK8JlarTLa9C7CZ+qRaXVUdsyAsSKydrTsGlZHKe+C7T9NCKYA4P3wxtF/I9kGg7NaC54JIbSUIZSIiGiCY+WUKAfUgV6Emw9GKqQHIXwZVo4kGcb5K7TqaPk6GGYvYXWUxg0ROKtVTdXgqN1TMtgjAbQ6EkAj03KtJQyhREREkwwrp0QZEQgc+SXUS2dh23Df8MFQqAh3HY901j0A5Wx9xu8oO4tgrFgXqY5+ApK1MMuxE40d5cLb8B27PetgqoXQmjQhlL+AISIiupIwnBINS8C37yfw//EF7VHAA/um70CbeBCjenoi1dEDCDUfgvD3Z/Y2kgzjglWRZkbrYZhdmfQeROOFCHYj0PgthM7+54jOlwyOSPCsjjQliqwNtS5kCCUiIiIADKdEwxDw/fdP9WAKAIEjvwQgwX7Tg5Hq6AGEmt6Fcu5ExneXC4phqlgPY/k6be2oxTmKYycaA0JFqOs5BE49POLuuoaim2Ff9WuGUCIiIhoS15wSpRUJpod+nvplgxlQMpzKKBsi1dHI2tFZi8HqKE0UqvtP8DfcA6Xvjxlf61h7FLJz+RiMioiIiCY6biVDNKRhgmkG5MJZ+lRdY+knIFkcozA+otwRigfB5u0Itv87IJSs7mEsuhm21XtGeWREREQ0GbAhEtEQfH94JvtgKhthXLg6Vh2dWQ5WR2liEgif/xX8J/8Owt95WXcK97wFqD5Ato3S2IiIiGiyYTglSiH40esZnS9PmQVT+Se19aOlV0MyszpKE5vqa0Pg5P0Iu95Ie45x6ich2RcC8nD/vgsYCj7GYEpERERD4rReohRCje/A8+rfA0Id5kwJto0PwLp2C1gdpUlBhBA8/RMEmh/VKp0pyPYKWKqegnHGxhwPjoiIiCYjrjklGkbo5DvwvPZNQE2zxk6S4fjcD2FeelNuB0Y0RpRL78LfcA9UT13qE2QzzIu+DUvpQ4Bsze3giIiIaNJiOCUagdDJt+F57R+SA6okw/HZH8C87Ob8DIxoFIlQDwKnvo1Q1+605ximb4C1+inI9socjoyIiIiuBAynRCMUOrEfnv/6ViygMpjSpCEQOvNzBBofhAj1pjxDMs+EZcm/wTT7S+DUdSIiIhoLDKdEGQid+D08v/wmAMDx2R/CvHxTnkdEdHlUTx38J+6FcvF/0pwhwTT/b2Cp+D4k07Scjo2IiIiuLAynRBlSuhsBNQzDnJp8D4Uoa0LxItj6AwTbngBEOOU5csEqWKufhmHKJ3I8OiIiIroSMZwSEV1hwj1vInDiPqi+tpSvSwYnzBWPwrzgXkDiTmNERESUG9Fwym8fRESTnPB3wn9yG8Ln0+/fa5z5eViX/ASSdX4OR0ZEREQUw3BKRDRZiTCC7T9DsPmfIBRPylNk2yJYqv5fGIu4jpqIiIjyi+GUiGgSUvoOa3uWuo+mPkEywrzoH2AufQSSwZ7bwRERERGlwHBKRDSJiPAlBE49glDns4i0FEhimPZJWKueguxcmtvBEREREQ2B4ZSIaFIQCJ39/xFo/CZE8HzKMyTTDFgqH4dp7lfBPUuJiIhovGE4JSKa4FRvI/wN90K5sD/tOaZ5d8Ky+EeQTDNyODIiIiKikWM4JSKaqFQ/Aq0/RrDtR4AaTHmK7Fyq7Vk6dX2OB0dERESUGYZTIqIJKNz73wicuBeqtyn1CbINlvJ/hHnhNkA253ZwRERERFlgOCUimkBE8BwCJ7+J0LmX055jLP5zWJb8O2TbotwNjIiIiOgyMZwSEU0EQkGocycCTY9AhPtSniJZ58O65N9hnPkXYMMjIiIimmgYTomIxjml/0MEGu6B0v9+6hMkA8wL74e5fDskgzO3gyMiIiIaJQynRETjlAj3I9j8Twh2/AwQaspzDFM+AWv105ALVuV4dERERESji+GUiGjcEQh3/y/4T26DCJxJeYZknArL4n+Bad5fA5Kc4/ERERERjT6GUyKicUT1tSBw4j6Ee/amPcc0569gqXwcknlWDkdGRERENLYYTomIxgM1iODpJxFo+T6g+lOeItsrtT1Lp/9ZjgdHRERENPYYTomI8ky5+Af4G+6FOtCQ+gTZAkvpd2Be9C1AtuR2cEREREQ5wnBKRJQnIuhC4NSDCJ15Ie05xhmfhqXqZ5DtFTkcGREREVHuMZwSEeWaUBE6sxuBUw9BhC6mPEUyz4Z1yU9gnP1FcM9SIiIiuhIwnBIR5ZDqOQ5/wz1QLh1Mc4YE84J7YK54DJJxSk7HRkRERJRPDKdERDkglAEEWx5F8PRPAKGkPMdQ+DFYqnfAULgmx6MjIiIiyj+GUyKiMRZ2/QaBE/dD9benfF0yFsBc8X2Y598NSIYcj46IiIhofGA4JSIaI6q/HYETf4ew69dpzzHO+iKsS/4NkmVuDkdGRERENP4wnBIRjTYRQrD93xFs3g6heFOeItvKYKn+GYwzPpPjwRERERGNT+MynAohcPbsWbS1taGtrQ1utxtbtmyB3W5POldVVbz33ntoamqCLMtYtmwZqqqqYDab094/EAigtrYWdXV1MBgMqKmpwerVq0c8vpdeegl9fX34xje+AUliF00iilEuHYS/4R6onuOpT5BMMJc+CEvpw4Bsy+3giIiIiMaxcRVOg8Eg/vu//xu//vWv0d/fj6lTp2LJkiWorq6G0Zg8VJfLhccffxydnZ0oKipCOBzGnj17MGvWLHz729/GrFmzkq7x+/3Yvn072tvbUV1djdbWVrzxxhu46aabsGXLlmHD5jvvvIM9e/bg85//PIMpEelE6AICpx5GqOu5tOcYpl0Pa/XTkB1VORwZERER0cQgARCAVq3Mp3PnzuHJJ59EV1cXLBYLtm7diuuuuy7t+S6XC48++ih6e3uxYcMG3HnnnZAkCW+99RZefPFFTJkyBY888gjmz5+vXyOEwL/927/hyJEjWLduHe699150dnbiwQcfBAA88MADuPrqq4d8z4ceeghz5szBo48+CoOBjUuISCB09kUEGr8FEXSlPEMyF8NS+QRMc/4K3LOUiIiIKFG06CfneRwAgIaGBnz3u99FV1cXFixYgB/+8IdDBlMA2LVrF3p7ezF9+nRs2bIFsixDkiRs2rQJlZWV6OvrwwsvvJBwzdmzZ3HkyBEAwLp16wAA8+fPR0VFBQDgjTfeSPt+Qgg8++yzUBQF99xzD4MpEUEdaID3gxvgr/1a2mBqmv91OK6th2nOHWAwJSIiIkov7+G0o6MDTz75JLxeLwoKCvTK5FA++ugj1NbWAgA+/elPw2KxJLx+ww03AABqa2vR2NioP9/S0qIfx0/5nTtX65LZ3NwMRUm9/+DevXtRX1+P22+/HfPmzcvgExLRpKP6EGj6HgYOrYZy8Q8pT5Gdy2G/+n9grX4Gkml6jgdIRERENPHkNZx6PB78+Mc/htfrhSRJuOeeezB9+vBf4vbt26cfV1dXJ70e/9xrr72mH8eHU5st1oikoKAAAKAoCi5cuJB0v66uLrz88suoqqrCpk2bhh0fEU1e4d7fYuDgCgRbfwiIUNLrksEOS+XjcFzzPgxTr83DCImIiIgmprw2RHrttdf0MHjDDTdg5cqVw14TCoVQX18PQJubXFZWlnROUVERCgsL0d/fj9raWvT396OwsBAmk0k/J76ZUfx628HTdRVFwTPPPAODwYC7776bTZCIrlAicAb+kw8g3P1a2nOMM/8SliU/hWxdmMOREREREU0OeaucdnV14fe//73++MYbbxzRdSdOnEAwGAQAOByOlF18AWD27Nn68fnz5wEA5eXl+nNeb2zvQbfbDQAwmUyYNm1awn1+9atfobm5GXfccQeKi4tHNEYimkSEgmDHzzBwsCZtMJWtC2Fb9b9hW/m/GEyJiIiIspS3yukf/vAHfX1nWVkZ+vv7sWvXLnR2dqK/vx+LFi3CmjVr9MZFUS5XrOmI0+lMe//4PVFdLhcqKioSqqwdHR362tbodN+KioqEymhraytef/11rFq1Chs2bLiMT0tEE5HS/wECDfdA6T+S+gTJCHPJAzCXfQ+SwZHbwRERERFNMnkLp4cPH9aPW1pa8IMf/AAzZ86E2+2G1+tFd3c3Dh8+jKNHj+Jv/uZv9Appf3+/ft1Q4TR+TWk00BYVFeGWW27Bnj178Jvf/AZXX301PvzwQ3R1dQEANm/erF8TCoXw9NNPw2az4a67X1nj2AAAIABJREFU7hqdD01EE4II9yHY9D0EO55GZLetJIap12p7ljqX53ZwRERERJNUXsLp+fPnEyqgK1euxJe+9CWUlJRAVVXs378fzz//PADgwIEDWLBgAf7iL/4CADAwMKBfN1Q4leXYjOWenh79+Mtf/jJ6enpw+PBhbNu2DS6XCxaLBXfeeScqKyv181599VV0dXXhvvvuw9SpUxPu7fV64fP5MGPGjCz/BohofBIIn3sV/pN/DxE8l/IMyTQdlsU/hmnu1wAp7w3PiYiIiCaNvITT+I64JpMJDz30kP5YlmVs3LgR58+fx549ewAAr7/+Ov7sz/4MBQUFCaFzqL1Go+tSAcBsNuvHkiTh/vvvR39/P44dOwabzYbFixejsLBQP+fEiRN48803sXbtWqxdu1Z/3uVy4bnnnkN9fT0URcHs2bOxadMmbNy4Mcu/CSIaL1RvEwIn/hbh3n1pzzHN/b9gWfxjSGauPyciIiIabXn5tf/Fixf14/hQGG/Tpk16EA0EAvq60ClTpujnhMPhtO8RCAT04+hWMfEKCwuxfv16XHXVVQlj8Pv92LFjB6ZMmYKtW7cmPP/EE0/g+PHj2LRpE7Zv3w5FUfD888/jj3/843AfmYjGKzWAYMv3MXBoRdpgKjuqYV+zH9alzzOYEhEREY2RvITT+IpnunA6depU1NTU6I+j60Lju+nGT/EdbLhwms6LL74Il8uFu+66K2Ha8KuvvoqOjg4UFhZi8+bNqKys1DsMP/PMM3rHXyKaOJQLb2Pg0CoEmv8JUAPJJ8hWWCq+D8c1H8Iw7frcD5CIiIjoCpKXcLpwYWyrhfgtXQaL3w4mFNI2u49f5+nxeNJeGz91eN68eSMa19GjR7F//35s2LABq1atSnitoaEBALBkyRK9ort06VIA2hTi5ubmEb0HEeWfCHbDX/tVeI9shOptTHmOsegmOK49DnPpw4BsTnkOEREREY2evITTWbNmwWKxANCaI8VXOePFNyKKBtXS0lK9oulyueD3+5OuCwQCehMku92OioqKYcfk8Xiwc+dOFBcX44477kh4LRQKobOzE0BiE6b4imx02jERjWNCRahzJwYO1CB09j9TniJZ5sK28pewrd4D2VaW8hwiIiIiGn15CaeSJGHBggUAACGEPmV3sPhpu9Fqq8lkwvr16wEAiqLg5MmTSdd1dXVBCG37h+XLlw/ZOClq9+7d6Ovrw9133w2r1ZrwWl9fn74nazRUDz6Or9QS0fijuv8E7/ufhL/hbojwpeQTJBnmhffDcW0djDM/D0BKPoeIiIiIxkze9kHYtGmTfvzb3/425TkdHR0AgBUrVmDOnDn689dfH1v7VVdXl3TdsWPHAGgh+NZbbx12LIcOHcKhQ4dw8803o6qqKun1GTNmwOFwAEichhwfnrmtDNH4JMJuBBr/AQOHr4bSl7p5maHwatg/fhiWJT+BZEy9Dp6IiIiIxlbewuk111yDdevWAQDeffddNDYmrvtqbW1FXV0dJEnC5s2bE14rKSnBtddeCwB4++230dfXp7/m9/uxf/9+/T3Kyoaelnfp0iXs3r0b8+bNS3qfKEmS9Pv09vbqz3d3d+vH8etjiWg8EAif/98YOLQMwdM/AYSSdIZkLIS16mewf/wADIUfy8MYiYiIiCgqrzvIb926FdOnT4cQAv/xH/+BEydOQAiB1tZW/OQnP4HRaMS2bdtQWlqa8tq5c+diYGAAO3bswJkzZ9DY2IjHH38cPT09qKysxNe//vVhx7Br1y74fD7cc889MJlMac+77rrrAGh7oPb39wMADh48CAAoKirCmjVrsvkrIKIxoPra4Dv6l/D96TYIf2fKc0yzvwTHugaYFtwNSMNP/SciIiKisSUBEAD0NZq51tPTg+effx5Hjx4FAFitVgQCASxYsAB33nknKisr017rdruxc+dOHDlyRH/OaDRi48aNuP3225PWjg729ttvY9euXbjttttw2223DTvWl156CXv27EFxcTFWr16Nffv2wWw2Y9u2bVi5cuUIPzERjRkRQvD0TxBofhRQfSlPke0VsFQ9BeOMjTkeHBEREf0f9u49PKZr/x/4e2YymdwFQRAkRIS4JEWLUKqhqrRKUT16ely/xek5vR+9q37bc/rT2zkVqpTSFm3162lFRUJQt4YEkXuIyE3ERC6TZDK3Pfv3R87sZmRylWQS3q/n8dgz67P3XnsqfeaTtdZnEdkik1XX+rB7cmpRXFyMnJwcyOVy+Pv7w8XFpdHnFhYWIi8vD0qlEv3797eqqFsXURTx3nvvwcXFBS+88EKjiiaJooj4+HicPXsWBQUF8PX1xUMPPdTorWqIqPUIJcehS1sFc0XtdegAALkjHH1XQ+X3D0Be/y+uiIiIiKjttLvklIioOURjEfSXVsOYv63OGEWXyXAaHA65S90zMYiIiIjIPizJqYOd+0FE1EwijNe2Q5/xKkTjTZsRMsfuUA36BErvJ8GtYYiIiIjaNyanRNThmCuSoUtbBaHkeB0RMih9/gcq//+FTNm5TftGRERERM3D5JSIOgxR0MJw5X9hyP4YEE02Y+TuwXAavAGKTve1ce+IiIiI6HYwOSWiDsFU9Cv0ac/BXHXVZrtM4QZH/7Vw7LMKkPF/bUREREQdDb/BEVG7JuryoEt/HqYbe+uMceg+G06DPoXMyacNe0ZERERELYnJKRG1T6IJhpz1MGS+A1GosBkid/aFKvBzOHhNb+POEREREVFLY3JKRO2OUBYLXeoKmMsTbAfIHODo+zIc/d6ATNH4PZGJiIiIqP1ickpE7YZoKoX+0hsw5m3Cf7dgrkXReQKcAsMhdwtq284RERERUatickpE7YAIY8Eu6DNegmi4YTNCpuwKVcA6KHv9GdyzlIiIiOjOw+SUiOzKXJlevWdp8ZE6Y5S9F0M18F+QKbu2Yc+IiIiIqC0xOSUi+zDroM/6FwxXPwTMBpshcreg6j1LPce3ceeIiIiIqK0xOSWiNme6eQj6tFUway/bDpA7QzXgHTj2ex6QKdu2c0RERERkF0xOiajNiIbr0Ke/BOP13XXGOHR7BKpB/4Hc2bftOkZEREREdsfklIhanyjAmPcl9Jdfh2jS2AyROfnAadB/4ND9UbDgEREREdHdh8kpEbUqQXMO+tSVEDRnbQfIFHDs+3c4DngHMoVb23aOiIiIiNoNJqdE1CpEkwaGzHdgyF0PiGabMYpOY+A0eAPk7iPauHdERERE1N4wOSWiFibCVPh/0KU/D1F/zWaEzMETqoH/hLL3UkAmb+P+EREREVF7xOSUiFqMueoK9GnPwVQUWWeMsudCqAL+H2SOPdqwZ0RERETU3jE5JaLbZzbAkP0x9Ff+FzDrbIbIXQKq9yzt8kAbd46IiIiIOgImp0R0W4SSY9ClroK5MtV2gFwFld/rcPR9BZCr2rZzRERERNRhMDklomYRDWroL70K47UddcY4dJ0CVeB6yF3827BnRERERNQRMTkloqYRzTBe2wb9pX9ANJbYDJE5esNp0Kdw8J4L7llKRERERI3B5JSIGs1ckQhd6koIpafqiJDBsc9KOPq/B5lDpzbtGxERERF1bExOiahBolAJw5W1MGR/CoiCzRiFxz1QDd4IhceoNu4dEREREd0JmJwSUb1M6n3Qp/0NZl2OzXaZgzsc/f8Xjj4rAJmijXtHRERERHcKJqdEZJNZlwN92t9hUv9SZ4xDj7lwGvQJZKpebdgzIiIiIroTMTklImuiEYac/8CQuQaioLUZInfuD9Xg9XDo+lAbd46IiIiI7lRMTolIIpSegi51JcwVibYDZEo4+r0Kld9rgNy5bTtHRERERHc0JqdEBNFYDP2l12DM31JnjKLzRDgN3gC5a2Ab9oyIiIiI7hZMTonuaiKMBd9Cn/EKRIPaZoTMsRtUAR9B2fNP4J6lRERERNRamJwS3aXMlanQpa6CUHKszhilzzKo/D+ATNmlDXtGRERERHcjJqdEdxtzFfRXPoDh6jpANNoMkbsNg9PgDVB4jmvjzhERERHR3YrJKdFdxHTzIPSpf4W56orNdpnCFY4D1sCx73OATNnGvSMiIiKiuxmTU6K7gKi/Bl36CzAV7qkzxqH7Y1AN+gxyp75t2DMiIiIiompMTonuZKIAQ+4GGDLfgmgqtxkid+oLVeB/4NBtZht3joiIiIjoD0xOie5QgiYO+tQVEDTnbAfIHODY7wU49n8LMoVr23aOiIiIiOgWTE6J7jCiqQyGy2/BkLsBgGgzRuEZCqfB4ZC7DWvbzhERERER1YHJKdEdQ4Tp+g/Qpb8I0XDdZoRM2QWqgR9C2esvgEzett0jIiIiIqoHk1OiO4BZexn6tFUw3TxUZ4yy1zNQDfwQMsdubdgzIiIiIqLGYXJK1JGZ9TBc/X/QZ/0TMOtthshdB8NpcDgUnSe2ceeIiIiIiBqPySlRByUUH4EudSXM2gzbAXInqPq/Bcd+LwJyx7btHBERERFREzE5JepgREMh9BmvwFjwXZ0xDl7ToAr8HHLn/m3YMyIiIiKi5mNyStRRiGYY87dAf+k1iKZSmyEyVS84Bf4bDt0fByBr2/4REREREd0GJqdEHYC5PAG61JUQyn63HSCTw7HPc3AcsAYyB4+27RwRERERUQtgckrUjommchiuvAtDzn8AUbAZo/AYDachGyF3D2nj3hERERERtRwmp0TtkgjTjZ+hS/87RF2ezQiZgwdU/h9A6bMckCnauH9ERERERC2LySlRO2Ouugp9+t9gUu+vM0bpvQCqQR9B5ujdhj0jIiIiImo97TI5VavV+Omnn+Do6IjFixfXG2s2m3HmzBlcvnwZcrkcQ4cORWBgIBwd6946Q6/XIykpCcnJyVAoFBgyZAhCQho/JXLnzp0oKyvDs88+C5mMRWeohYhGGLI/hT5zLWCushkid/GHKjAcDl3D2rhzREREREStq90lp2azGRs2bEB6ejqUSmW9yalarca6deuQl5cHLy8vmEwmREREoEePHli9ejV69OhR6xydToc1a9YgJycHgwcPRlZWFvbv349p06bh6aefbjDZPHr0KCIiIjB79mwmptRihJLj0KWtgrki2XaA3BGOvquh8vsHIHdq284REREREbUBub07cKt9+/YhPT29wTi1Wo21a9ciLy8PkydPxmeffYbw8HAsXLgQhYWFWLNmDfLyrNfqiaKI8PBw5OTkIDQ0FG+99RbWrl0LAIiMjERcXFyD99yxYwf8/Pzw+OOPN/8hif5LNBZBl7IU2rhJdSamii6T4To2AaoB7zAxJSIiIqI7VrtKTrOysrBnz55GxW7evBk3b95Ely5d8PTTT0Mul0Mmk2H69OkICAhAWVkZduzYYXVOQUEB4uPjAQChoaEAAB8fH/j7+wMA9u+ve42fKIrYtGkTBEHAypUroVCwAA3dDhHGa1+j8uQQGPO32YyQOXaH07Bv4TIyCnKXgDbuHxERERFR22o3yanBYEB4eDgcHR3h5uZWb+z58+eRlJQEAJgyZQpUKpVV+4MPPggASEpKQkZGhvT+lStXpOOaU3579eoFAMjMzIQg2N6uIzIyEikpKZg3bx569+7dhCcjsmauSIY27gHokpdANN60ESGD0udZuIamQum9AACnjxMRERHRna/dJKc7d+7EtWvXsGjRInTr1q3e2OjoaOl48ODBtdprvldzJLZmcurs7Cwdu7u7AwAEQUBxcXGt6+Xn52P37t0IDAzE9OnTG/E0RLWJghb6S6+j8vd7IJQctxkjdw+Gy70n4TQ4HDIHzzbuIRERERGR/bSL5DQhIQFRUVEYO3Ysxo8fX2+s0WhESkoKAEAmk6F///61Yry8vODh4QGgevRUo9EAAJRKpRRTs5iRKIrS8a3TdQVBwBdffAGFQoEVK1awCBI1i6noV2hPD4Ph6oeAaKrVLlO4QTXoE7jeFwtFp/vs0EMiIiIiIvuye3JaUVGBTZs2oWvXrliyZEmD8WlpaTAYDAAAV1dXODjYLjjs7f3H/o83btwAAAwYMEB6T6vVSsfl5eUAqpPXzp07W13n559/RmZmJhYuXNjgiC7RrURdHqoSnkDV+ZkwV121GePQfTZcxyXDse/fAVm7K6BNRERERNQm7J6cbt68GWVlZVi5ciVcXFwajFer1dJxfWtTa17Lck7NUdbc3Fzp2DLd19/f32pkNCsrC3v37kVwcDAmT57ciKch+i/RBEP2Z6g8FQTTjb02Q+TOvnAO2QfnET9C5uTTxh0kIiIiImpf7DpMc+zYMZw9exYzZ860uXbUFssUXaD+5LTmmlJLcurl5YUZM2YgIiIC+/btw+jRo3Hu3Dnk5+cDAObPny+dYzQasWHDBjg7O2P58uVNei66uwllsdClroC5PMF2gMwBjr4vw9HvDcgUDf9ChoiIiO5cFRUVKCwsrDemR48eDRYMpdouX76MM2fO4KmnnrJ3V6iR7Jac3rhxA9u3b4efnx/mzZvX6PMqKyul4/p+SOXyPwaFi4qKpOMFCxagqKgIsbGxeP7556FWq6FSqbB48WIEBPyxXccPP/yA/Px8PPfcc/D0tC5Mo9VqUVVVha5duza633TnE40l0F9+A8a8LwGINmMUnSfAKTAccregtu0cERERtUtXrlzBL7/8gkuXLsFoNNZq9/f3xxNPPIHhw4fboXcd2y+//IK4uDhMnDiRu210EHZJTs1mMzZs2ABRFLFq1aom7RlaM+ms7zzLulQAcHR0lI5lMhn+9re/QaPR4OLFi3B2dsbAgQOlAkpA9brWX3/9FWPHjsXYsWOl99VqNbZs2YKUlBQIggBvb29Mnz4dYWFhje4/3YlEGAt2QZ/xEkTDDZsRMmVXqALWQdnrz+DWMERERGQxfPhwDB8+HBqNBm+88QZu3qzeZs7T0xOvv/46fHxafumPWq1uV7VUqqqqIAhCi44Oq9VqnDt3DgAQFRWFRYsWtdi1qfXYZc3pL7/8goyMDPzpT3+S9hhtrE6dOknHJlPtqqcWer1eOrZsFVOTh4cHxo8fj5EjR1olpjqdDhs3bkSnTp2s/hHrdDp89NFHSExMxPTp07FmzRoIgoCtW7fi999/b9IzUMdkyPoAhivvoeaoqLkyHdr4KdAlPV1nYqrsvbh6z9Jez4CJKREREdni4eGBwMBA6fXgwYNbJTEtKSnBiy++aLVbhb3t3r0bBw4caNFrRkdHw2w2AwCOHz8OnU7Xoten1tHmI6dqtRo//fQTgOptXpKSkmrFFBQUAKhe9/nZZ58BAIYOHYqwsDCraro1p/jeqqHktC7ffvst1Go1Xn31Vavf3vzwww/Izc2Fh4cH5s+fD7lcjqlTp+K7777DF198gaCgoCbdhzoWoew09JffAgAoPMdB4RkKfda/qreGMRtsniN3C4LT4A1QeNa/PRIRERERYF0zxdXVtVXu8euvv0IQhFa5dnOUlZXht99+w/Tp01vsmgaDAUePHpVe63Q6/Pbbb5g6dWqL3YNaR5snp+Xl5dIPxJkzZxqMt8SoVCqEhYVZrfOsqKio87zi4mLpuLFzzC9cuICYmBhMnjwZwcHBVm2pqakAgEGDBklTi4OCqtcNGgwGZGZm1jqH7hyGzLXSsS79RcCsg1l72Xaw3BmqAe/Asd/zgExpO4aIiIjsxmgS8ehr8Y2KPbBuVCv35g81d42ouZStpSQmJrb4COXtEAQB69evtxpUagknT56slSdER0czOe0A2nxar6urKwIDA+v9o1T+8YXe8p5lWoOfn580oqlWq20O0ev1eqkIkouLC/z9/RvsV0VFBb788kt069YNCxcutGozGo3Iy8sDYF2EqeZIqWU7GrrzCGW/w3QzSnptrkiqMzF16PYIXMclwdH3FSamRERE7VRjE1MAePiVuFbsSfOYTCZppqGFIAhWRUBvlZOTg3//+9/SVNfGEEURN27csNotoy7FxcW1ZjWWlZXVOZ3WbDZj27ZtSE5ObnR/GuvgwYNQKBR45ZVXpPfy8/ORkpLSrOsZjUYUFhZa1bRpjJKSEpSUlDTrnnerNh857dGjB95+++16Y9544w1kZWVBqVTWilUqlRg/fjwiIyMhCALS09MxYsQIq5j8/HxpHv2wYcMaVXBp27ZtKCsrw1tvvQUnJyertrKyMmm0V6VSSe/XPK45Ukt3lpqjpnWROfnAadB/4ND9UXBdKREREbWGGzdu4PDhwzh27Bg0Gg2++eYblJSU4KeffkJ8fDwqKirg5eWFxx57DA8++KB0XkREBH788UerasDvvvuudPz8889b7U6RmZmJXbt24cqVK1Jy6enpibCwMDz22GPSd2tBEBAXF4fDhw8jOTkZjz76KObPn4+jR48iJiYGmZmZUCgUGDJkCFatWiUN7Ny4cQOff/45MjMzpXseOXJESlRDQkLw2GOPNeszSk1NRU5ODkJDQxESEgJ/f39cvlw9qBAVFYUhQ4Y06jqiKCIyMhLHjx9Hbm4uBEGATCZD3759MW/ePISEhNg8r7CwEDt37kRGRgbKysoAVOcMEydOxJw5c7gMsAF23ee0uSZOnIjIyEgAQHJycq3k9OLFiwCqp0bMnDmzweudPn0ap0+fxvTp060Wolt07doVrq6uqKyshFarld6v+dshbitzZxLKYmG6ebDuAJkCjn3/DscB70Cm4P5jREREbUGjNSHrWhXMbVTU5/ylhkcObyWXy+DfywWuzo3flaI+H374IS5evGhVyCgvLw/r1q2zGiQpKirC119/DT8/P/Tv3x9A9XfW8ePHIy4uDuXl5QCAXr16SdOIHRz+SAl+/fVX7Nq1C76+vliyZAkqKipw6NAh5OfnY8+ePUhKSsKbb76JCxcuYMuWLSgtLbXq586dOxERESG9NplMuHjxIrZs2YIXXngBAKDRaNC3b1+4urpK39vd3d2lpXg1a8w0lSVHeOihh6S/LclpfHw8iouL0aVLl3qvodFoEB4ejsTERIwePRpPPPEESktLsXfvXmRnZ2PdunVYsmSJ1S8AAODEiRPYunUrFAoF5s6di+7duyM2NhbHjh1DVFQUEhIS8P7778PFhfvc16VDJqf9+vXDuHHjcOrUKRw5cgSPPPKIVMVXp9MhJiYGADBmzBjph7IupaWl2LZtG3r37o358+fbjJHJZOjfvz8SExOl8t4ArDZM9vb2vt3HonbIcKXuUVOZgwdcRh2B3J1rjYmIiNpKytUKvLklA1X6xk9PvV2vf5nRrPPcnBX48NlB6N/r9pORadOmYcqUKfj000+lGX1r165FUFAQVqxYgd69e+P//u//cOjQIQiCgB9++AGrV68GAOk7bkFBAdLS0gAAy5Yts1rjCgAZGRn49ttv0bt3b6xZs0YaIb3vvvvw9ttvo6ioCGlpaYiKisLIkSOxYsUKxMTEIDY2FgDw888/w8XFBYsWLcKIESNQWlqKjz/+GOXl5Th79iwuXbqEgQMHwt/fH/7+/khJSZGS01GjRmHu3Lm39RkVFRUhPj5eur6l79988w00Gg0EQcDhw4cbvM/mzZuRmJiI0NBQrFq1SnrfbDZj69atAKqT8EmTJkmfUVZWFjZu3Ai5XI61a9dKSxKHDRuGxMREFBcXo7CwEFFRUZg1a9ZtPeedzC5bybSERYsWoVevXqisrMTGjRtx7do1ZGRkYN26dSgqKkJAQACWLVvW4HU2b96MqqoqrFy50mqt663uv/9+ANV7oFrm3Z86dQoA4OXlhVGj2m6xPLUNoSwWpqLIOttFkwaisbTOdiIiImp538cUtGliejsqqgTsOVbYcGAjjBgxAvfcc4/V9jLTp0/HCy+8gKCgIHh6euKpp56Svs9evXq1SdcXRRE7duwAAEydOtVqWZynpyceeOAB6XV0dDS6deuGYcOGITQ0VHrf29sb7733HqZMmYLu3bsjICAAkydPltqzs7Ob1KemOnToEMxmszRqClSPCtfs+5EjR+qtVhwfH4/4+Hg4ODjUGrgaO3asVKhKr9ejqqoKQHXSumXLFoiiiEmTJln9N1IoFBgzZoz0ujHrd+9m7XLk1PLDUN9aUVdXV7zzzjv48ssvER8fj5dffhlA9T/AadOmYd68ebXWjt7qyJEjOH/+PObMmQM/P796Y0NDQ5GdnY2IiAi89dZbCAkJwfHjx6FSqbBkyZJ6E1vqmOobNbXQX3kXLl0mtX5niIiICED1dNmOpKW7W/P77axZs6xGP52cnODl5YWCggIpcWqs3NxcqcBnVlYWvvnmG6v2msU/CwsLYTKZ4ODgYNWf++67Dz179rQ6r2/fvtJxzeVxLc1oNCImJgaenp5WySAAhIWFYd++fTCbzSgtLcWZM2cwduxYm9exVDPu168fvLy8rNpcXV3x+uuv4+TJkxgyZIhUKDUjIwNZWVkAgJEjR9a65qxZs+Du7g6NRtOiW+bcidplcrp2bcNJAVA9N/2ll15CYWEh8vLyoFQq0b9/f6uKunURRRHHjx/HPffc0+ih9QULFiAgIABnz57FlStX8OCDD+Khhx5q9FY11HEIZWfqHTWV4kp+g1ByDIrOE9ugV0RERPRUWE8kZ1WgXGuyd1ca1NldiXkPtOzSr4YKfVr2RzWZmvb5XL9+XToWBKHWVizdu3dH9+7dpdeW5LShLW9qrq9szf1VLdvHTJ06tVbVYKVSicDAQKlab1RUVJ3JaX5+PgBYPWtNQ4YMqVVUybKrB1Bd/PVWbm5uzS7wdLdpl8lpU/Xo0cPmP4T6yGSyBqsG2zpn1KhRnMJ7FzBcea/RsfpLr8Hl3lOt2BsiIiKyGOjjiu2vD0NWQRWaWw/p5Q1pTYr/aGXtgpkNkcuB/r1coFK27Sq6W9eRNpYlOZXJZFi6dGmjZwU2lJw2tz9NdfBgdQHLqKgoREVF1Rubnp6OnJwcq1FdoHprSUuF3aYk95ak8RbKAAAgAElEQVSEtqnnUW13RHJK1NKE8oRGx5orUwDRDMg67BJuIiKiDsVZpcAQ37arkh/kd+dX5LeMNlr2Nu1IMwPT0tKQnZ2N4cOHS3VibNm9e7e0F2xUVBSWLl1q1a7X66VjtVrd6PvXPO/GjRvo06dPo88la0xOiWxwufcEzJrzjYqVuw9jYkpEREQdWs1prCdPnsS8efPqjD1y5AjGjRsHlUrVFl1rkGXUdO7cuRgwYECdcTdv3sSuXbsAVD/jU089ZTXtuEuXLlAqlTAajcjJyUFRUVGtdacWCQkJEEURwcHBVjM4z507Z3PdKVCd+H/33XdYuHBhk5/xbsFv1EQ2yJ36wqH7Y436I3euf7siIiIiovauZiGjAwcO1Nq/1CI3Nxfbt29vq2416ObNm4iLi4O/v3+9iSkAPPDAA9J0Zb1ej2PHjlm1y2QyKdE0m83Snqm3EgQBO3bsgNlcXTW65paSJ06cqLMi78mTJ5Gamtq4B7tLceSUiIiIiO4qB9a1z/ohNdcrWhKf+ohNXHRbc32oXq+Hk5OTdA1fX1+4uLhAq9VCr9fjgw8+wEsvvWQ1KlhZWYn169cjKChIGjVtSh9uja25HrXm1FhRFBu9VnX//v0QBAFhYWENxrq5ueGee+6R9mU9cOBArW1zhg4dKhU4OnjwIAYOHIj77rvPqm/bt29HWVkZhg8fDgAYNGgQHB0dYTAYYDQa8cknn2D16tVWlYzz8vKwfft2PProo416rrsVk1MiIiIionag5ojbrRVnbb1vMBjg4GD9dd5SEVcURej1equpt127dpWO4+PjMXr0aPzrX//CpEmTcP/992POnDnSFjJ5eXl44403cO+998LHxweXLl1CQkIC9Hq91VrNmtvDGAyGWv2tWaFXp9NZtdXsT2pqKnQ6HVJSUvDNN9/gk08+aTBBVavViImJgUwmQ0hISL2xFiEhIVJyWlRUhMOHD2Pq1KlS++zZs/Hbb79Bq9VCEASsX78eSUlJGDx4MAwGAw4fPozMzEzMmTNH+uw9PT3xyCOPYO/evQCqt5ZZs2YNQkND4e3tjUuXLuHgwYNwdnbGxInc4aE+TE6JiIiIiOxIr9fj999/R3JysvReQkICkpKSEBQUBJlMBlEUkZKSYrVtyenTpzF58mQpibt8+TKys7Ot2idOnCi11yxyFB4eDoVCAX9/f0yYMAEAMHXqVMTFxUlTT7VaLY4ePWrV18cffxwDBw4EAJSXl+PEiRNS28WLF1FRUSFt62gwGKzaL1y4gFmzZknrPL28vKBSqaDX65GVlYVly5ZBEASsXr26wcT0+vXrCA8PlxLi9PR0jBw5st7zKisrkZOTY/Xezp07AQBjxoyBh4cH3Nzc8Mwzz+DLL7+EIAgQBAGHDx/G4cOHpXOCgoIwe/Zsq+s8+uijOH/+PK5evQoAyMnJsbqXTCbDX//6V3h4eNT7XHc7GQARaPq0ACIiIiIiuj2nTp3C5s2braa11uTk5IQlS5bg999/R3x8fK12pVKJDz74AJ9++imuXbtm8/xNmzZBqVTCYDBg3bp1SE5Ohkwmw7Bhw7B48WKrYkiCIGDPnj3Yt2+f1dRiR0dH/PnPf8bkyZMBAJmZmVizZo3NvUsnTJiAYcOGYdOmTbXaZTIZ5s6di1mzZgEAzp49iw0bNkCv16Nz58545JFHMH369Ho/s5iYGGzZssXmZ/HRRx+hW7dutdoKCgrw8ssv15nzKJVKq7W0qamp+Pzzz63W3srlcjz88MN44oknbBaDMhqN2Lp1K3777Ter+/Tq1QvLli3DoEGD6n2uu5nllwpMTomIiIiI7iJFRUVQKBTo3LlznTGW0czr16+jZ8+e8PX1bbXqvEajEdeuXUOfPn0a3De1LYmiiLy8PGRlZcHDwwN+fn7o1KlTg+dVVFTg8uXL0Gg06Nu3L/r06WO1rpVqY3JKREREREREdmdJTtvPryaIiIiIiIjorsXklIiIiIiIiOyOySkRERERERHZHZNTIiIiIiIisjsmp0RERERERGR3TE6JiIiIiIjI7picEhERERERkd0xOSUiIiIiIiK7Y3JKREREREREdsfklIiIiIiIiOyOySkRERERERHZHZNTIiIiIiIisjsmp0RERERERGR3TE6JiIiIiIjI7picEhERERERkd0xOSUiIiIiIiK7Y3JKREREREREdsfklIiIiIiIiOyOySkRERERERHZHZNTIiIiIiIisjsmp0RERERERGR3TE6JiIiIiIjI7picEhERERHdQTQaDW7evGnvbhA1mYO9O0BERERERNUEQcC5c+eQm5uLgoICdOvWDQEBAQgICICLiwsqKyuxa9cuLF261Oo8URSRnJyM6OhonDt3DkFBQVi9erWdnuIParUaGo2mWed6eXmhU6dOdbZrNBocPHgQ/v7+CAkJaW4XqR1hckpERERE1A5cvnwZmzdvRm5uLgDAyckJOp0OACCTyeDr6wulUolr165ZJafXrl3DRx99hOvXr9ul3/WJjY3FqVOnkJ2dDVEUm3Tuk08+iUcffbTW+yUlJYiIiEBMTAz0ej1mz57N5PQOweSUiIiIiMjOCgoK8P7770Ov12PYsGFYvHgxevTogeLiYiQnJ2P//v3IysoCALi5uVmd6+XlhcWLFyMzMxPff/99q/ZTrVajW7dujY6fMWMGZsyYgbS0NKxdu1Z6f/78+QgKCpJem81maLVaZGRkYP/+/TAajdDr9VbX0ul02LVrF44ePQqj0Xj7D0PtDtecEhERERHZ2YYNG6DX69G3b1+8/PLL6NGjBwCgS5cumDBhAt5++234+/vbPNfR0RFDhw7F+PHjW7WPJSUlePHFF5s8AgoAgYGB8PT0lF77+PjA399f+hMQEIDg4GDMmzcPb7/9NuRyea3kVCaToXPnznjttdc4UnqHYnJKRERERHc90VBpt3uXl5cjMzMTADBq1CgolcpaMS4uLnj99dfRvXv3Oq+jUqlarY8A8Ouvv0IQhGaf39j+DRgwAKNHj5amNNc8f9asWQgMDERoaGiz+0HtF5NTIiIiIrp7iWZoD/wTpR+GQrNlAYCmjwreruzsbOk4PT29zjgnJydMmTKlzna5vPW+2icmJuLAgQO3dY2m9G/OnDkYPXp0ne2urq631Rdqn5icEhEREdHd6b+JqT6uep2mUJCKqsP/QVsnqF27dpWOU1JScOzYsTpjhw8fXmdbU5NTnU6H4uLiBkdDc3Jy8O9//xtms7lJ128Oy1pSHx8fjBgxos44hULR6n2htseCSERERER097EkpvE/ApDBkpDqTm0DADg/+Lf/vt/6evbsCU9PT5SWlkIURWzatAlXr17F/Pnz4eTkZBXbu3dvTJs2rdn3MpvNiI6ORlRUFAoKCgAASqUSvr6+GDVqFGbMmAGZ7I/njoiIwI8//mhVgOjdd9+Vjp9//nmrtaS3QxRFrFixAp9//jmcnZ3rja3ZR7pzMDklIiIiog7FXJILU+4FoBmFeQAAoghDYgSMV89a3rBq1p3aBuHGZTgOCUOzE1SZHA79RkLeqWejwmfMmIFvv/1Wen3w4EGcOXMGTz31lNX6SrlcjtmzZzerS1qtFp999hmSkpLg7++PlStXQqVS4dSpU4iNjcWlS5eQlpaGv/71r1JyWFlZifHjxyMuLg7l5eUAgF69eknJoYNDy6UT6enp0Gq1zSq4RHcGJqdERERE1GEYL59Axfd/B8zNL8zTuPsch/Hy8du7iMIR7k9vgkOfhivLTp8+HYWFhYiOjpbeKykpQXh4OA4dOoSFCxdiwIABt9Wdbdu2ISkpCV5eXnj11VelLWlGjx6NrVu34tChQzh//jw+/vhjvPnmmwCqt3wBqre6SUtLAwAsW7bstkcu09LSpGnCJpMJKSkpOHv2bANn0Z2OySkRERERdRj62O9aPTFtMYIB+jO7GpWcAsBf/vIXeHl5Yc+ePVbTaNPT0/H2229j/PjxePrpp2vtc9oYycnJOHnyJABg3rx5ta4xb948nDhxAjqdDikpKYiPj8fIkSObfJ/G2r9/P/bv399q16eOickpEREREXUYMlXTEzN7akp/ZTIZZs6ciVGjRmH79u24ePGi1CaKIo4fP46EhAS8/PLLde55WpeYmBjpuE+fPrXa3dzc8OCDD0oJY0RERKsmp0888QSGDBkCABAEAQUFBThw4IC0DpbuTqzWS0REREQdhtOklZB79rJ3NxpF0dUXThOWNfm8nj17YvXq1XjppZfQo0cPqzaNRoNPPvkEN2/ebNI1z507B6A6Ae7Vy/bnFxwcLB3n5uY2sddN069fPwQGBiIwMBBBQUEICwvDq6++2qr3pPaPI6dERERE1GEovPzQ6a8RMGtuAGLztzYxph2GNvoT2Nw2Ri6H68NvwKH/2OZ3VC6H3L07IGv+WNDIkSMxYsQIHDhwAD/99BMMBgMAoLS0FF999VWjk7mysjLo9fr/dkteZxEjLy8v6Vir1aK0tLTFKvE2Ro8ePeDh4cFKvHcxuyenJpMJ58+fR05ODkpKSuDt7Y1+/fph6NChjfqHaTabcebMGVy+fBlyuRxDhw5FYGAgHB0d6zxHr9cjKSkJycnJUCgUGDJkCEJCGrcWAAB27tyJsrIyPPvss/zhISIiImprMjnknbxv6xKqMU9D5uKJyp/fhlWCKlfA7YmPoBz0wO31sQm0Wi2+++47LFtWe5TVwcEBM2fOREhICNauXYuKigoA1fuhCoLQqP0+dTqddCwIAsrLy+Hh4VErrmvXrpDJZFK1XHvsJRoeHs49TO9idk1OL1++jE2bNiE/P79W26BBg7B8+XL07Fl3+W21Wo1169YhLy8PXl5eMJlMiIiIQI8ePbB69epa0yCA6h/ONWvWICcnB4MHD0ZWVhb279+PadOm4emnn24w2Tx69CgiIiIwe/ZsJqZEREREHZjj8JkAZKj8+U3pPbcnPoZy0KQ27YdOp8PRo0exYMGCOosd+fj44MUXX8TatWsBAAaDAdnZ2ejfv3+D1/fy8oJCoYAgVBeSunHjhs3kVC7/Y5RXpVLB3d29OY9zW5iY3t3stua0uLgYH374oc3EFKiuSvbuu++irKzMZrtarcbatWuRl5eHyZMn47PPPkN4eDgWLlyIwsJCrFmzBnl5eVbniKKI8PBw5OTkIDQ0FG+99Zb0Ax4ZGYm4uLh6+6xWq7Fjxw74+fnh8ccfb8ZTExEREVF74jh8Blxn/wuKnoPh9uR/2jwxtRBFUVoXWpfAwEB069ZNet3Y5FGhUMDb+4+R5tjYWJtxGo1GGjUdOnRoo65N1JLslpx+9dVXqKysxNixY/HBBx9g27Zt+Oc//4nRo0dLMRqNBl999ZXN8zdv3oybN2+iS5cuePrppyGXyyGTyTB9+nQEBASgrKwMO3bssDqnoKAA8fHxACBtZuzj4yNVO6uvnLUoiti0aRMEQcDKlSv5Wx0iIiKiO4Rj0DR4LN0F5cD77dqPffv2QavV1htjSR7d3d2tEtWabbceA8CDDz4oHZ84cUIaRa3p6tWr0vH991t/FjVHVS3rV0VRrHWf+phMJunY1v2bouZ9LfulUsdnl+RUq9UiISEBI0eOxHPPPQdfX1+oVCr069cPL7zwAiZNmiTFJiQk1PrHe/78eSQlJQEApkyZApVKZdVu+eFLSkpCRkaG9P6VK1ek45pTfi0VyzIzM+v8QYmMjERKSgrmzZuH3r17N+OpiYiIiIjqlp+fj3fffRfFxcU222NiYlBUVAQAmDFjRq32mmtLax4D1d+Pu3btCgA2B3EA4ODBgwCAwYMHY9SoUVZtlnMBID4+HgaDAe+99x6OHz/emEeDKIooLy+XXldWVjbqvLpYEmQAUqEo6vjskpwmJSXBzc3N5qJvAFi4cCGcnJwAAEajEdeuXbNqj46Olo4HDx5c6/ya7+3Zs0c6rpmcOjs7S8eWKRGCINj8n0F+fj52796NwMBATJ8+vd5nIyIiIiJqrtzcXLz11lvYsWMHzp49C7VajczMTHz99dfYunUrgOotX2wlp6dPn5aOc3JykJ2dLb1WKpV45ZVX0KVLFwDV36d37NiB3NxcFBYW4ssvv0RCQgK6d+9us+hnzcGZ8PBwLFmyBKIoYsKECQ0+U0lJCXbv3m2VMEdHR+P69euN/FSsGY1Gq2c9f/48SktLm3Utal/sUhCpf//+eO2112wuxAYAFxcX9O3bVxr17NSpk9RmNBqRkpICoHqfJluLwL28vODh4QGNRoOkpCRoNBp4eHhAqVRKMTV/4GpOC7h1uq4gCPjiiy+gUCiwYsUKFkEiIiIiohYnk8nw5JNPorCwEOfPn0dkZCQiIyOtYpydnTF37lxMnTrV6jupyWTC//zP/6Cqqkp6T6/X47XXXkOfPn3w4YcfAgD69u2L9957D59//jnS09Ot7qFQKBAaGoqnn37a5nf0adOmITExEcnJyZDJZAgKCsLixYsb/G68bds2xMTE1JqdePXqVbz44otwd3fHe++9h+7duzfqc/rXv/6F5ORkq+sVFBRg1apVcHd3x8aNG/l9vQOzS3Lq5eVltY+SLZZ57T179rT6AUlLS5OG7l1dXevcp8nb2xsajQbAHxXJBgwYILVrtVop6bVMMVAqlejcubPVdX7++WdkZmZi6dKlteb1ExERERHdLsuMQsvSNlEUkZ2djby8PFRUVMDV1RW9evWCj49PreVsQPV2M3XVablV586d8fbbb0On0+Hy5ctQq9Xo2rUr+vXrZzUgdCtHR0e88cYbKCoqgkKhqPWduS6LFi3CokWLGhXbGKtXr26xa1H7Y/d9Tm0RRVFakD1o0CCrNrVaLR3XVWobqB59rXmOv7+/1Shrbm6utE2NZbqvv7+/1W9asrKysHfvXgQHB2Py5MnNfyAiIiIiojo4Ojpa1VyRyWTw9fWFr69vq93TycmpWRV5GxpgIroddqvWW5/s7GzodDrIZDJMmTLFqs0yGgrUn5zWXFNqSWi9vLyk+fn79u2DKIqIj4+XtrOZP3++dI7RaMSGDRvg7OyM5cuX3/5DERERERERUZ3a5cippYjRxIkT4efnZ9VWs7JXfclpzXLXlqpmALBgwQIUFRUhNjYWzz//PNRqNVQqFRYvXoyAgAAp7ocffkB+fj6ee+45eHp6Wl1bq9WiqqrKqmoZERERERERNV+7S05TU1Nx7tw5eHp64sknn6zVXjPprG+v0ZolpR0dHaVjmUyGv/3tb9BoNLh48SKcnZ0xcODAWutaf/31V4wdOxZjx46V3ler1diyZQtSUlIgCAK8vb0xffp0hIWFNft5iYiIiIiIqJ0lpwaDATt27ICDgwNeeOEFm5XCai7UrrmR761q7n1k2SqmJg8PD4wfP77W+zqdDhs3bkSnTp2sFm/rdDp89NFHyM3NxcyZMzFy5EiEh4dj69atcHNzw5gxYxr9nERERERERGSt3aw5FUURGzduRHZ2NhYvXoyBAwfajKtZGay+zXsbSk7r8u2330KtVmP58uVW04Z/+OEH5ObmwsPDA/Pnz0dAQACmTp0KAPjiiy+sNhUmIiIiIiKipmk3yemePXsQGxuLxx9/3Kpa2a1qrvOsqKioM664uFg6rrlpcH0uXLiAmJgYTJ48GcHBwVZtqampAKqrB1umFgcFBQGoHvHNzMxs1D2IiIiIiIiotnaRnJ48eRJ79+5FWFgY5s6dW2+sn5+fNKKpVquh0+lqxej1eqkIkouLC/z9/RvsQ0VFBb788kt069YNCxcutGozGo3Iy8sDYF2EqeaIrGU7GiIiIiIiImo6uyenv//+O7744guMGzeuzg16y8rKpCRUqVRKa0UFQUB6enqt+Pz8fIiiCAAYNmxYvYWTLLZt24aysjKsWLECTk5Ote4vCAIAWG18XPO45kgtERERERERNY1dk9MTJ05g/fr1CA4OxooVKyCTyWrFFBQU4B//+Ic0rRao3mLGIjk5udY5Fy9eBFBdmXfmzJkN9uP06dM4ffo0Hn74YQQGBtZq79q1K1xdXQFUbyNjUXPNK7eVISIiIiIiaj67Ves9evQoNm/eDFEU0aVLF+zcuVNqE0URJpMJarUaSUlJcHZ2xvDhw6X2fv36Ydy4cTh16hSOHDmCRx55RKriq9PpEBMTAwAYM2YM+vfvX28/SktLsW3bNvTu3Rvz58+3GSOTydC/f38kJibi5s2b0vuFhYXSsbe3d9M/BCIiIiIiIgJgp+T00KFD2LZtmzT1Njo6ut74sWPH1pqau2jRIly9ehXXrl3Dxo0b8ec//xkVFRX4/vvvUVRUhICAACxbtqzBvmzevBlVVVV47bXXoFQq64y7//77kZiYiLS0NGg0Gnh4eODUqVMAAC8vL4waNarBexEREREREZFtMgAiAClRbG2CIOCZZ56B2Wxu9Dlr1661WdSovLwcX375JeLj46X3HBwcEBYWhnnz5tVaO3qrI0eOYPPmzZgzZw7mzJnTYD927tyJiIgIdOvWDSEhIYiOjoajoyOef/55jBgxotHPQ0RERERERNUsyzvbPDltDYWFhcjLy4NSqUT//v2tKurWRRRFvPfee3BxccELL7zQqKJJoigiPj4eZ8+eRUFBAXx9ffHQQw81eqsaIiIiIiIisnZHJadERERERETUMVmSU7tvJUNERERERETE5JSIiIiIiIjsjskpERERERER2R2TUyIiIiIiIrI7JqdERERERERkd0xOiYiIiIiIyO6YnBIREREREZHdMTklIiIiIiIiu2NySkREREREHYYoisjLy4PJZGpWO7VfDvbuABERERER1VZRUYGcnBzk5OTg2rVrkMvl8PX1hZ+fH3x8fKBQKOzdxTal0Whw5MgRxMTEQK1W491338XAgQMb3X67Ll++jDNnzuCpp55qsWuSNSanRERERETtiFarxe7du3H48GGIogiZTIYuXbqgqqoKUVFRAAAnJycsXLgQkydPtnNv28auXbtw4MCBOkdDG2pvCb/88gvi4uIwceJE9O7du9XuczdjckpERERE1E6cPXsWX3/9NUpKSuDp6YmlS5ciKCgIKpUKoijixo0b2LdvH2JiYrBlyxZcuHABy5cvh5ubm7273qrGjh2L0aNH4/PPP4darW5y++1Sq9U4d+4cACAqKgqLFi1q8XsQ15wSEREREbULMTEx+PTTT1FSUgJfX1+8//77uOeee6BSqQAAMpkMPXr0wNKlS/Hss89CJpMhLi4Oq1evRkVFhZ1737p8fX3h7++PoKCgZrXfrujoaJjNZgDA8ePHodPpWuU+dzsmp0RERER0dxMFmCtTAYh260JycjK2bt0qvV6yZAk6d+5cZ/z999+Pe++9FwBQXFyMHTt2tHof2wNLot7c9uYwGAw4evSo9Fqn0+G3335r8fsQk1MiIiIiusvpr/wvKk8NhT7t73a5v9lsxvbt26WRueDgYAwYMKDB8x577DHp+MSJE0hISGi1PrYXcnn96UtD7c1x8uTJWiPT0dHRLX4fYnJKRERERHcx0XgThitrAQCG3HCIQmWb9yE2NhZ5eXnS68cff7xR5/n6+iI4OFh6/dVXX0EUW2/0t6qqCgUFBRAEod44QRBQUFAgvRZFEcXFxfVet7CwsMHrAtVTm2+nvTkOHjwIhUKBV155RXovPz8fKSkpzbqe0WhEYWEhDAZDk84rKSlBSUlJs+7ZUbAgEhERERHdtQzZn1q9NuZ9Acd+L7VpH+Li4qRjhULRqFFTiyFDhuDChQsAgKKiIqjVanTv3h0ff/wxysvLa8UPHDgQf/rTn6TXX3zxBa5fvy697ty5M/7+9z9GkE0mE/bs2YMzZ86gsLAQoijCwcEB/v7++Mtf/oK+fftKsWq1GjExMTh69CjKysrw9ddf49SpU9i7dy/UajUGDRqEN998EwqFAlqtFhERETh8+LDUT6VSib59+2LEiBGYM2dOqySaTZWamoqcnByEhoYiJCQE/v7+uHz5MoDqwkhDhgxp1HVEUURkZCSOHz+O3NxcCIIAmUyGvn37Yt68eQgJCbF5XmFhIXbu3ImMjAyUlZUBqJ66PHHiRMyZMwfu7u4t86DtBJNTIiIiIupQhNJTEEpPAjDf1nVEQQvj1Y+t3jNkvgtR0EImd7ytawMKKLpMgsJjVIORycnJ0nHnzp2bNDW1a9euVq9zc3PRvXt3PProo9i7d6+UuALAww8/jEceecQqfs6cOdi3bx8OHToEPz8/PPzww1JbUVERPv30U+Tl5WHGjBno27cvkpOTcfjwYaSlpeHNN9/Eiy++iODgYKxbtw4XLlywGrk9f/48Nm/eLL2Xnp6OixcvYsiQIfjnP/+JzMxM9OzZE4sXL4bZbEZ0dDTS0tKQmZkJo9GIBQsWNPpzaC2RkZEAgIceekj625KcxsfHo7i4GF26dKn3GhqNBuHh4UhMTMTo0aPxxBNPoLS0FHv37kV2djbWrVuHJUuW4MEHH7Q678SJE9i6dSsUCgXmzp2L7t27IzY2FseOHUNUVBQSEhLw/vvvw8XFpRWe3D6YnBIRERFRh2G6/j2qEp9qteuLQiUMmWta6GoyOIfsg4PXw3VGCIJgNcLp5eXVpDvcmpzm5ORg5MiRGDhwIF588UW89NJL0tYqAQEB8PT0tIrv1q0bFAoFFAoFli9fjn79+kltW7ZsQVZWFlatWoXQ0FAAwH333YeuXbvi+++/h8lkwldffYV169ZhypQpCAsLw2effQaj0QgA2LhxIx577DEUFxfj5MmTUKlU8PPzw4kTJ5CZmQkAmDt3Lu677z4AwD333IPnnnsOFRUVOHDgAObNmweFQtGkz6MlFRUVIT4+Hv7+/vD39wdQ/fzffPMNNBoNBEHA4cOHMXfu3Hqvs3nzZiQmJiI0NBSrVq2S3jebzVIRrJ07d2LSpEnS82ZlZWHjxqf/6ZQAACAASURBVI2Qy+VYu3YtfHx8AADDhg1DYmIiiouLUVhYiKioKMyaNas1Ht8uuOaUiIiIiDoMQ/5me3ehCUQY87+qN6K8vNxqtPHWZLMht8bn5+dLxw4ODpg5c6b0+vfff691vslkwunTpzFq1CirxPT8+fO4ePEiOnfujDFjxlidM2PGDCiVSgDAzZs3ce7cOQQHByMkJMTqGiNGjMC8efPw7LPPIjw8HOvXr4enp6fVetQePXpIxyqVCr6+vlK/7L09zqFDh2A2m6VRU6D6M33ggQek10eOHKl3rWx8fDzi4+Ph4OCA+fPnW7WNHTtWGiXX6/WoqqoCUJ20btmyBaIoYtKkSVJiClRP+67530Oj0dzeQ7YzHDklIiIiog5DruqNhsvmtB9yVe96252dnSGTyaQEtan7Z1qSRItbp3hOmDABu3fvhlarRVxcHEpKSqy2qDlz5gw0Gg2mTJlidZ5l6xRRFLFz585a97VUFgasE2JHxz+mQ//lL3+Rjj08PKTjMWPG4Pfff0ePHj2sklmz2QwHhz/Sk6YWDGpJRqMRMTEx8PT0rJWch4WFYd++fTCbzSgtLcWZM2cwduxYm9c5cOAAAKBfv361RsVdXV3x+uuv4+TJkxgyZAjc3NwAABkZGcjKygIAjBw5stY1Z82aBXd3d2g0GkyfPv22n7U9YXJKRERERB2GauAHMGszIZSdtndXGqToMgmOA96qN0alUsHLy0uaeltUVNSke9xavbVPnz61rj9x4kQcOHBAmob6xBNPSO2HDh1C7969axX2sRRJ6ty5s80RzHHjxknH3t7e0nHN9bKurq42++zv74/169dLr4uKinD06FEcPXq03qq+bcmyfczUqVNRWWldwVmpVCIwMFCq1hsVFVVncmpJ3Lt3726zfciQIbU++5qVm2uOLFu4ublZbSN0J2FySkREREQdhkzVGy73ngDMBjS3IJI+8x0Yrn7UYJzK/3049nu+WfeATAHIlA3HAfDx8ZGSU8vfjXXz5k2r17cmpwAwZcoUREZGQhRFxMTE4PHHH4dCoUB+fj7S0tLwzDPPWMWLoiglp8OHD681HbU+Tamwe/36dezduxcnT56Eu7s7wsLCkJaWZlUgyl4OHjwIoDrxjIqKqjc2PT0dOTk5VpWLAaCiokKqsGsymRp975oj0U05707A5JSIiIiIOp5mVtMVjUWNSkwBQH/5DSj7PgeZwvYIYEvx8fHB+fPnAQBarRZVVVVwdnZu1Lm3jjTWXJ9o4e3tjREjRuDChQsoLS1FbGwsxo0bh0OHDkGlUmHChAlW8QaDQSpqVHObmZYUGRmJXbt2wWg0YsaMGZg7dy6USiU2btzYKvdrirS0NGRnZ2P48OG4//7764zbvXu3NNIdFRWFpUuXWrXr9XrpuCm/dKh53o0bN2z+wuFOxYJIRERERHTXMF7b3qR4U0Ht9ZYtbeTIkVYjjqdPN37K8sWLF6Xj4OBgad3iraZOnSodR0VFQa/X4/jx4wgNDa21TlWlUklVfRMTE+stTHTt2jWrPjRGdHQ0duzYAaPRiGXLluGpp56qtXbWniyjpnPnzsW4cePq/FNzne7Jkyeh1WqtrtOlSxfpuXJycuqdsp2QkCBt+1NzKu+5c+fqPEcURXz77bdNf8B2jMkpEREREd01FJ0nQuE5HnJnXyg8Rtb5R+7U77+x4xq+6G0KCAiwqgD7888/11sB1iI3Nxfx8fEAqhPKxYsX1xk7YsQIKenJyMjArl27oNVqaxVCsrCsI9Vqtdi7d2+d1/3xxx+Rnp7eYF9rshQJ8vDwwKRJk+qMq1l0qa3cvHkTcXFx8Pf3x4ABA+qNfeCBB6TkU6/X49ixY1btMplM+szNZrO0Z+qtBEHAjh07pOetuYb3xIkTdVbkPXnyJFJTUxv3YB0Ek1MiIiIiumsoPEbBZfQxuI7PhMt9Z+r84zrhClxGxUDuFtQm/VqwYIFU0VatVuPEiRMNnrN3716pyu+8efPq3SNVJpNZJaJRUVEYOHCgVbXcmoKC/njuyMhI/Pzzz1Zb3gDV26jExsbarCgLwGaCXVFRIU0VNplMtdZU1hx9tCRrdSWpt/anqe227N+/H4IgICwsrMFYNzc33HPPPdJrS9GpmoYOHSodHzx4ELGxsbX6uH37dpSVlWH48OEAgEGDBklVj41GIz755JNaVZzz8vKwffv2WpWEOzquOSUiIiIisjNXV1csW7YMn3/+OQwGA7777jt07drVKrmxMJlM+Prrr6V9S0ePHo1p06Y1eI9Jkybhxx9/lNY01jVqClTvZXrkyBEUFxdDFEV8//33OHfuHIYPHw6TyYRz584hNzcXwcHB6N+/v1XfLK5fvw4/Pz+r6zo7O0OhUEAQBGi1WkRERODRRx9FeXk5vvnmG2kkGKieMnzw4EH07NlT2mu0ZpJma9udhtrro1arERMTA5lMhpCQkEadExISIiWcRUVFOHz4sNUU6tmzZ+O3336DVquFIAhYv349kpKSMHjwYBgMBhw+fBiZmZmYM2eOtI2Op6cnHnnkEWnEOiMjA2vWrEFoaCi8vb1x6dIlHDx4EM7Ozpg4cWKTnrG9UwBYAwBr1qyxa0eIiIiIiO5mvXr1wr333otLly7hxo0bOHnyJARBgKOjI9zd3VFUVISEhARs3boV8fHxUKlUeOaZZ/CnP/2pUVVylUolioqKkJWVBXd3dyxfvhwKhcJmrIODA7y9vXH27Flp5LK4uBipqalIT0+HRqOBh4cHXn31VTg7O0MURWRmZuKXX36RRg+NRiOGDRtmtXepXC7HlStXUFBQAABISUnBwYMH8fPPP6OyshL9+vWT1maePn0apaWlWLBgAVxcXPD/27v3qKjr/I/jzwGBAMMbBIJGmCIUqKSV5qWOZinl2crS9azWmpuFlV3PrtZx17V228rNWjMNTft5zMq1XNM8Hms1LTUvczRFNASRm4gDxk3kNszvD858d8bhpmDj4OtxTud8+H4/n+98vzaf+X7f38+tvLzc6I5sP1ZCQoKxfE1z+5ty+vRp3n//feOzo6Oj6d69e5P/rufOnWPPnj0cP37c2JaamkpAQAAhISH4+fnh6+tLly5dOHDgADabDZvNRmZmJnv37sVsNvPLL79w8803M336dKfP6t27Nz/99BPFxcUAlJSUkJKSwo8//khaWho2m42XXnqp3UyW9Ne//hUAE2CDS2v2FhERERGRtmW1Wvnyyy/ZtWsXZ86ccXlODwgIIDo6msmTJxMeHn5Rx87OzmbWrFmMGzeOSZMmNZs/KyuLhQsXcurUKaftsbGxPPPMM3Tp0gWAOXPmkJGR4VLeZDIxc+ZMbr/9dmNbUVER77zzDpmZmUae2267jalTp3L69Glef/11amtr6dmzJy+++CKhoaF89dVXfP755y7/Fl5eXjz99NNYLJYm9ze2DinA1q1bWbZsmct2Hx8f5s+fT0hIiMu+/Px8Xn755UZjKB8fH/7v//43+dbRo0dZuHChEWzaz23s2LE8/PDD+Pn5uRyjpqaG5cuXs2PHDqfPCQ8P54knnqBv376NXpOnsQfmCk5FRERERK5QFRUVZGVlkZOTQ1BQEFFRUU6zuV6KH374gbi4OGNG3pYoKCjgxIkTmEymNjmHuro68vPzKSsrIzIy0mnpnJKSEkpLS9tNq6CdzWYjNzeXzMxM4/9lp06dmi1XXl5Oeno6paWlXH/99fTs2bPRFm9PpeBURERERERE3M4enGq2XhEREREREXE7BaciIiIiIiLidgpORURERERExO0UnIqIiIiIiIjbKTgVERERERERt1NwKiIiIiIiIm6n4FRERERERETcTsGpiIiIiIiIuJ2CUxEREREREXE7BaciIiIiIiLidgpORURERERExO0UnIqIiIiIiIjbKTgVERERERERt1NwKiIiIiIiIm6n4FRERERERETcroO7T6C16urq2Lt3L+np6Xh5eREXF0dMTAy+vr6NlqmqqiIlJYUjR47g7e3NTTfdREJCQos/c/Xq1ZSUlPDUU09hMpna4jJERERERESuaibABmCz2dx8KhfPYrHw9ttvk5ubS3BwMLW1tRQXFxMaGsqsWbMIDQ11KVNZWcncuXPJzs4mNjaWzMxMKisrGTNmDFOmTGk22Pzuu+9ITk7moYce4uGHH75clyYiIiIiInJVsMdgHtut12KxMG/ePHJzcxk5ciTvvvsuixYtYvLkyRQUFDB37lxyc3OdythsNhYtWkR2djZDhw5lzpw5zJs3D4DNmzezf//+Zj9z5cqVREVF8eCDD162axMREREREbnaeGxwunTpUoqKiujatStTpkzBy8sLk8lEYmIi0dHRlJSUsHLlSqcy+fn5mM1mAIYOHQpAjx496N27NwBff/11o59ns9n48MMPsVqtzJgxA29v78t0ZSIiIiIiIlcfjwxODxw4QEpKCgCjR4/Gz8/Paf+oUaMASElJIS0tzdh+4sQJI+3Y5Tc8PByAjIwMrFZrg5+5efNmUlNTmTBhAhEREW1zISIiIiIiIgJ4aHD6zTffGOnY2FiX/Y7b1q5da6Qdg1N/f38jfe211wJgtVo5e/asy/Hy8vL47LPPiImJITExsXUnLyIiIiIiIi48LjitqakhNTUVqB8426tXL5c8wcHBBAUFAfWtp6WlpQD4+PgYeRwnPnKcDOrC7rpWq5UlS5bg7e1NUlKSZucVERERERG5DDwuOD127BjV1dUABAYG0qFDw6vhhIWFGekzZ84AcOONNxrbKioqjHRZWRlQH7x26dLF6Tjr168nIyODyZMnExIS0jYXISIiIiIiIk48Lji1WCxGumPHjo3mCwgIcCnj2Mqak5NjpO3dfXv37u3UMpqZmcm6desYMGAAI0eObP3Ji4iIiIiISIM8Lji1d9GFpoNTxzGl9uA0ODiY+++/H4ANGzZgs9kwm83k5eUBMHHiRKNMTU0NH3zwAf7+/kyfPr1Nr0FEREREREScNdwn9gp27tw5I91UcOrl9b+4u7Cw0EhPmjSJwsJC9uzZw/PPP4/FYsHPz4/HH3+c6OhoI9+aNWvIy8vj2WefpXPnzk7Hrqio4Pz583Tr1q0tLqlRjjMNi4iIiIiIuJtjzNTWPC44dQw6m1pr1D4uFcDX19dIm0wmZs6cSWlpKYcOHcLf358+ffoYEyhB/bjWTZs2MWTIEIYMGWJst1gsLFu2jNTUVKxWK2FhYSQmJnL33Xe31eUZFJiKiIiIiMiVJi0t7bIFqB4XnHbq1MlI19bWNpqvqqrKSNuXinEUFBTEsGHDXLZXVlayePFiOnXqxNSpU522z58/n5ycHMaNG8fAgQNZtGgRy5cvp2PHjgwePPhSL6lJl/PNhEh7YH+Ro7oi0jjVE5HmqZ6INO9yN6B53JhTx9l0Hbv4Xqi54LQxq1atwmKxMH36dKduw2vWrCEnJ4egoCAmTpxIdHQ099xzDwBLliwxZvwVERERERGRi+dxwanjOM/y8vJG8509e9ZIR0REtOjYBw8eZOvWrYwcOZIBAwY47Tt69CgAffv2NboW33zzzUB9F+KMjIyWXYCIiIiIiIi48LjgNCoqymjRtFgsVFZWuuSpqqoyJkEKCAigd+/ezR63vLyc5ORkQkJCmDx5stO+mpoacnNzAedJmBxbZO3L0YiIiIiIiMjF87jg1MfHxxgrarVa+fnnn13y5OXlYbPZAIiPj29y4iS7FStWUFJSQlJSEtdcc43TvpKSEqxWKwB+fn7Gdse0Y0utiIiIiIiIXByPC04B7rzzTiN95MgRl/2HDh0C6mfmHTduXLPH2717N7t372bs2LHExMS47O/WrRuBgYFA/TIydo5jXi/3sjIiIiIiIiLtmUcGp5GRkdxxxx0AbNu2jZKSEmNfZWUlW7duBWDw4MH06tWryWMVFxezYsUKIiIimDhxYoN5TCaTcZyioiJje0FBgZEOCwu7tIsRERERERERzwxOAaZOnUp4eDjnzp1j8eLFnDp1irS0NN5++20KCwuJjo7miSeeaPY4S5cu5fz588yYMQMfH59G840YMQKoXwO1tLQUgF27dgEQHBzMoEGD2uCqRERERERErk4et86pXWBgIH/5y19ITk7GbDbz8ssvA9ChQwfGjBnDhAkTXMaOXmjbtm0cOHCA8ePHExUV1WTeoUOHkpWVxcaNG5kzZw4JCQl8//33+Pn5MW3atCYDWxEREREREWmaxwanUD9b7ksvvURBQQG5ubn4+PjQq1cvpxl1G2Oz2fj++++55ZZbeOCBB1r0eZMmTSI6Opp9+/Zx4sQJRo0axb333tvipWpERERERESkYR4dnNqFhoYSGhp6UWVMJhN//vOfL7rMoEGD1IVXRERERESkjZkAG2AsvSIiIiIiIiLyazGZTIAHT4gkIiIiIiIi7YeCUxEREREREXE7BaciIiIiIiLidgpORURERERExO0UnIqIiIiIiIjbKTgVERERERERt1NwKiIiIiIiIm6n4FRERERERETcTsGpiIiIiIiIuJ2CUxEREREREXE7BaciIiIiIiLidgpORURERERExO0UnIqIiIiIiIjbdXD3CYi4y8GDB9m/fz9/+MMfms176tQpzGYzBQUF9OjRg9tuu42uXbu26HMyMjLYuHEjw4YNY+DAga09bZFfxblz5zh9+nSj+2+44Qa8vb2dtqmeSHtis9kwm81kZmZSUlJC9+7dufHGG4mJiWlR+bq6Ovbu3Ut6ejpeXl7ExcURExODr69vo2WqqqpISUnhyJEjeHt7c9NNN5GQkNDic169ejUlJSU89dRTmEymFpcTaamLeXayKygoYM+ePZw5c4bIyEji4+MJCwu7bGV1L/JsJsAG9T/CIu2d/WFj3bp1ZGZmAvDJJ580eRP//vvvWbx4MV27duXaa68lKyuLzp0788orr9CjR48mP6+6uprZs2dz7tw53nrrLYKCgtr0ekQulyVLlrBjx44G9/n5+bFo0SICAgKMbaon0p5YLBYWLFjAyZMnXfbdeeedTJ06tckg02Kx8Pbbb5Obm0twcDC1tbUUFxcTGhrKrFmzCA0NdSlTWVnJ3Llzyc7OJjY2lszMTCorKxkzZgxTpkxpNtj87rvvSE5O5qGHHuLhhx++6GsWacylPDvZrVu3ji+//BIvLy/CwsLIy8ujrq6O8ePHM378+DYvq3uR57J/n9StV64ahw4dYtasWbzzzjvGj2tzjh8/zrJlyzCZTLz66qu88cYbDB48mOLiYhYtWtRs+U8//ZT8/HymTZumHznxGGfOnGHnzp2N7r/rrrucAlPVE2lPysvL+cc//sHJkyfx8fGhZ8+eToHo9u3bWb16daPlLRYL8+bNIzc3l5EjR/Luu++yaNEiJk+eTEFBAXPnziU3N9epjM1mY9GiRWRnZzN06FDmzJnDvHnzANi8eTP79+9v8pwtFgsrV64kKiqKBx98sBVXL+LsUp6d7NasWcO///1v/P39ee2113jzzTd5//33CQ0N5YsvvuDjjz9u07K6F7UPCk7lqlFbW8u4ceN48cUXW9zdafPmzdTU1NCrVy+6d+8O1L81B8jKyuLw4cONlk1JSWHLli0MHz6cW2+9tfUXIPIrWb9+PXV1dQwfPpwRI0a4/Hffffc55Vc9kfbkiy++oLCwkKeffpqlS5fy5ptv8q9//Yv+/fsbeb799luqqqoaLL906VKKioro2rUrU6ZMwcvLC5PJRGJiItHR0ZSUlLBy5UqnMvn5+ZjNZgCGDh0KQI8ePejduzcAX3/9daPna7PZ+PDDD7FarcyYMcOlu71Ia1zKsxPAzz//zH/+8x8Axo8fz/XXXw9A586dmTZtGgBbtmwhLS2tzcrqXtQ+aMypXDVuueUWIx0WFkZ+fn6zZU6cOAHAddddZ2yLiIgw0mlpacTHx7uUq6ioIDk5mS5duvDYY4+15rRFflWFhYXs2LGDIUOGkJSU1KIyqifSXpSVlfHdd98xc+ZMp/FmQUFBPPvss7z44ouUlpZSV1fH6dOniYyMdCp/4MABUlJSABg9ejR+fn5O+0eNGkVaWhopKSmkpaURHR0N/K8OAU5dfsPDw0lPTycjIwOr1dpg4Ll582ZSU1P53e9+51TvRNrCpTw72Ww2Vq1aBdQPA7n77rud9sfFxREaGkpBQQFr167llVdeaZOyuhe1D2o5latSYGBgs3kqKiooKCgAcOrC2LFjRyN95syZBsuuXLmSoqIinnzySaeyIle69evXY7VaeeCBB1qUX/VE2pNrr72W9957r8GJUAICAujTpw8A3t7edOnSxSXPN998Y6RjY2Nd9jtuW7t2rZF2DE79/f2dzgfAarVy9uxZl+Pl5eXx2WefERMTQ2JiYpPXJtJaLXl2gvrvc0ZGBgB9+vRp8KVK3759AYwXNa0tq3tR+6HgVK5KLen25O3tjZdXfRVprCtLQ8cxm83s2LGD0aNHN/iGTuRKVVRUxPbt2wFYsGABq1atIiUlhdra2kbLqJ5Ie9PUWLOysjIAbrvtNpd8NTU1pKamAvV1oVevXi7lg4ODjXIpKSmUlpYC4OPjY+RxrEeOk1VeWI+sVitLlizB29ubpKQkzc4rl11Lu4wfPHjQSNu7pl/IsX44znFwqWV1L2o/FJzKVaklN3E/Pz+jO8i5c+eM7faHCcBlxsXS0lKWLl1KWFgYkyZNaqOzFfl1bNiwwQhE8/Pz2bRpE3//+9+ZPXt2g7OWguqJXD2qqqo4ceIEgYGBDc4UeuzYMaqrq4H6FqYOHRoeOeW4DIa9JefGG280tlVUVBhpezDs4+Pj0lK7fv16MjIymDx5MiEhIZd4VSIt19IXII5jOzt16tRgHvuYUHBu0bzUsroXtR8KTkWaYH9gcJxZ0bH7lb2Ll91HH31EeXk5SUlJLmONRK5kNTU1mM3mBh8+8vLymDNnDhs2bGiwrOqJtHc1NTUsWLAALy8v/vSnPxEeHu6Sx2KxGGnHroQXcuw2aC/j2BKUk5NjpO31qHfv3k51MzMzk3Xr1jFgwABGjhx5CVckcvk4BpuN1QXHeuCYvzVldS9qHxScijThoYceIigoiJycHA4cOEBlZSVbtmwBoF+/ftx0001G3h9++IF9+/Zx//33u/wAilzpfHx8WLhwIStXrmTBggVMmzaNmJgYY7/VauXTTz9tcO1T1RNpz9LS0njzzTc5dOgQ1dXV/Pjjj1RWVrrkc2yhaSo4dRxTag9Og4ODuf/++4H6Hgz2dSXz8vIAmDhxolGmpqaGDz74AH9/f6ZPn966ixO5DOwt/tB4XXCsB4WFhUYX9taU1b2ofdBsvSJNCA4O5rnnnuPdd99l4cKF+Pr6UlpaSlxcHDNmzDDynT17lo8//pjrr7++wcXPLRYLQUFBejMnVzxvb29CQ0MJDQ1l1KhR7N+/n+XLl1NcXAzUTxwRFxdH165djTKqJ9IelZWVMWfOHJdJVDZt2kR6ejqzZ892+q46diVsKji1j4uD+gdru0mTJlFYWMiePXt4/vnnsVgs+Pn58fjjjxuz+kL9+o95eXk8++yzdO7c2enYFRUVnD9/nm7dul38BYu0gcrKSqxWq/F3Y3XBcfxnTU0NZWVl+Pr6XnLZoKAg3YvaCQWnIs2IjY1lyZIlHD9+nFOnThEZGckNN9xgdLGyrzFXXV3NjBkznMYZbdy4kS1btlBYWIiPjw/9+vXj8ccfb3CWR5Er0aBBgwgPD+f111+nuLiYiooKduzY4TKbr+qJtDcdO3bkhRdeIDMzk6NHj7Jz507q6uqA+tbU9evXM2HCBCO/Y9DZ1MQx9nGpAL6+vkbaZDIxc+ZMSktLOXToEP7+/vTp08dp4qVjx46xadMmhgwZwpAhQ4ztFouFZcuWkZqaitVqJSwsjMTERJdlOEQuN5PJhMlkMlozGxt7feE6wT4+Pq0qa6d7kedTt16RFjCZTERHR3PXXXcRFRXlNPbn22+/5fDhw04LRQNs376d1atX4+Xlxdy5c7nnnnswm83Mnz/f6eFE5EoXHh7Ok08+afydmZnZYD7VE2lPTCYTkZGR3HXXXSQlJfG3v/2NHj16GPu3bNniNJuu4+QtTc1w7fhgbV8qxlFQUBDDhg1j4MCBToFpZWUlixcvplOnTkydOtVp+/z58zl8+DCJiYnMnTsXq9XK8uXL+fHHHy/+wkVawc/Pz6nFsaampsF8jvWgQ4cO+Pv7t6qsI92LPJuCU5FWOH36NKtXr6ZPnz6MGzfO2F5cXMxHH30EwNixY4mOjua3v/0tHTt2JDMz02l9OxFP0L9/f6NroeNkEy2heiLtQWRkJM8995zRSlNRUWF0dwecWlccu/heqLngtDGrVq3CYrEwffp0p+6Oa9asIScnh6CgICZOnEh0dDT33HMPAEuWLHEawyfya3Ac9tFYXXCsB47f59aUbY7uRZ5BwanIJaqrq2Px4sUAJCUlOXXpysjIMN6c2wfge3t7GwtHHz169Fc+W5HWi42NBbio8WyqJ9KeREREcPPNNxt/O06M5FgvysvLGz3G2bNnnY7XEgcPHmTr1q2MHDmSAQMGOO2z15O+ffsa9ct+jtXV1WRkZLToM0TaimOA2VhdcKwHjj0SWlO2KboXeQ4FpyKXaOPGjRw/fpxJkyY5rVsHzlOXBwYGGmn7W/Ls7GynQf8inuCaa64BXKfjb4rqibQ39u+/t7c31113nbE9KirKaMWxWCwNzuhbVVVlTIIUEBBA7969m/288vJykpOTCQkJYfLkyU77ampqjJ4Mji1Iji2yjvVM5NfQv39/I+24NJIjxx44/fr1a5OyTdG9yHMoOBW5BNnZ2axdu5b4+HhGjx7tst/xrZ79gR7+N/lFTU2N07IDIp7g5MmTAE4zhzZF9UTaI/sEKuHh4U4TH/n4+DBs2DCgfumln3/+2aVsNti8wwAABXVJREFUXl6eMU41Pj6+yYmT7FasWEFJSQlJSUlO9QSgpKTEeGh2HKvnmHasZyK/huHDhxvf7dTU1AbzOAaYjr0BWlO2MboXeRYFp3JVss+4eGG6JWpra1m8eDG+vr48+eSTTgPt7SIjI42045gJe7pDhw4uSwCIXMnS09PZt28f/fv3d3qz3RjVE2mvDh48CMB9993nsu/OO+800keOHHHZf+jQIaB+whbHMW+N2b17N7t372bs2LFO6w7bdevWzWjpqaioMLY71ictKyNtpaXPTkFBQSQkJAD1rZLnz5932l9dXW28vElISHDqmtuasg3RvcjzKDiVq5LjYPqLnYXtiy++ICsri8cee8xpbISjXr16GemioiIjbV8v77rrrmvwB1LEXf773/8ybdo0Xn31VQ4fPuw0C+mxY8d47733CAwMdJq1tymqJ+KJKioq+PTTT1m1ahVZWVku+zdu3MjRo0eJjo5m+PDhLvsjIyO54447ANi2bRslJSXGvsrKSrZu3QrA4MGDnb7/DSkuLmbFihVEREQwceLEBvOYTCbjOI51qKCgwEhf2IVR5FJdzLPTI488QocOHairq+Orr75y2rdt2zbOnz+Pt7c3kyZNatOyF9K9yPNonVO56qSnp3Pq1Cnj7+3bt3Pvvfe26Ifn+PHjbNiwgVtvvbXBBxO7qKgoevbsSU5ODnv37iUmJgaLxUJ6ejoAY8aMaf2FiLShn376ifPnz5OZmckbb7xBly5diI+Pp7CwkKNHjxIZGcnTTz/dorfHqifiqXbt2sWGDRsA2LRpE/379+f2228HwGw2YzabGTFiBL///e8bvWdMnTqVkydPcurUKRYvXsyjjz5KeXk5n3/+OYWFhURHR/PEE080ey5Lly7l/PnzzJ4922kdxwuNGDGCw4cPc+zYMUpLSwkKCmLXrl0ABAcHM2jQoIv9ZxBxcbHPTj179uTRRx9l+fLlbNy4kfDwcOLj49m5cydr1qzBy8uLZ555psGWz9aUdaR7kWcyATbA6S25SHt05MgR3nnnHZcuIlA/VmjChAkNdtOyq6qqYvbs2VRUVPDWW285rT/XEIvFwpw5cygrK2PYsGFkZ2eTlZVFv379+OMf/+g0U5yIu2VkZPDPf/7TaWkMqO8SOHLkSMaNG9foguiOVE/Ek509e5ZXX33VqcUT6u8RERER/OY3vzGC1aaUlZWRnJyM2Ww2tnXo0IG7776bCRMmuIwdvdC2bdtYunQp48ePZ/z48c1+3urVq9m4cSMhISEkJCTwzTff4Ovry/PPP9+ibvgijWnts9MPP/zAJ5984lSnevbsyZQpU4iLi2vys1tTVvciz2N/0aHgVKSFdu7cyYYNG3jkkUcYOHBgi8pYLBZ27drFwYMHCQwMpF+/fowePVrdQ+SKVFtby4kTJ/jll1/w9fUlODiYHj16XNT3VfVEPF1NTQ3Z2dmUlJRQV1dHREQEoaGhl/RwWlBQQG5uLj4+PvTq1atFazLabDZee+01AgICeOGFF1o0aZLNZsNsNrNv3z7y8/O54YYbuPfee1u8VI3I5VRdXU1mZibFxcV0796dnj17tvj3/VLL6l7keRScioiIiIiIiNvZg1O1UYuIiIiIiIjbKTgVERERERERt1NwKiIiIiIiIm6n4FRERERERETcTsGpiIiIiIiIuJ2CUxEREREREXE7BaciIiIiIiLidgpORURERERExO0UnIqIiIiIiIjbKTgVERERERERt1NwKiIiIiIiIm6n4FRERERERETcTsGpiIiIiIiIuJ2CUxEREREREXE7BaciIiIiIiLidgpORURERERExO1MgM3dJyEiIiIiIiJXN7WcioiIiIiIiNv9P6jIPgDWLowfAAAAAElFTkSuQmCC;" parent="1" vertex="1">
          <mxGeometry y="31" width="400" height="186.95" as="geometry" />
        </mxCell>
        <mxCell id="zQihhSDClOiV8K8tjyNQ-10" value="" style="shape=image;verticalLabelPosition=bottom;labelBackgroundColor=default;verticalAlign=top;aspect=fixed;imageAspect=0;image=data:image/png,iVBORw0KGgoAAAANSUhEUgAAA7EAAAG1CAYAAAAvLXNmAAAACXBIWXMAAAsTAAALEwEAmpwYAAAgAElEQVR4nOzde3iU5Z0//vfzzCmZmYQkHJJAjhNIAoQgRVQQ1rZbaG2r3Uuklu56aO2uX1kPq12tWN3qbn91v+h2rbbFqtTWFdsq1AN0W1O/taic1AhKOISQcwgkISEkmfPMc//+mJknM8kkmUkyk5nwfl2XV5/MPId7uCrmPffnc98SfASIiIiIiIiIEpskgQGWiIiIiIiIkoQ2cCAEsywRERERERElJkmSAADyFI+DiIiIiIiIKGIMsURERERERJQ0GGKJiIiIiIgoaTDEEhERERERUdJgiCUiIiIiIqKkwRBLRERERERESYMhloiIiIiIiJIGQywRERERERElDe1k3uzw4cP46KOP8J3vfCfiazo6OnDw4EF0dnaisLAQS5YsQU5OTsyubW9vR3V1NTo6OpCXl4fLLrsMWVlZET2vvr4eu3fvxurVq7F8+fKIriEiIiIiIqLJIwEQACCEGNcNhBCorq7Ga6+9hsbGRgDA9u3bIUnSmNe+9tpr+P3vfw9ZlpGTk4PTp09DURSsX78e69evn/Rr33vvPWzduhVZWVlIS0tDc3MzMjIy8OCDDyIvL2/U57lcLmzevBlWqxVbtmxBenr6mJ+PiIiIiIiIJkcgY05oJvbTTz/F9u3b0draGvW1r7zyCl5//XWYzWY89NBDKCgoQG9vLx599FHs3LkT/f39uOWWWybt2rq6Ojz//POQJAnf//73kZubi6eeegoHDhzAz372Mzz22GOjjvc3v/kNzpw5g3vuuYcBloiIiIiIaIpMqCfW4/Hgmmuuwb333hvRzGtAbW0tXn/9dQDA+vXrUVBQAADIyMjArbfeCgCoqqrCyZMnJ+3aP/3pT3C73bBYLMjNzQUAXHXVVQCA5uZmHDlyZMTx1tTUoKqqCmvWrMGKFSsi/pxEREREREQ0uSYUYj/zmc9g9erVuPTSSyPuYxVC4KWXXgIAGAwGfOELXwh5v6KiAtnZ2QCAHTt2TNq1DQ0NAIA5c+aor82bN089DheYAcBms+HZZ59FZmYmbr755og+IxEREREREcXGpK1ObDKZIjqvoaEB9fX1AIAFCxZAo9EMO6esrAyAbwY0OFyO91qbzYaOjg4AgNFoVM81m83qcWdnZ9jxvvjii+ju7sZtt90Wci0RERERERHF36SF2HCBMpzDhw+rx/Pnzw97jsViUY/37t074Ws1Gg1k2fdRRyp7Djf+6upqvPvuu1i7di2WLFkS9joiIiIiIiKKn0kLsZH2xAb3ns6YMSPsOYGeVSB0hnS81xoMBrV02Gq1qu/39fWpx4Ey5OD3nnvuOeTk5GDjxo0jfyAiIiIiIiKKm0kLsZEKDqXB5bzBgst2g8+fyLUlJSUAgLa2NvW1QJ8s4CtPDrZt2zYMDAzg9ttvh8FgCP9hiIiIiIiIKK7iHmL7+/vV45GCaGpqqnp87tw5dQ/biVx73XXXIT09Ha2trTh06BAcDgeqqqoAAJWVlVi0aJF63fvvv48PP/wQX/3qV4eFWyIiIiIiIpo6E9onNloOhwNer1f9eaQgGtyf6na70d/fD71eP+5r09PTMWvWLNx999148skn8fTTT0Ov16Ovrw8VFRXYtGmTek1PTw9+9atfoaCgANdff/2w+3d1dSE9PZ2zs0RERERERFMgriFWkiRIkqTOjmq14R/vdDpDftbpdBO6NmDhwoV45plnUFdXh/b2dhQWFqKoqEjt5xVC4Be/+AVcLhc2bdoU8ozdu3ejqqoK586dg06nQ2VlJb797W8jMzMzyj8FIiIiIiIiGq+4lhMbDIaQGUy32x32vOAgqtVqkZqaOqFrg0mShNLSUnz2s59FcXFxyIJUb7/9No4cOYL169ejoKBAfX3Pnj14+eWXIcsyHnnkEaxbtw7V1dV44okn4HK5Ivz0RERERERENFFx74nNyspSj4NXCg4WHESDy4Yncu1Yzp49i5dffhkLFizANddco77e29uLbdu2AQCuvvpqlJaW4hvf+AbMZjMaGxuxY8eOiJ9BREREREREEzOlIXZgYCDsOT09PepxXl7epFw7GkVRsHXrVgDA7bffru4pCwD19fXweDwAoC7+pNFoUFZWBgA4fvx4RM8gIiIiIiKiiYt7iF26dKl63NraGvac4G1wKisrJ+Xa0ezevRt1dXXYuHEjcnJyQt4L3obHZDKpx2lpaQCAlpaWkAWniIiIiIiIKHbiHmLXrFmjriB87NixsOcEB9FLLrlkUq4dSUtLC3bs2IElS5Zg7dq1w94PntlNSUlRj/V6PQBfb25fX9+YzyEiIiIiIqKJm7QQqyhK2OOh0tPTsWzZMgC+WU673R7yvsvlQm1tLQBg2bJlISXBE7k2HI/Hg61bt0Kv1+O2224LWeQpoLCwUD0O7sMNHGu1WmRkZIz6HCIiIiIiIpockxZigxdUGmvF3g0bNkCr1UJRFLz55psh773zzjuw2+3QaDTYuHHjpF471M6dO9Hc3Iybb745pN82mMViUY+7u7vV487OTgDAnDlzwoZfIiIiIiIimnyTsk/sqVOn0N7erv68Z88efPGLXxwx3OXn5+Omm27CL3/5S+zevRtz587FkiVLsHfvXrzyyiuQZRl33HFH2JnUiVwbrK6uDrt27cKKFSuwZs2aEc8rLi5Gfn4+Wltb8cEHH6C8vBxdXV04deoUAOBLX/pSJH9EREREREQ0ha6+76Oozv/j45fGaCQ0URIAAQBCiKgvPnr0KH784x8PK+sFAJ1Oh69//ev4yle+MuL177//PrZv344LFy6or+Xn5+PGG29ERUXFqM+eyLVOpxObN2+GzWbDli1bkJ6ePur5XV1dePjhh9Hf34/Vq1ejpaUFzc3NqKysxP333x+ymjERERERESUehtjkF5gknVCInQwulwuNjY3o7e1Fbm4u8vPzIy7PHe+1e/fuxa5du7BhwwYsX748omd1dXVh3759OHz4MEwmEyorK7F27VqWEhMRERERJQGG2OSXMCGWiIiIiIgIAIQA3B4FDpfvH6dbgcPlHfzZFXjPG/T+4GuD7we95j+nz+qJaiwMsYknEGInpSeWiIiIiIimPyEAj1dEHCIDITT4dWdwKHUPD6WcW6OxMMQSEREREU0jHq/whcawAXKUWUz3kAAadG5w6FQUpkyaWgyxRERERERxpChiWGAcbRYz3Kxl2GDq9h17vAyZNL0xxBIRERERBRECYctcw5bDRjiLGXw/t4chczLptBIMOhkpeg1S9DJS9DIM/v8NvGbQyfjfA11TPVSaJAyxRERERAlOCODL90e+sup0X5Bm6OI/0YbI0AWChl/vcitT/RGnFa1G8odKDVJ0wQFTHnzdHzRTgsJn6M+h5wbON+hlaOTIdgthiJ0+GGKJiIiIElw0ATYRcPGf5CLLUmhYjGBWc+i5owVTrYZbUtLkYoglIiIiughFuvjPSCFyrFDKxX8mjyRhcHYyJDyOMoupHzKLqRs5lGpkCRJzJiUR7hNLRERElICCF//55r9/EtW1n/vMTC7+E0eSBDVEjhYWQ2Yww8106sK/rtPIDJmT5Or7IqtqmO4l+ckqsE8sQywRERHROAgBuDxDZiiH9FmOvSDQyLObXPxncunDlMCGC5uR9GGGBFO9DL2WIZMoHgIhluXERERENC0N7csca3GfUXswRwinNHl0WmnMsBgyizlsgaBRrtUxZBJNJwyxRERENGW8ihixt3LErUuG7J0ZroeTfZmTL2SF2QiCZthZTd0IoVQnQ45whVkiIoZYIiIiGpEQGLYFSXAZ7NCAGW6Rn9HOY19mbMydZRi7D3PM10PDZqTbmBARxRp7YomIiJJYyH6Z7jCryg4pgQ1XKjssmLoG78f9MifPsBVmdaMv/BO8wuzTO5ujehYXpSGi6Yg9sUREFDeRrgYJTM9fvn19maE9l4OBMsxrw0plvf5tUAbDZnBJLb+HnjyRLv4z0qzlsEWCglad1U1g8Z9oQywR0XTGEEtERAnl6vs+inuQVfx9mUNXhw23oM+w/sygLUtGKqn1si9z0mg10rDy13D7YIYrkw1eEGikFWm5+A8RUeJjiCUiooQnBOB0D1/QZ7RS2dG2MhlaUsutTCaPLEthy2LDLfozUl/mSCW17MskIiKAPbFERBQH0ZQTA0BBdmpIbye3Mplc4Uplw+6HqfZtRl5Sq9VInM0kIqKYYE8sERHFnMutoLbVGvV1LR32GIwmeQzdL3PUrUlGOS9cONVPoC+TiIgoETDEEhHRpOmzeXCscQBHmwZwtHEAdW3WabmFisZfMhuu3DU4MIYtqR2jzJb7ZRIREY2OIZaIiMZFCKCz14mjjQOoafSF1kSZQR22lclIq8iOsbLsSP2ZWg1DJhER0VRhiCUioogoikDTWbs6y1rTOIDuC66YPGtNZeaw/syxSmWDZzN1GpbMEhERTVdc2ImIiMJyeRScbLWhpqEfR5sGcLxpAFaHNy7Pno57xRIRUWJRelpg++OPIJlnwfS1H071cCgCXNiJiIhC9Ns8ONZsxVF/aD3ZOrF+1tyZBiwuNmNxURp+sqNp8gZKREQ0QUpPK/pf/A6U/k4AgGZmEVJWf2eKR0WRYoglIrpIdZ534WijL7DWNAygeQL9rJIElMw1+kJrcRoWF5mRla5T32eIJSKiROELsLeqARYA7O/8FAAYZJMEQywR0UVACKD5rB01/tB6tHEAXb3j72fV62QsLDCpobW8wARjimYSR0xERDT5lJ5W9P/Pd0ICbACDbPJgTywR0TTk8iioa7X5Z1n7cax5AFb7+PtZ041aNbBWFJtRMs/IFXqJiCj+vC4Ipw3COQDhskG4rBBOq+/Y/xqG/Ox73wph74X3XBOgjP7fw9TP34mUK2+Nz+ehqLAnlohoGhmwe3GsaUAtD65tmVg/a85MAxYXmVHhD655s1O42i8REY2DgHDZ1TAJNXRafWHUNeD/X9/Poe9bQ4Oq0woonpiP2P6XpyGlZsLwmeti/iwaH4ZYIqIk1NXr8u/N6gutzWftGG9BjSQBlrlGLC4y+xdiMmPmDP3kDpiIiJKH4g0KmaGhEkNCpXAFzXoGQmhg9tMfQv2Fn0nFe6YGAENsomKIJSJKcEIAzR12HA2E1sYBdE6kn1Uro6zAhAqLb+Xg8kITTOxnJSJKYgLC4/KX0YYLn7agEDr6OXBaITzOqf5AU0o7twKpf3vPVA+DRsEQS0SUYNwegbo262BobRrAwAT6WdP8/awV/u1u5uexn5WIaMoJxV9mGzRjGTLDOXzGEyEznEPC5xh9nhcdjR6SwQhJb4JkMEHSGyEZzFBsPfC2HxvxMu3cxTD//VZIKWlxHCxFiyGWiGiKWe1eHG8eUMuDa1utcHsm0M+aZVDLgiss7GclIpo0iidMGW1wyIxgFlQNqLap/jQJR9Ib/WHTBKjh0zQYRv1BVDIYfe8H3jOY/dcOBlZodCM+x1n9Kmz/+/8Ne90XYJ9hgE0CDLFERHF27oLLP8s6gJrGfjRNsJ+1ONfoX4CJ/axEF5fAXxz8lmpkAsLtHCyTHTrDGTwLOnQxoZCf/YsOecffyjEtyZoRgyT0Qa8FwuiwEBr8XiogyXEZtmH5BgACtv/9kfqaJncRA2wSYYglIoohIYCWTrsaWo82DqDj/Ph7jXRaCWUFZjW0Liw0s5+V6CKk9Hdi4Hd3w3vmODLu/QskU9ZUD2nyCCUoRA7dNiXMDGdgljMkoAZdJ5Sp/kQJRdIaAEPQLGfwTGfQzOfgTGdQOW5QYIXeCEmrR7J+iWJY/nVAALY//gia3EVI+wcG2GTCfWKJiCaRx+vrZ63xB9ZjTQPot41/OwBzqgaLi9PUntb580zQaZPzFwYimhxKfyf6X/wOlJ4WAIBmznyk/cOzUxtkA3t3htseJbCi7dA9O4eU5KrnuB1T9zkSkjRsphNBPZ6Ds5mB/w2a6RwaTvVGQOYXn8GU/k7Ippn8c0kSgX1iGWKJiCbA6vD1s/pKgwdwssUKl2f83/pnZ/r7Wf3/FMxJZT8rEamGBtiA6INsmL07g7ZJCb9tSugMZ7z37kwqIywqNNjvaRwyy2kaEkb9M50GEyRdCpJ1tpNosjHEEhGNQ3efW93mpqZxAI1nbBPqZy3KSUWFf6Z1cbEZs9jPSkQjUC60o/9//gnK+baw78tps2GovBYCYsispw0YOgvqsrPMdoh4LSpEROPHEEtENAYhgLYuB4429qvlwWd7JtjPmm9ChSUNi4v8/aypLF8imraG9na6gvo2hy0wZB++f+eQ0lt43VP9iRJL8KJCIaFzjJnOQEidokWFiGj8AiGWCzsREfl5vAKn2mw42tSvLsLUN9F+1iKz2tO6II/9rEQJTSgQbvvgvpshITIoWKqLDAWHUFvIeXBaITzj/9JrupqURYUCPaFJvKgQEU0MQywRXbRsDi9OtFhR4y8PPtFihcs9/vK6ORl6LPbPsi4uNqMwm/2sRLElINyOoEWBgsKkyxYURkeY3QxeUIj7do6AiwoRUeJhiCWii0ZPnxtHmwbU8uCG9on1sxYG+lmLzFhUbMacDPazEo1OQHhcQVul2CDcwVupBALlCLObgbDJvs7RabT+gDl0FjOCUlsuKkRESYAhloimpcF+1gEcbfKF1rPd4y/t02oklBWYsLjIjApLGhYWmmFmPytdDLwu3yq2Q2YvfSWz4WY37aG9n8GzoE4rQ2c4khwUNofOdg6GUECB8/CbELbzYW+jmVkA8z88Czk9J77jJyKKMy7sRETTgscrUN9uQ03DgNrT2mcdfz+rKaiftaLYjPl5Rui1XPSDkoDiHdLDaR3cIiX4taBgijAlturMKLdOCUPyB0x/uAxeIChkJdvArKcxzKzo+Ho7lb6z6H/xH6Gcbw15XTOrGOabnvftd0lENE1xdWIiSmp2pxfHm62+8uCGfhyfYD/r7Aw9Kor9izAVmVGYw37WWFJ6T8N7tha68s/hoi9VHG0F22EzmbZRV7CFy87FhEYg6VIHQ+XQElt/0ESYEDoskCZAie3QIMsAS0QXC4ZYIkoq5/vd/tJgX09rfbsdijL+v7eKclL9e7P6Vg5mP2v8eM8cR98v/wFQvNCVXgXzDU8iqYJsuBVsw26ZMtIKtoGg6n/d7ZjqT5SQ1FVshwbLkBnO8LObw2ZAp+H2KUrfWQz89i5IGj1M3/gJAywRXRQYYokoYQkBtJ9z4GjTgFoe3H5uYv2spfkmLC42o6I4DQsLTUgzckmAqeA9cxz9L90G4ehTXzNcegOMVz+A2AVZ/wq2LltQD2fo7GbYFWyDgilCQqgd/v90UjCNPmzY9JXMjjG7OTSEchXbCAX+f5hEXwIREU0A94klooTh8Qo0tNtwtHEANY2+mdYLE+lnTdFgkX+bm8XFaSjNZz9rIggXYAEJzo9+BwBBQda/gu0Is5vDV7C1D+/95Aq2Y5M1Q4Jj0P6cQ15Tg2WYEKqGUZm/UsQfwysRXZymdCbW5XLh0KFDaG9vR3d3NzIzMzF37lwsX74cev3YpX0dHR04ePAgOjs7UVhYiCVLliAnZ/QV+drb21FdXY2Ojg7k5eXhsssuQ1ZWVkTjra+vx+7du7F69WosX748omuIaDi7U8GJlgG1PPhE8wAcrvGHjFkz9KiwmNWFmAqzUyDL/OUukYQPsKEknRHQaHwzn4o3jqNLEpI8fLXaYSvYGkPD6Eg9ngYjoNGBIYiILm4Cnu4/Q5O2DJJ+9lQPhiIw5eXEhw8fxgsvvICuri5YLBbk5OSgo6MD9fX1mDVrFr71rW9h2bJlI17/2muv4fe//z1kWUZOTg5Onz4NRVGwfv16rF+/Puw17733HrZu3YqsrCykpaWhubkZGRkZePDBB5GXlzfqeF0uFzZv3gyr1YotW7YgPT19Qp+f6GJyvt+NY02BWdYB1LfbJtTPWpid6i8N9oXW2Rl6LsKUsATcR6tgfeNhCK9rqgcTZ6OsYKtPDennRNiFhgJh1H+sM4Chk4ho8ng6dsD+6Q0AgLS1HvDv2MQ3pSG2sbERP/jBD6AoCu68805cfvnl6nv79u3DT3/6U+h0Ovzbv/0bSkpKhl3/yiuv4PXXX4fZbMZDDz2EgoIC9Pb24tFHH0VHRwfWrVuHW265JeSauro6/PCHP4TH48ETTzyB3NxcPPXUUzhw4AAKCwvx2GOPjTrmX//613jrrbdwzz33YMWKFZPy50A0HQkBtHf792f1/3P63PgXrlH7WYvMWGxJwyL2syY8xdoNT8MBuBv2w9NwAMrAuakeUsSGrWCrMwYtFhQIoyOtYJvqf8//ui5l2i0mREQ0bQgF1r2lUOyNAIDUZX+AdtaXpnhQNJYp7Yl94YUX4PF4sG7dupAACwCrVq3C/v37UV1djd/97nd48MEHQ96vra3F66+/DgBYv349CgoKAAAZGRm49dZb8aMf/QhVVVVYtWoVSktL1ev+9Kc/we12o6SkBLm5uQCAq666CgcOHEBzczOOHDmCJUuWhB1vTU0NqqqqsGbNGgZYoiG8ymA/a6A8+Hy/e9z3Mwb6WYt8M62l+SbodQwCiUx4nPC2Hoa7YT/c9fvg7TgZt2dLWsPIW6aMtIKtf3YU4UIoQycR0UXB07lTDbAA4Gp4FNpZXwRnY5ND3EOs2+1GY6Pv/zCzZs0Ke05hYSGqq6tRV1cX8roQAi+99BIAwGAw4Atf+ELI+xUVFcjOzkZHRwd27NgREoAbGhoAAHPmzFFfmzdvnnp88uTJsCHWZrPh2WefRWZmJm6++eZoPirRtORwKahtsaKmsR9HGwdwfIL9rDPTdVhcnKb2tBblpLKfNeEJeLsafDOt9fvhaf5oUvYmldPnQFv6OcgpaSP3fnIFWyIimgDhHYCw1sFRe1/I694LH8Bz7i3OxiaJuIdYq9UKr9e3YEdNTQ2++tWvDjuno6MDwPCQ29DQgPr6egDAggULoNEM/+WlrKwMHR0dqKmpwcmTJ1FaWgqbzabe02g0queazWb1uLOzM+x4X3zxRXR3d+OBBx4IuZboYtE74MGxpn515eBTpyfWz1oQ0s9qxpwMA/tZk4CwnYdbLRHeD6W/K+p7SHojhNvuqzkfQleyCqav/7dvZpWIiGjcBISrE4qtHoq9AYqtHsJeD8XWAMVeD+EK/zs/wNnYZBL3EJuRkYHc3FycOXMGn376Kfbs2YOrrrpKfd/j8eD48eMAfKXFwQ4fPqwez58/P+z9LRYL3n33XQDA3r17UVpaCo1GA1mWoSiKWkc9VLhAXF1djXfffRfr1q0bsdSYaDoRAjjb41RnWY82DqCta2L9rAvyfPuzLi4yY1GxGensZ00OXhc8rZ/4SoQb9sN75nj095A10OZfAp1lJXQlq6DJKYe79h0M7Lw/ZPVhBlgiIoqK8EBxNEOxNUD4g6riD6rCXg/htY7rtpyNTR5T8tvk0qVLcebMGQDAL3/5S2i1Wlx55ZUAgJdeegk9PT2YNWsWPve5z4Vcd+TIEfV4xowZYe8d6HcFBmdXDQYD5s2bh9bWVlitg/+n7usb3OohOzs75D59fX147rnnkJOTg40bN47nYxIlPK8i0HjG7p9l9QXXCfezFgb2ZzWjjP2sSUTAe64JnoZ9cAdKhN3Rf4GhmVkErWUldCUroS1c7isFDqIr/1uY12/BwKvf9f3MAEtERGEIrzVkBjVkRtXRDIjYbMXmavh3zsYmgSkJsX/3d3+Hjz76COfOnYPb7cbPfvYztLW1QVEUVFVVITc3F9/73veQkZERcl1wyW9wKXCw4JLf4PNLSkrQ2tqKtrY29bVAnyzgK08Otm3bNgwMDOC73/0uDAb+ckXTg9Ot4ESL1T/L2o/jzQOwO8ffz5qVrkNFcZpaHsx+1uQi7BfgbjgAj3+2VenriPoeUko6dJbLfcHVshLyjNwxr9GV/y3SbnoenrZPYLj8HxhgiYguSgLC1RUygxpSAuyK/r9Jk8F74SA83VXQzvzilDyfIjMlITY9PR333Xcf/vM//xPnz58HALzxxhsAgNWrV+PWW28NGxz7+/vV45FCbGpqqnp87tw5CCEgSRKuu+46fPzxx2htbcWhQ4ewcOFCVFVVAQAqKyuxaNEi9br3338fH374Ia699tph4ZYomfRZPf4Vg/t9/axtNngn0M+aPyfFtwiTf6Y1O5P9rEnF64bn9Ke+mdaG/fC0H4N/l7XIyRpo85ZCZ1kJbclKaHMXjWtFX23hpdAWXhr1dURElESEB4qjdUjJry+oCls9hHcgLsOQ9DmQjSWQJA08598d83xX/aPQzlwHzsYmrilrTsvPz8ejjz6K+++/Hw7HYMlaS0sL+vv7h4VYh8OhLggFjBxig3tb3W43+vv7kZ6ejlmzZuHuu+/Gk08+iaeffhp6vR59fX2oqKjApk2b1Gt6enrwq1/9CgUFBbj++uuH3b+rqwvp6emcnaWEIwTQ0ePE0abB0uDWzvH3s2pkCQvyjVhclKb2tKab2M+aXAS83S3qTKun6UMIly3qu8hZ+b6+VssqaItW+LauISIiQqDst2GUsl9P7AchaSGnFEI2WiCllkA2lkBOLfH/bIGkMQFCwcCe7LHvBc7GJoMp/Y107969cDqdkCQJwr9aZUtLCx566CFs3rwZhYWF6rmSJIWcp9WGH7rTGbrNg06nU48XLlyIZ555BnV1dWhvb0dhYSGKiorUxZ6EEPjFL34Bl8uFTZs2hTxj9+7dqKqqwrlz56DT6VBZWYlvf/vbyMzMnJw/DKIoKYF+1qYBtTy4u2/8/aypBhkLC81qeXBZgQkG9rMmHeHog7vxoC+41u+HcuFM1PeQDGZoiy+HrmQldMVXQM7Mi8FIiYgoOQgI17lRyn7PxmUUksbkD6gWf0AtGfw5pQCQRo813r4PIdw9ET/PfXobQ2wCm7IQ++tf/xpvvfUWCgsL8fDDD2P79u1FHHcAACAASURBVO145513APgWVXrsscfw6KOPqgsuGQwGGAwGddbW7Q7/y3pwiNVqtSHlxYAvDJeWlqK0tHTYtW+//TaOHDmCG264AQUFBerre/bswcsvv4w5c+bgkUcewYcffog//OEP6OnpwQ9+8APo9fqJ/WEQRcDlVlDbakVNg688+FiTFXbn+Bc1yEzToaLYjApLmm9/1txUaNjPmnwUDzynjwSVCB8FRJR9zpIM7bwlvsWYLKugnbuY+68SEV1M1LLfxuFlv/Z6CE//2PeYBJI+2z+LagkNqakWSPo5mEh5ryZtKfT5d0BxtIweeIUHkA3Q528a+RyaclMSYv/85z/jrbfegtFoxL333guj0Yh//Md/RHZ2Nn77298C8AXZF154AQ888IB6XVZWFtrb2wEgZJXhYMEhdqSS43DOnj2Ll19+GQsWLMA111yjvt7b24tt27YBAK6++mqUlpaipKQEe/bsQWNjI3bs2IFvfvObkX94ogj12Tw41jiglgefarPB451oP6sZi4t8Pa3ZWexnTU4CSk+bf+ubffA0fgjhin4rATljHnQlq3y9rUUrIKWkxWCsRESUKITX5iv7DepPFYEZVXtTnMp+NWOU/Ub+u3vU5BQYyn8Su/tTXMU9xDocDrz66qsAfFvtzJ49W33v2muvhdvtxs6dOwEAn376KVpbW5Gfnw8gNMQODIRvBO/pGSwTyMuLrAROURRs3boVAHD77bdDlgdLKOvr6+Hx+P6lDiz+pNFoUFZWhurqanVPW6KJEALo7HX6Z1kHUNPQP+F+1vnzjKiw+ELromIzZrCfNWkJRz88TR/AXe9fRbj3dNT3kPQmaItXQGdZBV3JSsiZ+TEYKRERTR0B4e4OWThJCdqiRjijby8ZD1/Zr2WUsl/d2DchGkPcf6ttaGhQA2i4lX/Xr1+P06dP48CBAwCApqYmNcQuXboUNTU1AIDW1taw9w/eQqeysjKiMe3evRt1dXW45ZZbkJOTM2y8ASbT4GImaWm+WYuWlhZ4vd6QBaWIxqIoAk1n7f7A6guu3Rdc475foJ91caCfNd+EFD37WZOW4oWn/ejgnq2nj4yvRHju4sE9W+ctAWR+kUFElNSEF4qzDSJoEaXgXlXh6YvLMCT9nKAZ1JLQEuAJlv0SRSLuv9EEb5Mzc+bMsOd8/vOfV0NsYBYUANasWYPf/va38Hq9OHbsWNhrg0PsJZdcMuZ4WlpasGPHDixZsgRr164d9n7wzG5KSop6HOiDdbvd6Ovr4wJPNCqXW8HJVitq/OXBx5sGYHVMrJ81sGJwhSUNxexnTXpK72lfiXD9fngaD0I4o992QJ6RA13JKl9wLboMUuqMGIyUiIhiSrH7Z09HKvsd/yKOEZM0kFMK/DOqJeqMqpzqL/vVsgWFplbcQ2xgVhXw9aGGU1RUFPY4PT0dy5Ytw0cffYSGhgbY7faQhZtcLhdqa2sBAMuWLRuznNjj8WDr1q3Q6/W47bbb1FWKgwWvkGy1WmE0GtVjwLd4VEZGxqjPoeR29X0fRXX+Hx+/FP02D44FVg1uGsDJVuuE+lnzZvv7WYt9qwfnsJ816QmnFZ6mD+Fu2OcrEe4JX10yGkmXCm3xZb6+VstKaGYWgN9+ExElOgHh7hle9htY7dfZHpdRSBqjL6QGBVUpMKOaWsiyX0pocQ+xubm5WLBgAerq6lBVVYV169YN23P1k08+AeALkMGrBAPAhg0bcPjwYXg8Hrz55pu44YYb1Pfeeecd2O12aDQabNy4ccyx7Ny5E83Nzbj99tuRlZUV9hyLxaIed3d3qz28nZ2dAIA5c+aEDb908fo/TxxFc4d93NfLsoQF84xqaF1UlIYMM8tAk55Q/CXC/tnWtk+iLxGGBO3cRUElwpWAhr9kEBElHOGF4jw9rOxXBIKq50JchiHpZ4cp+y32BVZDDvjFJyWruP9mLEkS/umf/gn/8R//ge7ubjz++OO4/fbb1dLigwcP4oUXXkBKSgruvPPOYb2m+fn5uOmmm/DLX/4Su3fvxty5c7FkyRLs3bsXr7zyCmRZxh133DHmLGxdXR127dqFFStWYM2aNSOeV1xcjPz8fLS2tuKDDz5AeXk5urq6cOrUKQDAl770pQn+idB0E22ATdEH9mf19bSWFbCfdbpQLpxRt75xNx6EcETfqySnZ6szrbriyyEZWflBRJQQFDsUe+PgwknBCyk5mgBl/GtdREySxyj7TY/9GIimgARAAIAQ4y91HI++vj4899xz+PjjjyGEwKxZs2Cz2WCz2bBixQrceOONmDVr1ojXv//++9i+fTsuXBj8Jis/Px833ngjKioqRn220+nE5s2bYbPZsGXLFqSnj/4veFdXFx5++GH09/dj9erVaGlpQXNzMyorK3H//feHrGZM00+05cRjyTBrUeFfgGlxcRosc9nPOl0IlxWepo/gbvAFV293c9T3kHQp0BZequ7ZqplVBH5TTkQ0NYS7xx9QG0L2TvWV/Ua/Uvy4yKnqXqnDyn5TCgFZH59xECWAQAXslIXYAKfTiba2Npw7dw4zZ87E3Llz1b7TsbhcLjQ2NqK3txe5ubnIz8+PqLR379692LVrFzZs2IDly5dH9Kyuri7s27cPhw8fhslkQmVlJdauXctS4ovAREPsvNkpWFxkVsuD585MYT/rdCEUeM+egLve19fqaf0EUKLfZ0+TuxA6y0rfjGv+UkDDX0iIiOJCKBDO0yGLKCm24LLf3rgMQ9LNGpxBDdo7VU61QDLkgl9mEvkkTIglSnTRhtgFeSb//qxmLCoyIzONPYvTidJ3Fu6GA74S4YYDEPbo+5rktNm+8uBAibApfE8+ERFNAsURvuzX3gjF3ggoztiPQZIhG/IhBe2dOtiraoGk5WryRJEIhFiuFkM0yZ66e+FUD4EmkXDb4Wmu9ve27oP3XGPU95C0BmgLl6vBVTOnBPxWnYho8gj3+dCy30Bvqr0ewnEa/jmb2JJT/CW/lqCSX/+MakoRy36JJhFDLBFRMKHAe7bWt2drw354Wg6Nr0Q4u9RXHlyyCtr8SyBpDWNfRERE4QkFwtkeEk6DQ6twn4/LMCTdzCFlv4O9qpI+F5C4TgpRPDDEEtFFT+nvhKfhgBpchS36HijZNBPaEn9fa/HlkM0jL0xHRERhKE5/ia+/HzV4IaV4lf1CgpwyvOw3sPovy36JEgNDLBFddITbAU9LNTz1vtDq7aqP/iYaPXQFy6AtWeUrEc5eAJYIExGNTnh6QxZOCl7xVzjaEJ+yX0P4st9UC+TUIkBm5QxRomOIJaLpTyjwdp7yzbTW74On5WPA6476Npo589U9W7UFn4GkS4nBYImIkphQIFxnQraiCS377YnLMCRdlj+gWgYDaiC0Guay7JcoyXF1YqIIRLpC8R8fvzTGI6FIKQPn1BJhT8MBKNbuqO8hGTOhs1wBnWUVtJYrIKfNjsFIiYiSjOKEYm/yl/kGVvtt8PeqNgCKIw6DkCCl5IXsnSobg8t+M+IwBiKKN26xQ0TTivA44Wk55N/6Zj+8HSejv4lGB23+Muj8va2a7FJ+W09ECUrAeephSNoM6Iv+dfLv7rkwWParlvz6Z1QdrYhf2W/x4MJJao9qoOyX1TBEFxtusUNESU6oJcKe+v3wtHwM4Yl+0Q/NbIu69Y22cDkkXWoMxkpENLm8PX+Bq/ExAIAmczU0M66I8g4CwhlU9hsyo1oP4Y6+emU8JF1mUNlv8GJKFkiGefwikYjC4kwsESUNxdoNT8NBf4nwfigD56K+h5Q6AzrLFWpwldOzYzBSIqJYErB9eBW8vXsBANqZX0TqZ/53+GmKC4qjaXC/1MBCSvZGKLYGQLHHZbS+st8StSc1uFdV0mXGZQxEND2wnJiIEp/XBU/LIXXrG+/Z2ujvIWugzb8EOstK6EpWQZNTzm/2iSipeXv+H2zV60JeM8z/ISBpQst+na2AUGI/IFk/WPYbvNqv0QI5tZhlv0Q0aRhiiSgBCXi7GtW+Vk/Th+MrEZ5Z5JtpLfGXCOtNMRgrEVGcCAWKowWK9QQU63G4mp6AcJ2N6xAkbYa/L7U4dP9UowWyYR4gaeI6HiK6OLEnlogSgrD1wt14QO1tVfo7o76HlJIOneXywRLhGbkxGCkRUYwpLii2Oii2WigDx6FYj8NrPQFhq4Xw2mL+eMkwb3DhJOPQst+smD+fiChSDLFEFF9eNzxtn8Bd7y8RPnMcUa9yKcnQ5i31zbSWrII2dxFLhIkoaQhPPxTbCd/Mqj+sKtYTUOz1gPDG7sGSzlf2axyp7JcL2xFRcmCIJaIYE/CeawoqEf4Iwh39YiJyVr6vr9WyCtqiFZAMLBEmokQmIFwdUKy1vpA6cBxef1gVztMxe6qkMUE2lY1Q9pvHsl8imhYYYolo0gn7BbgbD/qCa/1+KH3R925JBjO0xZf79mwtvgJyZl4MRkpENEHCC8XRrPar+gKr71h4euM+HE3mGqQu+0Pcn0tEFE9c2ImIJk7xwNP2Kdz1++Bp2A9P+zGMq0R43hJfibBlFbRzFwMyZwyIKEEoDl+/qj+segNh1XYSUBwxeaSky4JsWgjZVA5J0sHV9kxE1xkv2wfNjMtjMiYioqnEhZ2IaAIElJ5W39Y39fvhafoAwhX9oiNyxlzoLKugK/GXCKekxWCsRESRE54Lgz2qwTOrjsaYbVcjpeRDYyr3B1ZfaJVNCyHpZ6vn2A5GHkpdDf/O2VgimtYYYokoIsLRB3fjB2pvq9LbHvU9JL0J2uIVvuBqWQk5Kw++ghAiongSEM4zUKwn/H2qg2E1ZlvXSFrIxvlqQB0Mq2WQNOYxhqtAsUW+T7a3/8gEB0tElNhYTkxE4SkeeE7XqFvfeNprop+FkGRo5y4e3LN13hJA5ndnRBQnwgPF3hg6q2r1rQosPH0xeaRvYaXy4WHVWAJIunHfV7E3QIkwnMrpyyCnFIz7WUREiSpQTswQS0Qq5fyQEmGnNep7yDNyfOXBlpXQFV0GKXVGDEZKRBREsUOx1sIbElZr/f2qrpg8UtLPDin9lU0LoTGVQzLM45ZfREQxwp5YIoJwDsDT+IEvuDbsh3K+Lep7SLpUaIsvg86yElrLSmhmFoAlwkQUC8LdM7xf1VoLxd6EqBeTi4gEObUwTAlwOSTdzBg8j4iIIsEQS3QxUbzwtB+Fp2Gfb7b19JFxLFQiQZO7ELoSX1+rNq8S0Iy/RI6IKJSAcLQNn1W1HodwdcbmkZIOsql0+KyqsRSSxhibZxIR0bgxxBJNc0pvu6+vtWE/3I0HIRz9Ud9DTs9WZ1p1xZdDMmbEYKREdFERbii2+uGzqtYTEN6BmDxS0qYNKwGWTWWQUy2AxF+JiIiSBf/GJppmhNMKT/OHcNf7S4R7WqK+h6RLgbbwUnXPVs2sIrBEmIjGQ3it6mJKwQsrKbY6QHhi8kxJnwPZHDyr6gurkmEu+HcZEVHyY4glSnZCgefMMXj8odXT9gmgeKO+jSZ3IXSWlb4Z1/ylgEYfg8ES0XQlXF1D+lX9YdUR/RdpEZFkyCnFIWFVNpX59lfVslqEiGg6Y4glSkLKhbNwN+zz79l6EMIR/VYRsnkWtCUrfXu2Fl8OyZQVg5ES0bQiFCiOluFB1Xocwt0dm2fKBsjGMsjmct+MqrHcF1yNpYCcEptnEhFRQmOIJUoCwmWDp/kj32JMDfvh7W6K+h6S1gBt4XJfX6tlJTRzSsCyOiIKS3FBsdWFhFSv9QSErRbCa4vJIyVthm82NTCzGgirKUWApInJM4mIKDkxxBIlIqHAe/YE3PX7fCXCrZ8ASvS9Y5rsUl95cMkqaPMvgaQ1xGCwRJSshKcvKKgGza7a6wERfVtCJCTDPMgm/6xqYIElczkkfTb4xRoREUWCIZYoQSh9HfA0HIC7YR/cDQcg7BeivodsmukvEV4JbfHlkM2zYjBSIkouAsLVAWXgBBTbCSgDx+H1h1XhPB2bR0oayKklQasAlw/ur6pNj80ziYjoosEQSzRFhNsOT3O1uv2Nt6sh+pto9NAVLIPWv2erJnsBOJNBdJESXiiOJnVPVcV63BdcrcchPL2xeaac6p9VLQ8NrMb5gMzKDyIiig2GWKLxEAogyVFf4+04CXfDfl9va+shwOuO+tGaOfPVPVu1BZ+BpOPCJkQXFcUBxXZSDaveQFi1nQQUR0weKelmhqz+q4bVlILo/y4kIiKaIIZYoig59m6D/S9PQ79oLUzrHx/1XKW/K7RE2HY+6udJxkzoLFdAZ1kFreUKyGmzxzt0IkoiwtM7pFfVH1Ydjb4v0mJATikIKv0d7FmV9Px7h4iIEocEQACAEGKKh0KU+BzvPQf7X3+m/mxcdx8Ml/+9+rNwO+Bp+di/9c1+eDtPRf8QjQ7a/GXQ+XtbNdmlnOkgmrYEhLMdirXW36c6GFaF62xsHilpIRsXDJ9VNZVB0phj80wiIqJJIEm+tjmGWKIIOd5/HvZ3foqgf20AACmrboFkzISnfh/cLYcAryvqe2tmW9Stb7SFyyHpUidv4EQ09YQHir0xdFbVP8sqPNHv8xwJSWMaMqsa6FctASRdTJ5JREQUSwyxRFEYKcCOl5Q6AzrLFWpwldOzJ3xPIkoAit0/qzokrNrqACX6L7giIennDAurGlM5pJQ8cKE3IiKaTgIhlj2xRGOYlAAra6DNvwQ6y0roSlZBk1POEmGiJCbcPUGzqUFh1d6MyfiiazgJcmrh8FlVUzkk3cwYPI+IiChxMcQSjcJ1/G1/gAWi/cVUM7PIN9Na4i8R1psmf4BEFEMCwtE2fFbVehzC1RWbR8p6f7/qkFlVYykkjTE2zyQiIkoyDLFEo5A00f0roitcDt2Sr/hKhGfkxmhURDSphBuKrT58v6rXGpNHStq0kNV/1ePUYkDif5qJiIhGw55YojE4DvwP7H/+rzHPM375IRiWXx+HERHReAivdfiWNdZaX7+q8MTkmZI+B7I5eFbVF1YlQy7Yr0pERBQd9sQSRSjlihsBCNj//OMRzzF+5SEYPsMASxQp4emDcHVANi6Y/Hu7usL0q9ZCcbRM+rMAAJIMOaU4JKyq/arajNg8k4iI6CLGmViiCDkOvBg2yDLAEkVLwHbwCnj7PkLq0t9DO+dr47iFAsXRMjyoWo9DuLsnf8gAIBsgG8sgm8v9M6qBLWsWAHJKbJ5JREREKs7EEkUp5YqbACFgf/u/1deMX/4+AyxRlDzdVfD2fQQAcDU9PnqIVVxQbHUhYdVrrYWw1UJ4bTEZn6TN8AXUkJnVMsgpRYCkickziYiIKHKciSWKkuPgS3Du+xVSrrodhs+sn+rhECUZAdsHV8J74aD6inHFHsjmyiH9qv5jez0gvDEZiWSYB9nkn1U1L4RsLIdsLoekzwb7VYmIiBJPYCaWIZaIiOLG0/0W7B9/OfRFyQAIZ2weKGkgp5YMrgJsXugrCTaVQ9Kmx+aZREREFBMsJyYiojgTcNb+a5iXJyHAyqn+WdXykIWVZON8QDZM/P5ERESUMBhiiYgo5oSzHfaaG6FYj03oPpJu5pD9Vf1hNaUAkORJGi0RERElMoZYIiKKHcUFV8tTcDX8B4R3IOLL5JSC4UHVtBCSfnYMB0tERETJIOFCrNVqRXNzM5qamtDe3o7S0lL8zd/8TdhzOzo6cPDgQXR2dqKwsBBLlixBTk7OqPdvb29HdXU1Ojo6kJeXh8suuwxZWVkRja2+vh67d+/G6tWrsXz58qg/GxHRxcTT/Wc4a++GYq2N6HyNeTEMi1+AbCqDpDHHeHRERESUrBImxDY1NeHVV1/FoUOHoNFoUFRUhIULF2Lu3Llhz3/ttdfw+9//HrIsIycnB3/961+hKArWr1+P9evDrxj73nvvYevWrcjKykJaWhr+8pe/4M0338SDDz6IvLy8Ucfncrnw85//HFarFd/61rcm/HmJiKYrxdEMZ+134el8LarrvANHAcXBAEtERESjmvIQK4TAG2+8gVdffRVCCFRUVGDTpk3IyMgY8ZpXXnkFr7/+OsxmMx566CEUFBSgt7cXjz76KHbu3In+/n7ccsstIdfU1dXh+eefhyRJ+P73v4/c3Fw89dRTOHDgAH72s5/hscceG3Wcv/nNb3DmzBncc889SE/nipZERMMoDrianoCz8TFAcYzrFs6T98F42b5JHhgRERFNJ1O6CobX68VTTz2FV155BQBwww03YPPmzaMG2NraWrz++usAgPXr16OgoAAAkJGRgVtvvRUAUFVVhZMnT4Zc96c//QlutxsWiwW5ubkAgKuuugoA0NzcjCNHjoz4zJqaGlRVVWHNmjVYsWLFOD8tEdF0JeDp2gXrviVw1v9g3AEWALwXDkKxnpjEsREREdF0M6Uzsdu2bcPBg74N76+99lp87WtfG/V8IQReeuklAIDBYMAXvvCFkPcrKiqQnZ2Njo4O7NixAw8++KD6XkNDAwBgzpw56mvz5s1Tj0+ePIklS5YMe6bNZsOzzz6LzMxM3HzzzVF+QiKi6U2x1cFZ+y/wnPvTiOdIxjJIEgDJAEmTOuJ5wt0DOW0p5NSiyR8oERERTRtTFmJ37dqFv/71rwCAsrIybNiwYcxrGhoaUF9fDwBYsGABNBrNsHPKysrQ0dGBmpoanDx5EqWlpbDZbOjo6AAAGI1G9VyzebDvqrOzM+wzX3zxRXR3d+OBBx4IuZaI6GImvFa4Gn8EV/OPAcUV9hxJnwND6Rbocr8JQIrvAImIiGjampJy4u7ubuzcuRMAoNVqceedd0KWxx7K4cOH1eP58+eHPcdisajHe/fuBQBoNBr1/pIU/hepcIG4uroa7777LtauXRt2lpaI6OIj4Ol4FdZ9i+Bq/M/wAVbSQl94L0xXHocu9+/BAEtERESTaUpmYn/729/C5fL94rN8+fKIt7gJ7ludMWNG2HMC/a7A4OyqwWDAvHnz0NraCqvVqr7f19enHmdnZ4fcp6+vD8899xxycnKwcePGiMZHRDSdKQNH4ai9C96ev454jibr80gp/wlk06L4DYyIiIguKnEPsVarFQcOHFB/vvTSS/HGG2/g1KlTaG9vh8lkwoIFC/DVr34VmZmZIdcGl/wGlwIHCy75DT6/pKQEra2taGtrU18L9MkCvvLkYNu2bcPAwAC++93vwmAwRPkpiYimD+G5AFfDv8PV8jQgvGHPkVLykVL6X9BmXwfOvBIREVEsxT3EVldXw+sd/CVo27ZtkCQJGRkZOHv2LIQQOHXqFPbu3Yu77roLixYNfpvf39+vHo8UYlNTBxcNOXfuHIQQkCQJ1113HT7++GO0trbi0KFDWLhwIaqqqgAAlZWVIc95//338eGHH+Laa68dFm6JiC4aQoH77HY4T34PwtUR/hxZD33RfdAXfQ+SxhTf8REREdFFKe4h9ujRo+qx2WzG1772Naxbtw46nQ7nz5/Hli1b0NzcjL6+Pjz99NP4r//6LxiNRjgcjpDwO1KIDe5tdbvd6O/vR3p6OmbNmoW7774bTz75JJ5++mno9Xr09fWp+9IG9PT04Fe/+hUKCgpw/fXXD7t/V1cX0tPTOTtLRNOa0n8IjhN3wds78p6t2llfhqHsvyEbw69RQERERBQLcQ+x3d3d6vE111yDr3zlK+rPmZmZuO+++3D//ffDZrPhwoULeOONN7Bx40ZIkgRJkiCE8A1cG37oTqcz5GedTqceL1y4EM888wzq6urQ3t6OwsJCFBUVqYs9CSHwi1/8Ai6XC5s2bQp5xu7du1FVVYVz585Bp9OhsrIS3/72t4eVPBMRJTPh7oHz1MNwt/0CgAh7jpxaAkPZf0M7+yth3yciIiKKpbivTnz+/Hn1OC0tbdj7WVlZWLVqlfrz8ePHAfgWZwqe/XS73WHvHxxitVptSHkx4FuduLS0FJ/97GdRXFwcslrx22+/jSNHjmD9+vUoKChQX9+zZw9efvllyLKMRx55BOvWrUN1dTWeeOIJdYEqIqKkJrxwtz0H695yuNueQdgAK6fCMP8/YFr1KQMsERERTZm4h9jg2c1wIRYArrzySvW4vb1dPQ5exTh4leFgwSF2pJLjcM6ePYuXX34ZCxYswDXXXKO+3tvbi23btgEArr76apSWluIb3/gGzGYzGhsbsWPHjoifQUSUiLwXDsD2wUo4jv8fCHd32HO02ethuvIY9MUPAnJKnEdIRERENCjuITZ4htNut4c9J3ibHJfLpZYQB4fYgYGBsNf29PSox3l5eRGNSVEUbN26FQBw++23h+xZW19fD4/HAwDq4k8ajQZlZWUABmeKiYiSjXB1wHH027B9cCW8fdVhz5FN5TAur0Jq5SuQUwrCnkNEREQUT1MaYltbW8Oek5aWppb55uTkqMdLly4d89rgLXQqKysjGtPu3btRV1eHjRs3IicnJ+S94G14TKbBlTcDs8gtLS0hC04RESU84YGr5WlY9y6Eu/3XYU+RNGYYSh+H6YpD0GT9bZwHSERERDSyuIfYwsJC9Tg4cAaz2+3q7Gt+fr76+po1a9TVh48dOxb22uB7XnLJJWOOp6WlBTt27MCSJUuwdu3aYe8Hz+ympAyW0On1egC+3ty+vr4xn0NElAi85/fAemA5nLX/AuG5EPYcXe7fw3TlCegL7wVkfZxHSERERDS6uIfYRYsWqUH2008/xZkzZ4adExxEr776avU4PT0dy5YtA+CbIR1ajuxyuVBbWwsAWLZs2ZjlxB6PB1u3boVer8dtt90WsshTQHDoDu7DDRxrtVpkZGSM+hwioqkmHG2wH/kmbB99HspATdhzZHMljJf+FSkVL0Iy5IY9h4iIiGiqTcnCTps2bYJOp4PX68Wvfz28lG3Xrl0AgOXLl2P+/ND9Bzds2ACtVgtFUfDmm2+GvPfOO+/AbrdDo9Fg48aNY45l586daG5uxs03989WhwAAIABJREFU3xzSbxvMYrGox8HbA3V2dgIA5syZEzb8EhElBMUFV9MWWPctgufs78KeImkzkFL+NExXfAhN5po4D5CIiIgoOnEPsYCvRPjrX/86AN9s7M6dO9Hf3w+3243t27ejuroaFRUV+Od//uew1950000AfL2s7733Hnp7e/GHP/xB3QbnjjvuGHMWtq6uDrt27cKKFSuwZs3Iv7QVFxerJc0ffPABAKCrqwunTp0CAHzpS1+K/g+AiCgOPN1VsO5fCmfdZghvuBXdJejm3QrTlSegy98ESHHfOpyIiIgoahL8mwEGelDjRQiBPXv24KWXXoLNZoNGo4Esy9Dr9Vi5ciVuvvlmtf81nPfffx/bt2/HhQuDPV35+fm48cYbUVFRMeqznU4nNm/eDJvNhi1btiA9PX3U87u6uvDwww+jv78fq1evRktLC5qbm1FZWYn7778/ZDVjIqKpptgb4Tz5XXg63xjxHE36ChjKn4JmxmVxHBkRERHR+AUqYKcsxAa43W60tbWhs7MTeXl5mDt3bsTluS6XC42Njejt7UVubi7y8/Mjunbv3r3YtWsXNmzYgOXLl0f0rK6uLuzbtw+HDx+GyWRCZWUl1q5dy1JiIkocih2upsfhbPy/gOIIe4qkmwXDgsegm3sLIPELOCIiIkoeCRNiiYhoogQ8XbvgrL0Hir0p/CmSDH3e7dCXPApJlxnX0RERERFNhkCIZQMUEVESU2wn4TzxL/B0vzXiOZrMNUgp+wnktKUjnkNERESULBhiiYiSkPAOwNXwI7iafwwId9hzJEMuDKWPQ5fzDfgKb4iIiIiSH0MsEVFSEfCcfRWOk/8K4Twd/hRJC33hv0Bf/BAkbVp8h0dEREQUYwyxRERJQhmogePEXfCe3zPiOZqsv0VK+VOQTeVxHBkRERFR/DDEEhElOOG5AFf9o3C1/hQQ3rDnyCkFMJT9GNo5fweWDhMREdF0xhBLRJSohAL3mf+Bs+4BCFdn+HNkA/RF90Ff9D1IGmN8x0dEREQ0BRhiiYgSkLfvYzhP3AXvhf0jnqOd/VUYyn4MObUkjiMjIiIimloMsURECUS4u+E89RDcbc/Bv433MHJqCQzlT0I768vxHRwRERFRAmCIJSJKBMIL9+nn4Tz1EIS7J/w5cioMlu9DX3gPIKfEd3xERERECYIhlohoinkv7Ifj+J1Q+g+NeI42+3oYSh+HnFIQx5ERERERJR6GWCKiKSJcHXDWPQB3+4sjniObFiGl/Closj4Xx5ERERERJS6GWCKieBNuuFp/Dlf9IxCevrCnSNo06C0/gL7gDkDSxXmARERERImLIZaIKI68PX+Fo/YuKANHRzxHl3sjDAseg2TIjePIiIiIiJIDQywRURwIRxscdffBc/aVEc+R0y7xlQ5nXBnHkRERERElF4ZYIqJYUpxwtTwJV8MPIby2sKdIukwY5v8Qunn/CEiaOA+QiIiIKLkwxBIRxYin+y04T9wNxVY3whkSdHnfgWH+DyHpZsV1bERERETJiiGWiGiSKfZGOGvvhafrzRHP0cy4HIbyp6BJvzSOIyMiIiJKfgyxRESTRHhtcDVtgatpC6A4w54j6WfDsOA/ocu9CZDkOI+QiIiIKPkxxBIRTZiAp/MNOGvvheJoDn+KJEOf/8/QlzwCSZsR3+ERERERTSMMsUREE6BYa+GsvRue7j+PeI4m82+QUv4TyObKOI6MiIiIaHpiiCUiGgfhHYCr4YdwNT8JCHfYcyTDXBhKH4cu5wYAUnwHSERERDRNMcQSEUVFwH32d3CevA/C2R7+FEkHfeG/QF/8fUjatPgOj4iIiGiaY4glIoqQMnAEjhN3wXv+3RHP0c78AgxlP4FsKo/jyIiIiIguHgyxRERjEJ5euOofgav154Dwhj1HTimEoezH0M75Glg6TERERBQ7DLFERCMRCtxnXoSz7gEIV1f4c2QD9EXfg77oPkgaY3zHR0RERHQRYoglIgrD2/cRnCfugvfCwRHP0c6+BoayH0NOtcRxZEREREQXN4ZYIqIgwn0OzlMPwd32PAAR9hzZuAD/P3t3HlZVtf8P/L3P4ZzDHCAiKCAoIg6gaJqmppnaZGUqem24meZtssm63Qbrat6yflZWalaaOeRQaZZSCipOYE6oOCCIiAyCyDyfef/+4MvuHDmHSTiAvl/P4+PeZ3/W3muTPPFhrfVZqp5fwM7zPtt2joiIiIiYxBIRAQBEA3RXVkBzcS5EXZHFEEHuCGW3uVD6vwrIVDbuIBEREREBTGKJiGAojoM66WUYy05ZjbHzngL7Hv8Pgr2fDXtGRERERNdjEktEtyxRexWaC29Bl7POaozMuQ/se34Fucco23WMiIiIiKxiEktEtx5RB23GMmgvzYOoL7MYIti5Qtl9HpR+LwCCwsYdJCIiIiJrmMQS0S3FUBgDddIrMFYkWo1RdP4nVD0WQlB627BnRERERNQQTGKJ6JYgqjOhvvAG9LmbrcbIXMJhH/IV5G532rBnRERERNQYTGKJ6OZm1ECb/jm0aR9BNFRaDBEUHlAF/Q+KLs8AgtzGHSQiIiKixmASS0Q3LX3+DmiSX4Wx8qKVCAEK31lQBf0PgqKDTftGRERERE3DJJaIbjrGqlRokudAnxdpNUZ+2xCoQr6C3HWgDXtGRERERDeKSSwR3TREQyW0lz+B9vIiwKixGCMovaDq8TEUPk8CgszGPSQiIiKiG8UklohuAiL0136DJnkOjOoMyyGCHEq/2VB2/y8Eu9ts2z0iIiIiajZMYomoXTNWJEGT/Ar0BbutxsjdR8I+5CvInPvasGdERERE1BKYxBJRuyTqy6BN+x+06V8Aot5ijKDqAvvgT2HnHQFAsG0HiYiIiKhFMIklonZGhO7qJmgu/BuiJsdyiKCAsuscKLu9A0HubNvuEREREVGLYhJLRO2Gsfw01Ekvw1B00GqMXYdxUIV8CZljsA17RkRERES2wiSWiNo8UVcEbep/oc1aDohGizEyhwCoei6GXceHwKnDRERERDcvJrFE1HaJRuiyV0OT8jZEXb7lGJk9VIH/gTLg34DMwbb9IyIiIiKbYxJLRG2SofQYNEkvw1By1GqMndcjUAV/BplDoA17RkREREStiUksEbUpojYPmovvQndlFQDRYozMsQdUIV/CrsO9tu0cEREREbW6NpfE7tixA+np6bjzzjsRFhZWZ2xubi6OHDmCa9euoWvXrggNDYW3t3edbbKzsxEfH4/c3Fz4+vpi8ODB8PDwaFDfUlNTERkZieHDh2PgwIENficiagBRD13Wd9BcfA+ivthiiCB3grLbXCj9XwFkKht3kIiIiIjagjaVxJ4+fRrr1q0DAHTp0qXOJHbr1q349ddfIZPJ4O3tjX379sFoNGLSpEmYNGmSxTYHDx7E8uXL4eHhARcXF8TExGDbtm1455134OvrW2fftFotvv76a1RUVODpp59u+ksSUS2G4liok16GsSzBaozC+x9QBf8/CKouNuwZEREREbU1stbuQI3y8nJ88803DYr9+eef8csvv8DBwQELFizAJ598gqVLl6JTp07YsmULVq9eXatNSkoKVq5cCUEQ8O6772LhwoUYMmQIiouLsWzZsnqfuXHjRuTk5GDmzJlwdXVt7OsRkQWiJgfqs/9E5bGRVhNYmXNfON4eA/vQ9UxgiYiIiKjtJLErVqxAcbHlKYSmkpOT8dtvvwEAJk2aBH9/fwCAm5sbZs6cCQCIjo7GhQsXzNrt3LkTOp0O3bp1g4+PDwBg5MiRAID09HScOXPG6jPPnj2L6OhojBgxAoMGDWr8yxGROVEHbfrnqIgLgS5nvcUQwc4Vqp6L4TTkOOTuI23cQSIiIiJqq9pEEnvgwAEcO3YMXl5edcaJoogff/wRAKBSqTBmzBiz63379kWnTp0AAJs3bza7dunSJQAwe0aXLn+P6lyf9NaorKzEd999B3d3dzz11FMNfCMissZQuAcVf4VDc+HfEA3lFmMUnafDaVgSlP4vA4LCxj0kIiIioras1ZPYvLw8rF69Gr6+vpg2bVqdsZcuXUJqaioAoEePHpDL5bVievbsCaB69LQmMa2srERubi4AwNHRUYp1dnaWjq9du2bxmWvXrkVBQQGeffZZs7ZE1DhGdQaqTk9BZfw4GCvOW4yRuw6A4+A42Pf5HoKyk417SERERETtQasmsUajEcuWLYPBYMDs2bOhVCrrjD916pR0HBQUZDGmW7du0nFcXBwAQC6XQyarflVBECy2s5QQx8fH48CBAxg7dixCQ0PrfhkissyohjbtI1TE9YY+d4vFEEHhAfte38Bx8GHIbxti4w4SERERUXvSqkns9u3bceHCBUydOlVa21oX03Wrt912m8WYmvWuwN+jqyqVSpo6XFFRIV0vLS2VjmumIZteW7FiBby9vesdISYiy/T5f6LiUBg0F98DjFUWIgQofJ+D07AkKHxnAULtXyYREREREZlqtS120tLSsHnzZvTt2xf3339/g9qYTvk1nQpsynTKr2l89+7dkZmZiaysLOmzmnWyQPX0ZFPff/89ysvL8frrr0Ol4n6URI1hrEqFJvk16PP+sBojv20oVCFfQe46wIY9IyIiIqL2rlVGYrVaLZYtWwYHBwc8//zzVqf4Xq+srEw6tpbEOjg4SMf5+fkQRREAMHHiRLi6uiIzMxMnT56EWq1GdHQ0ACAsLAy9e/eW2sXGxuLYsWMYP358reSWiKwTDRXQXHwPFYf6Wk1gBWUn2PddDcdBB5jAEhEREVGjtcpI7IYNG5CdnY1XX30V7u7uDWqjVqthMBikc2tJrOnaVp1Oh7KyMri6usLT0xOvvPIKvvjiCyxZsgRKpRKlpaXo27cvXnjhBalNYWEhVq9eDX9/f0yePLnW/fPy8uDq6srRWSIzIvS5v0J94XWI6kzLIYIcSv+XoOz2PgQ7y8sBiIiIiIjqY/MkNiEhAdHR0Rg5ciQGDx7c4HaCIEAQBGlk1c7Octc1Go3ZuULx9/YcvXr1wjfffIOUlBRkZ2eja9euCAgIkEaCRVHEt99+C61WixdeeMHsGZGRkYiOjkZ+fj4UCgXCwsIwY8aMBifhRDcrY8V5qJNehqEwxmqM3GMU7Ht+BZlzHxv2jIiIiIhuRjZNYsvKyvDtt9+iU6dOjd5zVaVSQaVSQa1WA6geZbXENIm1s7Mzm14MVCfDwcHBCA4OrtV29+7dOHPmTK1CU/v378eGDRvg5eWFefPm4dixY/jjjz9QWFiI//73v/VWVSa6GYn6UmgvLYA24ytA1FuMEex9YR/8Kew6TQbQsGUDRERERER1sWkSu2nTJhQXF8PT0xPffPNNreuFhYXS8f79+5GamgpBEDBz5kw4OzvDw8MD2dnZAMyrDJsyTWKtTTm25OrVq9iwYQN69OiBhx56SPq8uLgY33//PQDg/vvvR3BwMLp37479+/dLxakee+yxBj+HqP0TocvZAM2FNyFqr1oOERRQBrwOZeDbEOQN/z4kIiKitq+8vBy5ubl1xnTq1KlRP4tTtYsXL+Lo0aPML+ph0yS2uLgYQHXBpfz8/Dpjs7OzpYR12rRptZLY8vJyi+1ME2FfX98G9ctoNGL58uUAgOeff17aUxYAUlNToddXjzLVFH+Sy+Xo2bMn4uPjcf78+QY9g+hmYCw7BXXSKzAUx1qNsfO8D6qeiyFzrD3bgYiIiNq/S5cuYdu2bUhJSbE4OzIoKAiTJ09GWFhYK/Sufdu2bRuOHz+OkSNHSluEUm02TWK7du2KqipLe0VWKy0tlZLUDh06oGPHjgAAe3t7AEC/fv1w9uxZAEBmpuXiMaZb6DT0GycyMhIpKSmYPn06vL29za6ZbsPj5OQkHbu4uAAAMjIyYDAYzApKEd1sRF0RNKnvQ5f1DSAaLcbIHAKh6vkF7Do+CE4dJiIiunmFhYUhLCwMpaWlePfdd1FQUAAAcHNzwzvvvNPggaTGyMvLk3KDtqCqqgoGg6FZR5vz8vJw4sQJAEB0dDSefvrpZrv3zcamSeyUKVPqvH7y5EksWrQIADBu3Dizab0AMGLECGzatAkGgwGJiYkW72GaxPbv37/ePmVkZGDz5s0IDQ3F2LFja103HdmtSaYBSOtgdTodSktLWeCJbk6iEbrsH6BJeQeizsrsCZk9VIFvQxnwOiBzsBxDRERENx1XV1eEhIQgLi4OQHUR1ZZIYIuKijBnzhysXbu2wVtztrRNmzbB2dkZERERzXbPXbt2wWisHiw4ePAgpk2bZpZ/0N9aZZ/YpnJ1dUV4eDiA6hHS60d1tVotkpOTAQDh4eH1fhPp9XosX74cSqUSzz77rMVviq5du0rHputwa47t7Ozg5ubWtBciasMMJUdRefROqBP/ZTWBtfOaAKc7z0HZbS4TWCIioluQaRFV01mLzenPP/8022qztZWUlODAgQPNek+tVot9+/ZJ52q1utmfcTNpV0ksAERERMDOzg5GoxHbtm0zu7Z3715UVVVBLpdj2rRp9d5ry5YtSE9Px1NPPQUPDw+LMd26dZOOa6ZKAMC1a9cAAF5eXm3mN0JEzUHU5kGdOAuVR4fCUHrMYozMqSccBuyEQ78tkDkE2LaDRERE1GaY/hxsWlemuZw5cwY7duxo9vs2lcFgwNKlS2tt63mj4uLiatX82bVrV7M+42Zi831ib5Sfnx/++c9/YtWqVYiMjETnzp0RGhqKuLg4/Pzzz5DJZJg9e3a9o7ApKSnYvn07Bg0ahBEjRliNCwwMhJ+fHzIzM3H06FGEhIQgLy8PFy9eBADcd999zfp+RK1G1EOb9S20F9+HqC+2GCLInaDs9j6U/i8DMm4tRUREZCv3//t4o+J3LLq9hXrSNHq9Hnl5efDx8ZE+MxgMKCoqgqenp8U2GRkZ+PLLL6Uptg1RVVWF4uJieHl51VuzprCwECqVymwEuaSkBCqVyuI0XqPRiB9++AHnzp1rcH8aKioqCnK5HHPmzJGWV165cgWJiYlScdnG0Ol0KCwshLu7e6O2Ay0qKgKANr9Usk0lsaa/vanrNzljxoyBvb091q9fL1UVBqoT3CeffBJ9+/at8zkajQbLly+Hs7MzZs6cWWesQqHAG2+8gffeew9RUVGoqKhARkYGRFFEWFgYRo8e3cC3I2q7DEUHoE56GcbyM1ZjFN7ToAr+BIKKlfKIiIioYa5du4Y9e/Zg//79KC0txbp161BUVIQtW7YgPj4e5eXl8PT0xCOPPIJ77rlHahcZGYlffvnFrPrx/PnzpeNXX31VWtKn1+uxefNmHD16FLm5uRBFEXZ2dggKCsL06dPh7+8vtTMYDDh+/Dj27NmDc+fO4eGHH8bUqVOxb98+xMTEIDU1FXK5HL1798aLL74oFXO9du0alixZgtTUVOlee/fulRLa8PBwPPLII036Gp0/fx4ZGRkYNmwYwsPDERQUJA2YRUdHNziJFUURO3fuxMGDB5GZmQmDwQBBEODv748pU6ZIyzKvl5ubiw0bNuDChQsoKSkBAKhUKowcORKTJk2SvgZtSZtKYvv164cNGzY0KHb48OEYPHgw0tLSUFxcDB8fH/j5+TVoau/x48ehVCrx+OOPw9XVtd74jh07YsGCBTh06BBOnTqFDh064O6778bYsWM5lZjaNVGTDU3Kf6DLsf59J3MOhX3Il5C7j7Rhz4iIiKi9++STT3D69GmIoih9lpWVhUWLFpkVT83Pz8fq1asRGBgoLeWrqKjA8OHDcfz4cZSVlQEAOnfuLP3sbWdnJ7VdvHgxsrKyMH78ePj7++PcuXPYs2cPkpKSMHfuXMyZMwf9+/fHiRMnsHLlSmnbzxobNmxAZGSkdK7X63H69GmsXLkSr732GoDqXVT8/f3h5OSE06dPA6jeraRmG5wbGbncuXMnAODee++V/q5JYuPj41FYWGh16WON0tJSLFu2DGfOnMGgQYMwefJkFBcXY+vWrUhPT8eiRYswc+ZMs18UAEBsbCxWrVoFuVyOiIgIeHl54ciRI9i/fz+io6ORkJCADz/8EI6Ojk1+v5YgABABmP3jIqKbnFELbeYSaFM/gGiwvOeyYHcblEEfQOn7HCC0qd93ERERtSs5BRos/TUd6bnqJt+joETbqPgOtzV+2Y/STsDoAR3w+NjOaOg4zQ8//CCt3Rw3bhymT58uXUtISIDBYMDixYulwkwODg7o06cP7r33XnTp0gW//vordu/eDaB665633nrL7P4ffPABkpKSAADr16+vNYD08ccf4/Tp03jxxRcxbNgw6fPff/8dP/30E4DqrTsXLVqEsrIyXL16FTExMThy5IgU6+joiKlTp6Jfv34oLi7GZ599JiXO8+fPR48ePaTYxMRE/O9//wMAPProozdcnTg/Px+vvvoqunXrhg8++ABAdRI9e/ZslJaWNvg5n332GeLj4zFs2DC8+OKL0ue7d+/GqlWrAFR/7b/77jtpmnVaWhrmzp0LmUyGhQsXSssxDQYDXnnlFekXDVOmTMGECRNu6D2bS81//3ZX2ImIboy+YDcqDodDc+FNqwmsosvTcBqWBKXfbCawREREN+jTTWk4caEUBSXaJv9prKY8I6dAg/W7shF7pqhZ3rtfv34YMGCAWa2aBx54AK+99hr69OkDNzc3PPbYY1AoFACAy5cvN+r+J0+exOnTp+Hu7o4hQ4aYXRs/frx034KCApw4cQIdO3ZEaGioWbLr7e2NBQsWYOzYsfDy8kJwcLDZcsH09PTGvnaj7N69G0ajURqFBapHme+++27pfO/evXVWZ46Pj0d8fDzs7OwwdepUs2tDhw6VlmlqNBppdxej0YiVK1dCFEWMGjXK7L+RXC43+3rWJNNtCX86JbpFGNXp0CS/Dv21rVZj5K63QxXyFeS33WHDnhEREd3c0q9W1R/UhqRfrcKIsOYr7GNaJGnChAlmo6n29vbw9PRETk5Ore0z61OzJY0oihaXJJoWhLpy5YrF/txxxx1mxaYAmK2hraysbFSfGkOn0yEmJgZubm61kvAxY8Zg+/btMBqNKC4uxtGjRzF06FCL96mp3ty1a9daRbKcnJzwzjvvIC4uDr1794azszMA4MKFC0hLSwMADBw4sNY9J0yYABcXF5SWluKBBx644XdtbkxiiW52RjW0lz+FJu1jwGj5fw6CogNUPT6CovMMQOAEDSIiouZ0Z1937Dpuec/1tkYmE3BH79ua9Z71VQmuqQ6s1+sbdd+rV68CqF6Pev32NABw5513Ssfe3t7ScX1bAZmu/2zJ/WlrttUZN24cKioqzK4pFAqEhIQgMTERQHWBJ2tJbE2C7uXlZfF67969axWHysrKko47depUq42zs3OTC1XZApNYopuWCH3eH9AkvwZj1SXLIYIMCt9noer+AQRF3QUDiIiIqGlemtQV3To7ID23Ck0tQxN1tHFJ8L2DLW9bUxelnQyjwj3Qw9ep/uBm1JRCqaIoSklsWFhYrWm0dakvibVV4daoqCgA1QlqdHR0nbHJycnIyMgwGyUGgPLycqmicGN+CWA6Mt3YXx60BUxiiW5CxsoUaJJfgz7f+ubgcrc7YR/yFWQulsutExERUfNQ2AmYMKL2aFdjNDaJfTUi4Iae19ZptVpp+52aZLY9SUpKQnp6OsLCwnDXXXdZjdu0aRPy86v/20dHR+OZZ54xu67RaKTjvLy8Bj/ftN21a9fg5+fX4LZtAZNYopuIaKiANm0htOmfAUbLRSAEpTdUwZ9A4fM4qguUExEREbUvKpUKbm5uKC4uxpkzZ1BeXi6t97xednY28vPzERYWZuNeWlczChsREYHu3btbjSsoKMDGjRsBVE8/fuyxx8ymO3t4eEChUECn0yEjIwP5+fm11sXWSEhIgCiK6N+/v9kU4hMnTlhcFwtUj3ivX78eTzzxRKPfsSVx8RvRTUGEPnczKg71hjZtoeUEVrCDsuscOA07D4XPE2ACS0RERO1ZzTrXyspKbN1qvXDlL7/8guTkZFt1q14FBQU4fvw4goKC6kxgAeDuu++WqixrNBrs37/f7LogCFJCajQapT1nr2cwGLB27Vqp2JXpGuHY2FirFYjj4uJw/vz5hr2YDTGJJWrnjBWJqIwfi6rTUyGqsyzGyD3uhtPQk1AFL4Jg52rjHhIREdHNynQ9pWk1YGvERi4KNl2/WjMFVhRFiKKIPn36SNd27tyJ33//vdb99+7diyNHjpiNNDamD9fHmq6XNZ2S25h7/vHHHzAYDBgzZky9sc7OzhgwYIB0vmPHjlrFpvr27SsdR0VFme2BW9O3NWvWoKSkRBqN7tmzJ5TK6r2EdTodPv/8c6jV5vsYZ2VlYc2aNbUqJ7cFnE5M1E6J+lJoL30AbcYSQLS8IF+w94N98Gew6zQRHHklIiJqv3Ysur21u2CR6Qje9RV2LX2u1WphZ2eegtQkZaIoQqPRQKVSSdc6dOggHcfHx2PQoEH4+OOPMWrUKIwfPx579+5FYWEhRFHETz/9hBMnTiAsLAx6vR4nTpxAZmYm+vfvj27dukn3Md02R6utPXvNNEm8PrEz7c/58+ehVquRmJiIdevW4fPPP6+3KFReXh5iYmIgCALCwxtWlyQ8PFxKTPPz87Fnzx6MGzdOuj5x4kQcOHAAlZWVMBgMWLp0Kc6ePYtevXpBq9Viz549SE1NxaRJk6SvvZubGx588EFpBPvChQuYN28ehg0bBm9vb6SkpCAqKgoODg4YOXJkg/ppS0xiidodEbqc9dBceBOiNtdyiEwJZdc3oAx8C4LcthUGiYiI6Oan0Whw+PBhnDt3TvosISEBZ8+eRZ8+fSAIAkRRRGJiotl2Ln/99RdGjx4tJXsXL15Eenq62fWRI0dK17t06SJdW7ZsGeRyOYKCgjBixAgIgoAZM2bgyy+/lIo8paQqJXioAAAgAElEQVSkICUlRWrj6uqKWbNmSedlZWWIjY2Vzk+fPm22nlar1ZpdP3XqFCZMmCCtQ/X09IRKpYJGo0FaWhpmzZoFg8GAt956q94E9urVq1i2bJmUOCcnJ2PgwIF1tquoqEBGRobZZzV74g4ZMgSurq5wdnbGU089he+++w4GgwEGgwF79uzBnj17pDZ9+vTBxIkTze7z8MMP4+TJk7h8+TIAICMjw+xZgiBg9uzZcHVte7P4BAAi0PihfSKyPWPZSaiTXoGhOM5qjJ3n/VD1/AIyxyAb9oyIiIhuFYcOHcKKFSvMptOasre3x8yZM3H48GHEx8fXuq5QKPDRRx9h8eLFyM7Ottj+22+/hUKhgFarxaJFi3Du3DkIgoDQ0FDMmDHDbE/U9PR0LFmypNa9evXqhdmzZ8Pd3R0AkJqainnz5lnc+3XEiBEIDQ3Ft99+W+u6IAiIiIjAhAkTAADHjh3D119/DY1GA3d3dzz44IN44IEH6vyaxcTEYOXKlRa/Fp9++ik6duxY61pOTg7eeOMNq3maQqHAmjVrpPPz589jyZIlKC4ulj6TyWS4//77MXnyZLMR7ho6nQ6rVq3CgQMHzJ7TuXNnzJo1Cz179qzzvWytJuFnEkvUDoi6Qmguvgfdle8A0fJ6E5lDN6h6fgG7jg/auHdERERELSs/Px9yuVxKSC3Jzc3FpUuXIAgCAgMDzSrwNjedTofs7Gz4+fnVu++sLYmiiKysLKSlpcHV1RWBgYG47bbb6m1XXl6OixcvorS0FP7+/vDz84NcLrdBjxuHSSxReyAaoLuyCpqL70LUFViOkTlAFfg2lAGvAzJ72/aPiIiIiMhGapJYroklaqMMJYehSXoZhtLa03Bq2HlNhKrnp5DZd7Vhz4iIiIiIWg+TWKI2RtRegyblbeiyV1uNkTmFQNXzS9h1qL80OxERERHRzYRJLFFbIeqhzVwObep/IepLLIYIcmcou78Ppd9LgExp4w4SEREREbU+JrFEbYChaD/USa/AWH7GaozC53GoenwMQdXZhj0jIiIiImpbmMQStSJRcwWaC29Cd3WT1RiZcxjsQ76C3H2EDXtGRERERNQ2MYklag1GLbQZX0J7aQFEQ4XFEMHODcqgD6D0fRYQ+K1KRERERAQwiSWyOX3BLmiSXoax8oKVCAGKLjOgCvoQgrL2xtdERERERLcyJrFENmKsugzNhdehv/ab1Ri56yCoQr6C/LbBNuwZEREREVH7wSSWqKUZq6C9/Ck0aR8DRrXFEEHhCVWPhVB0ng4IMtv2j4iIiIioHWESS9RiROjzIqFJfg3GqjTLIYIMSt/noew+H4LC3bbdIyIiIiJqh5jEErUAY+UFaJJehb4gymqM3G047EO+gsylnw17RkRERETUvjGJJWpGoqEc2ksfQZv+OSDqLMYISm+oghdB4TMNgGDbDhIRERERtXNcfEfUSIbS46hKmAxjRaLJpyL0V39GRVxvaC9/YjmBFeyg7Po6nIadh8LnMTCBJSIiIiJqPAGACACiKLZyV4jaAxHleztA1JcAAFzGGmAsPwt10sswFO232krucQ/sQ76EzKmXrTpKRERERHRTEYTqQSBOJyZqBH1BtJTAAoD69FTorm0FRIPFeMHeD/Y9P4ed16PgyCsRERER0Y3jSCxRg4moPDoMhpIj9YfKlFAG/BvKgLcgyB1bvmtERERERDc5jsQSNZK+ILpBCaxdxwehCv4cMscgG/SKiIiIiOjWwiSWqEFEaFPn1xkhc+gOVcgXsPN8wEZ9IiIiIiK69TCJJWoAfcGuOkdhFb6zYN/zC0Bmb8NeERERERHderjFDlG96h+FFavSmMASEREREdkAk1iielSPwh6uJ2Y3DMVxNuoREREREdGti0ksUZ3qH4Wtob30QQv3hYiIiIiImMQS1UFfsLveUViz2OJDLdwjIiIiopuLKIrIysqCXq9v7a5QO8HCTkR1MFYkNTI+GXK3O1uoN0RERERtj8FgwIkTJ5CZmYmcnBx07NgRwcHBCA4OhqOjIyoqKrBx40Y888wzZu1KS0uxd+9exMTEIC8vD/Pnz0ePHj1a6S2q6fV6pKenN6mtTCZDYGBgnTGlpaWIiopCUFAQwsPDm/QcYhJLVCel3wuQu/SHaKysN1aQO0N+21Ab9IqIiIiobbh48SJWrFiBzMxMAIC9vT3UajUAQBAEBAQEQKFQIDs72yyJ3bhxI3bs2NHmRl9LSkqwZcsWXLx4EeXl5Y1qq1AosGbNGovXioqKEBkZiZiYGGg0GkycOJFJ7A1gEktUF0EOufuI1u4FERERUZuTk5ODDz/8EBqNBqGhoZgxYwY6deqEwsJCnDt3Dn/88QfS0tIAAM7OzmZthw4dikGDBmHJkiXIy8tr0X7m5eWhY8eODYrt0KED3nzzTRgMBixatAinT58GAHTs2BEvvfSSWaxWq0VBQQF2796NlJQU6HQ6GI1GyGR/r9hUq9XYuHEj9u3bB51O13wvdYvjmlgiIiIiImq0r7/+GhqNBv7+/njjjTfQqVMnAICHhwdGjBiB999/H0FBQRbbBgQEICgoCH369GnRPhYVFWHOnDkQRbFR7eRyOQYNGiSdOzo6IigoyOxP7969pfccPHgwAECj0ZjdRxAEuLu74+233+bIazNiEktERERERI1SVlaG1NRUAMDtt98OhUJRK8bR0RHvvPMOvLy8rN5HpVK1WB8B4M8//4TBYGhSW3t7+wbFyeVyTJ48GUDtJFalUmHChAkICQnBsGHDmtQPqo1JLBERERFRO6M9uwNla2bAWJjRKs83LX6UnJxsNc7e3h5jx461et106m1zO3PmDHbs2NHk9oIgNDjW19cX06dPh6Ojo9UYJyenJveFzDGJJSIiIiJqRzTxv6Bi69vQZ5xAybKHYSy7ZvM+dOjQQTpOTEzE/v37rcaGhYVZvdaYRBGoXmNaWFhY7+hqRkYGvvzySxiNxkbdv7GMRqPUl3HjxkGpVFqNlcvlLdqXWwkLOxERERERtROa+F9Q+eeHZp+VrZ0Jl39+D5mL9Wm7zc3Hxwdubm4oLi6GKIr49ttvcfnyZUydOrXWNNwuXbrgvvvua/KzjEYjdu3ahejoaOTk5ACorgQcEBCA22+/HePHjzdLhiMjI/HLL7+YFVKaP3++dPzqq6/Czc2tyf0xFRUVhYKCAjzxxBP1xjY2YSfrOBJLRERERNQOaOJ/rpXAAoCxMBNla2fCWJpr0/6MHz/e7DwqKgqvv/464uLizD6XyWSYOHFik55RWVmJjz/+GGvWrIGTkxNeeOEFvPbaaxgwYABSUlKwceNGfPrpp6iqqpLaVFRUYPjw4XBxcZE+69y5M7p06YIuXbrAzq75xvFOnDjR4qO9VBtHYomIiIiIWpDhahIqfn8PhrzUG7uRaD1ZMhZmouTL+4AbGO0T7FRQhj4Ax/vfAWT1T3194IEHkJubi127dkmfFRUVYdmyZdi9ezeeeOIJdO/evcn9AYAffvgBZ8+ehaenJ958801pq55BgwZh1apV2L17N06ePInPPvsMc+fOBQBMnToVQPUWQElJSQCAWbNm3dBIaFlZGY4dOyad5+XlIT4+HufPn4efn1+T70tNwySWiIiIiKgFVWz/LwzXUmzwJBFo5FYyZq11VdCc2AI73/5Q9nuoQW2mT58OT09PbN682Wz6bnJyMt5//30MHz4cTz75ZK19Yhvi3Llz0qjulClTat1jypQpiI2NhVqtRmJiIuLj4zFw4MBGP6chCgsLsXjx4ha5NzVeqyaxV65cwfnz55GVlQWlUgk/Pz/07t3bbKF4XXJzc3HkyBFcu3YNXbt2RWhoKLy9vetsk52djfj4eOTm5sLX1xeDBw+Gh4dHg56XmpqKyMhIDB8+vMW+QYiIiIjo5mIszmntLjSKsSS7wbGCIOChhx7C7bffjjVr1uD06dPSNVEUcfDgQSQkJOCNN96wumesNTExMdKxpdFOZ2dn3HPPPfjjjz8AVK+Fbamf0Tt27Ijnn39eOi8rK0NiYiKioqJa5HlUt1ZJYvV6PX755ReL+zapVCpMnjwZDzzwQJ1D/lu3bsWvv/4KmUwGb29v7Nu3D0ajEZMmTcKkSZMstjl48CCWL18ODw8PuLi4ICYmBtu2bcM777wDX1/fOvus1Wrx9ddfo6KiAk8//XTjX5qIiIiIbknKfg9Bc2R9a3ejQQQ7FRS9rG+JY42Pjw/eeustxMfH48cff0Ru7t/rc0tLS/H5559jwYIFDR6sAqrXmwLViXLnzp0txvTv319KYjMzMxvd74ZydHRESEiI2WeDBg1CRUVFiz2TrGuVJPbnn39GZGSkxWsajQbr16+HWq22moz+/PPP+O233+Ds7Iy5c+fC398fxcXFmD9/PrZs2YKysjJMnz7drE1KSgpWrlwJQRDw7rvvwsfHB1999RUOHz6MZcuWYeHChXX2eePGjcjJycFrr70GV1fXJr03EREREd16HMe+DjvfftVTips43VfUVUF35g8YK4utxth1vR12fv2b2k0ICnsoQu6B3DOwyfcYOHAg+vXrhx07dmDLli3QarUAgOLiYnz//fd48803G3SfkpISaDQaANWFoawVY/L09JSOKysrUVxc3GyVhxsiKCgI167ZfoujW53Nk9jU1FT88ccfcHd3R0REBAYMGAAASEhIwLp161BeXg6geqR1wIABCAw0/yZKTk7Gb7/9BgCYNGkS/P39AQBubm6YOXMmPvroI0RHR+POO+9EcHCw1G7nzp3Q6XTo3r07fHx8AAAjR47E4cOHkZ6ejjNnziA0NNRin8+ePYvo6GiMGDECgwYNat4vCBERERHd3AQZlL3HAb3H3dBtjMNmoHzdLBjyLtW65nD3bNgPf+aG7t8YlZWVWL9+PWbNmlXrmp2dHR566CGEh4fjgw8+kH6+T0xMhMFgaNB+qWq1Wjo2GAwoKyuzOJDUoUMHCIIA8f9+OWDrvVjHjm38qDXdOJtvsfPXX39BJpNhzpw5GDVqFFxdXeHq6ooRI0Zg/vz50gbBRqMRp06dMmsriiJ+/PFHANXTjseMGWN2vW/fvujUqRMAYPPmzWbXLl2q/mb38vp7/6wuXbpIxxcuXLDY38rKSnz33Xdwd3fHU0891ZRXJiIiIiK6YTKnDnB5ciXkHc0r/jqMfsmmCSxQnWTu27dPSlAt8fX1xZw5c6RzrVaL9PT0Bt3f09PTLCG1Ntopk/2dzqhUKrNtdWxBEATu/9oKbJ7EnjlzBo888ojFcts+Pj548MEHpfPLly+bXb906RJSU6tLk/fo0cPib1p69uwJoHr0tCYxrayslOblOzo6SrGmFc6sfWOsXbsWBQUFePbZZ83aEhERERHZmuDkAZcnV0DuVV0kyWH0S7AfNrNV+iKKorRu1ZqQkBB07NhROm9okimXy80Kth45csRiXGlpqTQK27dv3wbdm9o/myex06ZNw6OPPmr1ek0SCqDWfHbTkVlr1c26desmHdeU5JbL5dJvaaz9psRSQhwfH48DBw5g7NixVqcaExERERHZkuDkAZeZ6+H6/NZWS2BrbN++HZWVlXXG1CSZLi4uZgmttbga99xzj3QcGxtbqyAsYD7oddddd5ldMx2lrVlfK4piredYo9frpWOj0foevQ1l+tzmuN+tzOZJbP/+/eucq256zTShBapHcWvcdtttFtvXrHcF/h5dValU0tRh0wpipaWl0nHNNGTTaytWrIC3tzemTZtmtb9ERERERLYm2KluqABTc7ly5Qrmz5+PwsJCi9djYmKQn58PABg/fnyt66ZrX02PgeoktqaacUlJCdauXVurfc0WN7169cLtt99uds20EnJ8fDy0Wi0WLFiAgwcPNuTVzHKF5qhCXJNIA5AKXlHT2DyJrU9aWpp0fH0Sazrl19qGyaZTfk3ja6YvZ2VlSZ/VrJMFqqcnm/r+++9RXl6O559/HiqVqjGvQERERER0y8jMzMR7772HtWvX4tixY8jLy0NqaipWr16NVatWAageyLo+iS0vLzcbpDp06JDZaKtCocC///1veHh4AAB27dqFtWvXIjMzE7m5ufjuu++QkJAALy8vPPfcc7VmXJrWv1m2bBlmzpwJURQxYsSIOt9HFEWcOnUK+/fvlz4rLCzErl27mpx86nQ6/PXXX9L5yZMnUVxsvdI01a1VttipS3JyMoDq8tzX7yNVVlYmHVtLYh0cHKTj/Px8iKIIQRAwceJEnDhxApmZmTh58iR69eqF6OhoAEBYWBh69+4ttYuNjcWxY8fw8MMP10puiYiIiIioepneP/7xD+Tm5uLkyZPYuXMndu7caRbj4OCAiIgIjBs3zizJ3LZtG3766SezKbYHDhxAbGwsXnzxRQwdOhQA4O/vjwULFmDJkiVITk42e4ZcLsewYcPw5JNPWqxcfN999+HMmTM4d+4cBEFAnz59MGPGjDoLMeXm5uK9996zWLDqhx9+wLp16zB69Oha23nW5eOPP8a5c+fMEvScnBy8+OKLcHFxwfLly1kcqpEEACJQew56a0hLS8PcuXMhl8uxaNEisym+arUaM2bMkM4XLFhgsThUbm4uXnvtNen8m2++kf5Rnz9/Hl988QV0Oh2USiVKS0vRt29fzJ49W4opLCzEm2++CU9PT/zvf/+rtSdVXl4eXF1dOTpLRERERLcsrVaLQ4cOYdSoUQCqc4n09HRkZWWhvLwcTk5O6Ny5M3x9fZvt52a1Wo2LFy8iLy8PHTp0QNeuXa0uMTSVn58PuVwOd3f3ZukHtZ6aZL9NjcSuX78eoiji0UcfrbVGtaZ8dU2ybW3DY9O55kD1NIQavXr1wjfffIOUlBRkZ2eja9euCAgIkL4Yoiji22+/hVarxQsvvGD2jMjISERHRyM/Px8KhQJhYWGYMWMGvxmIiIiI6JajVCqlBBao/lk9ICAAAQEBLfZMe3v7JlUg9vT0bIHeUGtqM2ti4+LikJiYiIEDB2LChAm1rqtUKrPf4uh0Oov3MU1i7ezszKYXA9XfYMHBwRg1ahQCAwPNhu53796NM2fOYNKkSfD395c+379/PzZs2ACZTIZ58+Zh3LhxiI+Px6effspF2URERERERDbUJpLY1NRUrFixAl26dMGLL75odU54zaJuwHqFMNMk1tq6WUuuXr2KDRs2oEePHnjooYekz4uLi/H9998DAO6//34EBwfjH//4B5ydnZGWlobNmzc3+BlERERERER0Y1o9iS0sLMRnn30GZ2dn/Oc//4G9vb3VWNMk1tJi65r71fD19W1QH4xGI5YvXw4AeP755832lEpNTZX2iKop/iSXy6XKyefPn2/QM4iIiIiIiOjGtWoSq1ar8emnn0Kv1+Ptt9+ud756v379pOPMzEyLMaZb6ISFhTWoH5GRkUhJScG0adPg7e1tds10Gx4nJyfp2MXFBQCQkZFhceNlIiIiIiIian6tlsSq1Wp88sknuHr1Kv7zn/+Y7eNUQxRFs71eR4wYAblcDgBITEy0eF/TJLZ///719iMjIwObN29GaGgoxo4dW+u66ciu6SixUqkEUL0213QjZCIiIiIiImo5rZLEVlZW4qOPPsLly5fxxhtvWNwqRxRFrF+/Hl9++aX0maurK8LDwwFUj5BWVVWZtdFqtdI+s+Hh4fVOJ9br9Vi+fDmUSiWeffZZi2txu3btKh2brsOtObazs4Obm1t9r0xERERERETNwOZb7JSXl2PhwoVIS0uDn58f4uPjER8fL103GAxQq9VITExEfn4+nnjiCbP2EREROHXqFPR6PbZt24apU6dK1/bu3YuqqirI5XJMmzat3r5s2bIF6enpeP75583W25rq1q2bdFxQUICOHTsCgDRC7OXlxc2JiYiIiIiIbMSmSWxpaSk++ugjZGRkAKhe12ptbSsAyGQy3HnnnWaf+fn54Z///CdWrVqFyMhIdO7cGaGhoYiLi8PPP/8MmUyG2bNn1zsKm5KSgu3bt2PQoEEYMWKE1bjAwED4+fkhMzMTR48eRUhICPLy8nDx4kUAwH333dfQ1yciIiIiIqIbZNMkNioqSkpgG6Jv374Wp+qOGTMG9vb2WL9+vVRVGKhOcJ988sl6N0HWaDRYvnw5nJ2dMXPmzDpjFQoF3njjDbz33nuIiopCRUUFMjIyIIoiwsLCMHr06Aa/DxEREREREd0YAYAIVK9BbW+0Wi3S0tJQXFwMHx8f+Pn5NWhqb1xcHLZv346IiAgMHDiwQc/Ky8vDoUOHcOrUKTg5OSEsLAxjx47lVGIiIiIiIiIbqMm92nUSS0RERERERLeGmiS2VfeJJSIiIiIiImoMJrFERERERETUbjCJJSIiIiIionaDSSwRERERERG1G0xiiYiIiIiIqN1gEktERERERETtBpNYIiIiIiIiajeYxBIREREREVG7wSSWiIiIiIiI2g0msURERERERNRuMIklIiIiIiKidoNJLBERERERUQsqLS1FQUGB1euiKCIrKwt6vd6GvWq/7Fq7A0REREREdHMoLy9HRkYGMjIykJ2dDZlMhoCAAAQGBsLX1xdyuby1u2gzoiji3Llz2LVrF06cOIE+ffrgrbfeMospLS3F3r17ERMTg7y8PMyfPx89evRotj5cvHgRR48exWOPPdZs92wLmMQSEREREdENqaysxKZNm7Bnzx6IoghBEODh4YGqqipER0cDAOzt7fHEE09g9OjRrdzblpednY1PP/0UV69etRqzceNG7Nixo0VHX7dt24bjx49j5MiR6NKlS4s9x9aYxBIRERERUZMdO3YMq1evRlFREdzc3PDMM8+gT58+UKlUEEUR165dw/bt2xETE4OVK1fi1KlT+Ne//gVnZ+fW7nqL8fT0xIwZM5CamoqffvrJYszQoUMxaNAgLFmyBHl5ec3eh7y8PJw4cQIAEB0djaeffrrZn9FauCaWiIiIiIiaJCYmBosXL0ZRURECAgLw4YcfYsCAAVCpVAAAQRDQqVMnPPPMM3juuecgCAKOHz+Ot956C+Xl5a3c+5ajVCrRt29fDB8+3GpMQEAAgoKC0KdPnxbpw65du2A0GgEABw8ehFqtbpHntAYmsURERERE1Gjnzp3DqlWrpPOZM2fC3d3davxdd92FwYMHAwAKCwuxdu3aFu9ja6tJ5m80prG0Wi327dsnnavVahw4cKDZn9NamMQSEREREbUzuqwVqDw+GqI6q1WebzQasWbNGmmkr3///ujevXu97R555BHpODY2FgkJCS3Wx7ZAJqs/3WpITGPFxcXVGunetWtXsz+ntTCJJSIiIiJqR0RdAdTnn4OhaD+qzj7RKn04cuQIsrL+TqAfffTRBrULCAhA//79pfPvv/8eoig2e/8ASOtxS0tL6401GAzIyckxa1tYWGg1vqqqCrm5uTAYDHXetyEJqiAI9cY0VlRUFORyOf79739Ln125cgWJiYlNup9Op0Nubi60Wm2j2hUVFaGoqKhJz6wLCzsREREREbUj2vTF0rGh5AhEdRYEe1+b9uH48ePSsVwub9AobI3evXvj1KlTAID8/Hzk5eUhMzMT27dvtxg/a9YsqbJuUlISNm3aZHZ9woQJZolxamoqNm7ciEuXLknrQN3c3DBmzBg88sgjZtv85OXlISYmBvv27UNJSQlWr16NQ4cOYevWrcjLy0PPnj0xd+5cyOVyVFZWIjIyEnv27EFZWRkAQKFQwN/fH/369cOkSZNaJCFtrPPnzyMjIwPDhg1DeHg4goKCcPHiRQDVBZ569+7doPuIooidO3fi4MGDyMzMhMFggCAI8Pf3x5QpUxAeHm6xXW5uLjZs2IALFy6gpKQEQPWU6ZEjR2LSpElwcXG54XdkEktERERE1NJEPURd/o3fRlcEXcZXf39g1EKT+l+oenx4w/eGzB6CnVuDQs+dOycdu7u7N2pKbIcOHczOMzMz0bNnTxQVFWHDhg1mieerr74KHx8fKTYwMBCPP/44Fi5cCLVajcceewxBQUHS9T///BMbN25EQEAAZs6cifLycuzevRtXrlzB5s2bcfbsWcydOxcymQyLFi3CqVOnzEaCT548iRUrVkifJScn4/Tp0+jduzcWLlyI1NRU+Pj4YMaMGTAajdi1axeSkpKQmpoKnU6HadOmNfjr0FJ27twJALj33nulv2uS2Pj4eBQWFsLDw6POe5SWlmLZsmU4c+YMBg0ahMmTJ6O4uBhbt25Feno6Fi1ahJkzZ+Kee+4xaxcbG4tVq1ZBLpcjIiICXl5eOHLkCPbv34/o6GgkJCTgww8/hKOj4w29I5NYIiIiIqIWZCjaj6rT0yBqc1vk/rrs1dBlr26We9l1fAgOYZsAmb3VGIPBII1EAtXbyTTG9UlsRkYGBg4ciDFjxkAmk2HlypUAACcnJwQHB5vFqlQqeHt7Q6PR4I477sD48eOlaxcuXMCPP/6ILl26YN68edKI6x133IH3338f+fn5SEpKQnR0NO677z6MHTsWY8aMwRdffAGdTgcAWL58OR555BEUFhYiLi4OKpUKgYGBiI2NRWpqKgAgIiICd9xxBwBgwIABeOmll1BeXo4dO3ZgypQpZiO9tpafn4/4+HgEBQVJyf0dd9yBdevWobS0FAaDAXv27EFERESd91mxYgXOnDmDYcOG4cUXX5Q+NxqNUjGvDRs2YNSoUdL7pqWlYfny5ZDJZPjggw/g61s9OyA0NBRnzpxBYWEhcnNzER0djQkTJtzQe3JNLBERERFRC1Kff77FEtjmps/bDl32mjpjysrKzEYvr09K63N9/JUrV6TjkSNHSqOEV65cMbtW4+DBgxBFEZMmTZI+E0VRqnY8btw4s0TSzc0Nd999t3ReU+Cof//+CA8PR9euXaVr/fr1w5QpU/Dcc89h2bJlWLp0Kdzc3MzWy3bq1Ek6Vuc1zEYAACAASURBVKlUCAgIAADo9fpW3zZo9+7dMBqN0igsANjZ2Zm9/969e+tcyxsfH4/4+HjY2dlh6tSpZteGDh0qjbprNBpUVVUBqE5uV65cCVEUMWrUKCmBBaqnmw8ZMkQ6b8ga5fpwJJaIiIiIqAWJOusFgtqi+vrr4OAAQRCkRLax+48qFAqzc9OppXK5HGPGjMHPP/8MoLpA0YwZM8zi9+zZg5CQELNEKTMzE5cuXQJQPSK4bt06szY114DqNZt6vR52dtWpkFKplK5Nnz5dOnZ1dZWOhwwZgsOHD6NTp05mSa/RaJTuA6DRhY+ak06nQ0xMDNzc3MySRgAYM2YMtm/fDqPRiOLiYhw9ehRDhw61eJ8dO3YAALp27VprlN3JyQnvvPMO4uLi0Lt3bzg7OwOoHgVPS0sDAAwcOLDWPSdMmAAXFxeUlpbigQceuOF3ZRJLRERERNSClP4vQ3PxvdbuRoMIig6w83mszhiVSgVPT0/k5eUBqJ7C2hjXV6v18/MzOx89ejR+/fVX6PV6xMbGYtq0aXBwcAAAJCYmIicnB5MnTzZrc/XqVenYYDDUGhH18vKCl5eXdG6axJqu53VycrLY56CgICxdulQ6z8/Px759+7Bv3746qxjbUs22OuPGjUNFRYXZNYVCgZCQEKk6cXR0tNUktmb02/TrZap37961ikOZVqo2Hamu4ezsbLa90o1iEktERERE1IKUgW9D7jYcxookAE3bTkaf9zv0+VF1Bwly2Hf/AFC4N+kZkNnDzvNeCErvekN9fX2lJLbm74YqKCgwO78+iXV1dcWQIUMQGxsLtVqNAwcOSNNjd+3aBTc3NwwePNisTU0SKwgCnnnmmVqjvXVpTEXhq1evYuvWrYiLi4OLiwvGjBmDpKQks0JXrSUqqvrfR3R0NKKjo+uMTU5ORkZGBvz9/c0+Ly8vlyoK6/X6Bj/bdNp3Y9o1FZNYIiIiIqIWJUDufhfk7nc1qbWoy4fmwpsNCDTAoMmCfeBbTXpOY/j6+uLkyZMAgMrKSlRVVUmjpfW5fuTSdFpwjXvvvRexsbEAqpOycePGoaSkBMePH8fDDz9cq3hSzchjzd6wNVvyNKedO3di48aN0Ol0GD9+PCIiIqBQKLB8+fJmf1ZjJSUlIT09HWFhYbjrLuv/zjZt2iSNnEdHR+OZZ54xu67RaKTjxvxywrTdtWvXav1iormxsBMRERERURumTf8SoqFhBYN0mcshamoXQ2puAwcONBvB/Ouvvxrc9vTp09Jx//79pXWVprp37y7tPZuTk4OzZ89i//79EEURo0ePrhVvOvU1Li6uzufv3bvXLOlqiF27dmHt2rXQ6XSYNWsWHnvssUaN9ra0mlHYiIgI3HnnnVb/jB07VmoTFxeHyspKs/t4eHhI75WRkVHnVPGEhARpv1/TKcQnTpyw2kYURfz444+Nf8HrMIklIiIiImrDRF3jpuuKuqL6g25QcHCwWcXb33//vc6KtzUyMzMRHx8PoHpt7fVFm0yNGzdOOt65cyf27NmD8PBwi9WQTfeS3bFjB4qLi60+f82auqsvW1JT7MjV1RWjRo2yGmc0Ght97xtVUFCA48ePIygoSEr8rbn77rulJFWj0WD//v1m1wVBkBJSo9Eo7Tl7PYPBgLVr10rv6+399xT02NhYqxWI4+LicP78+Ya9WB2YxBIRERERtWH2IcvgNPQUnIbE1/vH+a5MyJz72qRf06ZNkyr45uXlSdN/67J161apqvGUKVPq3GN2yJAh0v1PnjyJ/Px8s5FEUwEBAVKVY41Gg48++gi5uebbGlVUVGDp0qXo06cPVCqVxftYSsTLy8ulNbd6vb7Wmk/T0cyapK7mb9OtiEyPrWlIzPX++OMPGAwGjBkzpt5YZ2dnDBgwQDrfsWNHrXfu2/fvfz9RUVE4cuRIrT6uWbMGJSUlCAsLAwD07NlTqvKs0+nw+eef16panZWVhTVr1tSqnNwUXBNLRERERNSWCXLInENbuxe1ODk5YdasWViyZAm0Wi3Wr1+PDh06mCVBNfR6PVavXo3Dhw8DAAYNGoT77ruvzvsrFArcfffd+P333wFUj/aFhlr+Ojg6OmLSpEnS1jpZWVl49913MXjwYPj6+iIlJQUJCQnQaDS11oGaJqVXr15FYGCg2XUHBwfI5XIYDAZUVlYiMjISDz/8MMrKyrBu3TppZBkAsrOzERUVBR8fH9x7771miZy1rYgaEmNNXl4eYmJiIAgCwsPDG9QmPDxcSkzz8/OxZ88es1HviRMn4sCBA6isrITBYMDSpUtx9uxZ9OrVC1qtFnv27EFqaiomTZokVXh2c3PDgw8+iK1btwKo3nJn3rx5GDZsGLy9vZGSkoKoqCg4ODhg5MiRjXpHS+QA5gHAvHnzbvhmRERERER06+jcuTMGDx6MlJQUXLt2DXFxcTAYDFAqlXBxcUF+fj4SEhKwatUqxMfHQ6VS4amnnsLjjz/eoKrAPj4+iIqKgiiKmDBhAoKDg63GduvWDUlJSdI6Tp1Oh8uXL+P06dO4cuUK9Ho9Hn30UYwYMQJA9Yhiamoqtm3bJo1G6nQ6hIaGmu39KpPJcOnSJeTk5ACo3uYnKioKv//+OyoqKtC1a1fpmX/99ReKi4sxbdo0ODo6Yu/evdIa4IqKCoSHh8PNzU26d3l5OTZu3CiN5spkMoSHh5tt+2PN1atXsXTpUunZwcHB8PHxqfPrWlFRgSNHjiAlJUX6LDExEY6OjujYsSNUKhWUSiXc3d1x8uRJiKIIURSRlpaGo0ePIj4+HkVFRejTpw/+9a9/mT0rKCgICQkJ0lTukpISnD17FocPH8aFCxcgiiJef/31Gyr6NH/+fACAgP+r892UoWsiIiIiIiKDwYBff/0Vhw4dwrVr12rlFo6OjggODsYTTzyBzp07N+reixcvRkJCApYtW2Z1H1fTfmzevBnbt283W5+qVCrxz//f3r0HVV3nfxx/Hq5ej6IgaFyUFLUF1DWtVu1iWmk67YplTqlTbLmYW27T7GaNs042W3axWnMxbzmO4WaYFeQaubZa1pYysuElBURAbnIJucMBzu8PfufbOXKAY1h25PWYafqc7/f7Puf7Ld7wfZ/v57JwocOkUCtWrCArK6vNe5hMJh5//HFuuOEGY1tZWRlr1qwhOzvbOGbixIk89NBDFBUV8fzzz9PU1ERISAhPPvkkAwcOZPHixdTV1bV5/5CQEFavXs1HH33Eu+++2+a/lYeHB4899li767gC7N+/n02bNrXZ7u3tzSuvvEJAQECbfYWFhTz11FPt1n3e3t4O44VPnjzJ2rVrHcYXe3h4MGPGDObOneu0S7bFYmHLli0cPHjQ4XOGDBnCI488wsiRI9u9JlfYimYVsSIiIiIictnU1taSk5NDXl4eZrOZYcOGOcxee6kKCwspKChg/PjxLsc0NDSQnZ1NUVERgwcPZujQoe2Og3VVS0sLhYWFVFVVERYW5rCk0IULF6isrPzJl5b5uVmtVs6dO0d2drbx/7Jfv36dxlVXV5OZmUllZSWhoaGEhIS0WRbpx1ARKyIiIiIiIm7DVsRqdmIRERERERFxGypiRURERERExG2oiBURERERERG3oSJWRERERERE3IaKWBEREREREXEbKmJFRERERETEbaiIFREREREREbehIlZERERERETchopYERERERERcRsqYkVERERERMRtqIgVERERERERt+F1pU+gK4qLi/n66685f/48YWFhREVFERQU1GFMQUEBqampFBcXExwczMSJExkwYIBLn5eVlUVycjKTJ09m/Pjxl+MSRERERERE5BKYACuA1Wq9wqdyaXbv3s3777+Ph4cHQUFB5Ofn09LSQkxMDDExMU5jPv/8c+Lj4xkwYAB9+/YlJyeH/v3788wzzxAcHNzh5zU2NrJ8+XJqamp46aWXMJvNP8VliYiIiIiIiBMmkwlw0+7EO3fu5L333qNnz56sWrWK1atX8+abbxIYGMiuXbvYunVrm5iMjAw2bdqEyWTi2Wef5YUXXuDGG2+koqKCdevWdfqZO3bsoLCwkNjYWBWwIiIiIiIiV4jbFbGnTp3igw8+ACAmJobQ0FAA+vfvT2xsLAApKSmcPn3aIW7v3r1YLBbCw8MZPHgwALfccgsAOTk5pKent/uZx44dIyUlhSlTpjBhwoTLfk0iIiIiIiLiGrcqYq1WK9u3bwfA19eXadOmOeyPjIwkMDAQgMTERId9Z86cAWDQoEHGtmuuucZoX1z02tTW1rJhwwb8/PxYtGhR1y9CREREREREfjS3KmLPnDlDVlYWACNGjMDT07PNMSNHjgRan57aCtPa2lqKi4sB6NWrl3Fsnz59jPb58+edfua2bdsoKytj8eLFDrEiIiIiIiLy83OrIjYtLc1oDx8+3Okx4eHhRvvQoUMAeHp64uHReqm2wcAXc1YQp6amcvDgQaZPn05UVNSPPm8RERERERG5PNyqiLUft9qvXz+nx9jGu8IPT1d9fX2NrsM1NTXG/srKSqNt64Zsv2/jxo0EBQUxf/78rp+8iIiIiIiIdJlbFbH2XX7tuwLbs+/ya3/8tddeC8C5c+eMbbZxstDaPdne5s2bqa6uJi4uDl9f366duIiIiIiIiFwWblXEVlVVGe32itiePXsa7dLSUmP92zlz5mA2m8nLy+Po0aPU19eTkpICQHR0NNddd50R98UXX3D48GFmzZrVprgVERERERGRK8frSp+Aq+rr62lubjZet1fE2o9ttVgsVFVVYTab8ff354knnuD1119n7dq1+Pj4UFlZSWRkJEuWLDFiysvL2bp1K6GhocydO7fN+5eUlGA2m3/yp7PtzZYsIiIiIiLSnURERDi8dpsi1mQyYTKZjCerXl7OT72hocHhtbe3t9EePXo069evJyMjg4KCAsLCwhg6dKgx2ZPVauWtt96isbGRJUuWOHxGcnIyKSkplJaW4u3tTXR0NA8//DB+fn6X+1JVwIqIiIiIiPy/06dPOxSyblPE+vr64uvrS319PdD6lNUZ+yLWy8vLoXsxtBbDERERbap5gH379pGens68efMIDQ01th84cICEhAQGDRrEypUrOXz4MB9//DHl5eX89a9/xcfH53JcYhvOzlFEXGP7Mkh5JPLjKY9EukY5JNJ1zh7wudWY2AEDBhht+1mG7dkXse11OXamqKiIhIQERowYwezZs43tFRUVbN68GYAZM2YQERHB/fffT58+fcjOziYxMfFSL0NERERERER+JLctYqurq50eU15ebrSDg4Ndet+Wlhbi4+MBiIuLM9aUBcjKyqKpqQnAmPzJ09OTkSNHAnDy5MlLuAIRERERERHpCrcqYseMGWO08/LynB5jv4ROdHS0S++bnJxMRkYG8+fPJygoyGGf/TI8vXv3Ntp9+/YFIDc312HCKREREREREfnpuFURO2XKFGP24RMnTjg9xr6IHTt2bKfvmZubS2JiIlFRUUyfPr3Nfvsnuz169DDatnGwFouFyspK1y5AREREREREusStiliz2cy4ceOA1iekdXV1DvsbGxs5deoUAOPGjeu0O3FTUxPx8fH4+PiwePFiY5Zie2FhYUbbfhyure3l5UX//v1/3AWJiIiIiIjIJXGrIhbg3nvvxcvLi5aWFj766COHfZ999hl1dXV4enoyf/78Tt9r165d5OTksGjRIofxtvbCw8ONdllZmdE+f/48AIMGDXJa/IqIiIiIiMjl53ZFbEhICAsXLgRax7J+/vnnVFRU8PHHH5OQkICHhwdLly7t9ClsRkYGSUlJTJgwgSlTprR73LBhwwgJCQHgm2++AaCkpITMzEwA7rrrrstxWSIiIiIiIuICt1kn1t60adPo0aMH77zzjjGrMLQWuAsWLCAyMrLD+IaGBuLj4+nTpw+xsbEdHuvt7c1TTz3FihUr+OSTT6ipqSE3Nxer1Up0dDRTp069LNckIiIiIiIinXPLIhZg8uTJTJw4kezsbCoqKhg8eDAhISEude09cuQIPj4+PPDAA5jN5k6PDwgIYNWqVXz55ZekpaUxcOBAbrvtNqZPn66uxCIiIiIiIj8jty1ioXWGYNt6rZdi0qRJTJo06ZJiAgICuOeee7jnnnsu+fNERERERETk8jABVgCr1XqFT0VERERERETEOVsvWLeb2ElERERERES6LxWxIiIiIiIi4jZUxIqIiIiIiIjbUBErIiIiIiIibkNFrIiIiIiIiLgNFbEiIiIiIiLiNlTEioiIiIiIiNtQESsiIiIiIiJuQ0WsiIiIiIiIuA0VsSIiIiIiIuI2VMSKiIiIiIiI21ARKyIiIiIiIm5DRayIiIiIiIi4Da8rfQIiV1paWhpHjhzh97//fafHFhQUkJqaSnFxMcHBwUycOJEBAwa49DlZWVkkJyczefJkxo8f39XTFvlFqKmpoaioqN39Q4cOxdPT02Gb8ki6k5KSElJTUykqKsLHx4fQ0FCio6Mxm80uxRcXF/P1119z/vx5wsLCiIqKIigoqMMY5Zi4s8rKSj755BOGDx/OuHHjXIppaWnhm2++ITMzEw8PDyIjIxk1ahQ+Pj4/SWxDQwPHjh3j+PHjeHp6ct1117l8rgAJCQlcuHCBP/zhD5hMJpfj5AcmwApgtVqv8KmI/HysViupqans3r2b7OxsAN55550Of5F8/vnnxMfHM2DAAPr27UtOTg79+/fnmWeeITg4uMPPa2xsZPny5dTU1PDSSy+5fPMi8ku3fv16Dh486HSfr68v69ato1evXsY25ZF0J0lJSSQmJmKxWBy29+/fn6VLl3Ldddd1GL97927ef/99PDw8CAoKIj8/n5aWFmJiYoiJiXEaoxwTd/X999+TnJzM/v37aWhoYM6cOcydO7fTuJKSEl5++WXOnTuHv78/TU1NVFRUEBgYyNNPP01gYOBlja2vr2flypXk5uYyevRosrOzqa+v56677mLBggWdFqX/+c9/2LBhg8vXJ45s/33VnVi6nW+//Zann36aNWvWGAVsZzIyMti0aRMmk4lnn32WF154gRtvvJGKigrWrVvXafyOHTsoLCwkNjZWNwVy1Th//jyHDh1qd/+tt97qUMAqj6Q7SUlJYceOHVgsFgICAvD39zf2VVRU8PLLL1NaWtpu/M6dO3nvvffo2bMnq1atYvXq1bz55psEBgaya9cutm7d2iZGOSbuqL6+nrfffptly5bxr3/9i4aGBpdjS0pKeO655zh37hxTp07l9ddfZ926dTz44IMUFxezcuVKzp07d9lirVYr69atIzc3l0mTJrFixQqee+45APbu3cuRI0c6Pd9t27YxbNgwfve737l8ndKWiljpdpqampg9ezZPPvmky1049u7di8ViITw8nMGDBwNwyy23AJCTk0N6enq7sceOHSMlJYUpU6YwYcKErl+AyC/Ehx9+SEtLC1OmTOHmm29u88/dd9/tcLzySLqL8vJyEhISGDt2LK+++ipvvPEGf//733niiSfw9vYGWrsj7tu3z2n8qVOn+OCDDwCIiYkhNDQUaH2CGxsbC7QWyadPn3aIU46JOzKZTPj5+bF8+fJL6pILsHHjRsrKyhgwYAALFizAw8MDk8nEzJkziYiI4MKFC2zbtu2yxRYWFpKamgrApEmTAAgODmb48OEAfPzxx+2eq9Vq5a233qK5uZklS5a0GWojl0ZjYqXb+fWvf220g4KCKCws7DTmzJkzAAwaNMjYds011xjt06dPExUV1SautraWDRs24Ofnx6JFi7py2iK/KKWlpRw8eJCbbrqJuLg4l2KUR9Jd7Nmzh/DwcJYtW+Ywru6GG26gqKiId999F8Dp3x+r1cr27duB1i7506ZNc9gfGRlJYGAgxcXFJCYm8swzzxj7lGPijnx9ffntb38LtH4BdPToUZfijh49yrFjxwCYPn06vr6+Dvtvv/12Tp8+zbFjxzh9+jQRERFdjrXlGODQ1XjIkCFkZmaSlZVFc3Oz0wJ17969nDhxggceeMAhL+XH0ZNY6dZ69+7d6TG1tbUUFxcDOHSN7NOnj9E+f/6809ht27ZRVlbG4sWLHWJF3N2HH35Ic3OzcePRGeWRdCdz587l6aefdjoxzNixY432tdde22b/mTNnyMrKAmDEiBFOb4ZHjhwJYNxgg3JMrg6u3JfZfPrpp0Z79OjRbfbbb0tMTLwssfZFbM+ePY123759AWhubqa8vLzN++Xn5/PPf/6TUaNGMXPmTOcXJJdERax0a6505fD09MTDozVV2ut+7Ox9UlNTOXjwINOnT3f6zbeIuyorK+PAgQMAvPbaa2zfvp1jx47R1NTUbozySLqTHj16tDuzaVVVldF2NvtvWlqa0bZ1UbxYeHi40baNS1eOydXA1S62FouFEydOAK0/7/Y5YePv72+M7T527BiVlZVdjrUNB7DF2thPkHvxNTQ3N7N+/Xo8PT2Ji4vTbMSXiYpY6dZc+UXi6+trdPuoqakxttt+oQFtZq+rrKxk48aNBAUFMX/+/Mt0tiK/DElJSUbBWlhYyJ49e/jb3/7G8uXLOXv2rNMY5ZFIq+PHjwMwe/Zsp10K7cet9uvXz+l72Ma7wg9PV5VjcjVwtcD77rvvaGxsBFqf3np5OR8hab8clS1XuhJr33uitrbWaNu+nPL29sbPz8/hfT788EOysrJ48MEHCQgIcOn6pHMqYkVcYPulZT9LnX2XkhEjRjgcv3nzZqqrq4mLi2szzkLEnVksFlJTU53eaOTn57NixQqSkpKcxiqPpLtLS0tjz549TJo0ifvvv9/pMfZdfu27Atuz7/Jrf7xyTLqLkpISo91enoBjrthiuhJr/9Q2Ly/PaNvybPjw4Q5/H7Ozs9m9ezdjx45l6tSp7V+QXDIVsSIumDNnDmazmby8PI4ePUp9fT0pKSkAREdHO6z198UXX3D48GFmzZrV5oZBxN15e3uzdu1atm3bxmuvvUZsbCyjRo0y9jc3N7Njxw6na8cqj6S7qq6uZu/evaxZswaLxcLZs2eN7owXs+9u3N4Ntv1YvNLSUqMro3JMugv7HgYdFaL2uWIrRLsS6+/vz6xZs4DWXklWq5XU1FTy8/MBmDdvnhFjsVj4xz/+Qc+ePXn00Uddui5xnWYnFnGBv78/TzzxBK+//jpr167Fx8eHyspKIiMjWbJkiXFceXk5W7duJTQ01OkC1iUlJZjNZn3jLW7P09OTwMBAAgMDuf322zly5AhbtmyhoqICaJ0oJjIykgEDBhgxyiPpjpKSknjvvfccxozn5+fz4osvsnTpUm644QZje319Pc3Nzcbr9m6w7cfcWSwWqqqqMJvNyjHpNuy7zHdUiNrGiQPGusxdiQWYP38+paWlfP311yxbtoySkhJ8fX15+OGHHWZA3rlzJ/n5+fzxj3+kf//+Du9dW1tLXV0dAwcO7OgypQMqYkVcNHr0aNavX09GRgYFBQWEhYUxdOhQo9uIbf2vxsZGlixZ4jDGIjk5mZSUFEpLS/H29iY6OpqHH364zbgJEXd1/fXXM2TIEJ5//nkqKiqora3l4MGDbWYvVh5Jd3PbbbcRFhZGZmYmhw4dMpbVaW5u5q233iIyMtKYkdVkMmEymYwnq+2N1WtoaHB4bT/ZjHJMugP7ArOjyaBsY18BY7K1rsRCa54+/vjjVFZW8u2339KzZ09GjBhhTAQFreNu9+zZw0033cRNN91kbC8pKWHTpk2cOHGC5uZmgoKCmDlzZpultKRz6k4scglMJhMRERHceuutDBs2zGHcw759+0hPT3dYmB7gwIEDJCQk4OHhwcqVK7njjjtITU3llVdecfgFKeLuhgwZwuLFi43X2dnZTo9THkl30qdPH6Kjo5kzZw6rV68mJibG2FdfX+/Q9d7X19fh6afFYnH6nvZFrJeXl0O3R1COydXPftKzjmbGt88V2zI4XYm1ZzabmTx5MuPHj3coYOvr64mPj6dfv3489NBDDttfeeUV0tPTmTlzJitXrqS5uZktW7bw3//+t93zEOdUxIpcBkVFRSQkJDBixAhmz55tbK+oqGDz5s0AzJgxg4iICO6//3769OlDdnZ2m3XLRNzdmDFjjO5U9pPLuEJ5JFc7Ly8vYmJimDJlirHNNpbOxr4Lvn23R3v2N9cddYe8mHJMrhb2vQPayxNwXoh2JdYV27dvp6SkhEcffdQhP3fu3EleXh5ms5l58+YRERHBHXfcAcD69esdxsNL51TEinRRS0sL8fHxAMTFxTl0U8nKyjK+5bNNqOHp6WksVH/y5Mmf+WxFfnq2ReIvZayP8ki6E9uNK0BdXZ3DPvsitrq62ml8eXm50Q4ODnbpM5VjcjWx//vSXp6AY67YlqDqSmxn0tLS2L9/P1OnTmXs2LEO+2x5NHLkSCP/fvWrXwGtXZezsrJc+gxppSJWpIuSk5PJyMhg/vz5DmuKgePSBrYxT/DDN3q5ubkOk3iIXA169OgBtF3OoyPKI+lOhg4daoxjHTJkiMO+MWPGGG37JTzs2fdyiI6OdukzlWNyNRk2bJjxlLOkpIT6+vo2xzQ0NBgTMvXq1Yvhw4d3ObYj1dXVbNiwgYCAAB588EGHfRaLxchb+6ez9k947fNQOqciVqQLcnNzSUxMJCoqiunTp7fZb/8tnu3GHn6YIMBisThM9S5yNTh79iyAwyyNHVEeSXfj4eFhPImxH5cKMGXKFGOymfaW4bEvYi9+2uOMckyuNt7e3kyePBlonSTt1KlTbY7Jz883JkmLiooy8qorsR15++23uXDhAnFxcQ55BHDhwgXjiyD7ce/2bfs8lM6piJVuraWlxWnbFU1NTcTHx+Pj48PixYsdJs6wCQsLM9r24y5sbS8vrzbTrou4s8zMTA4fPsyYMWMcnii1R3kk3dHJkydpaGhg8ODBaTr3bwAABRBJREFUjBs3zmGf2Ww2tp05c6ZNd+PGxkbjpnvcuHGddidWjok7sRWO0Pl92S233GK0jx8/3mb/t99+C7ROdGY/Bryrsc589dVXfPXVV8yYMcNh7XSbgQMHGr0camtrje32+abldi6Niljp1uwH7V/q7Iu7du0iJyeHRYsWOYxhshceHm60y8rKjPb58+cBGDRokNMbCpFfqn//+9/Exsby7LPPkp6e7nDD8d133/HGG2/Qu3dvh1mKO6I8kqtRWloaGzduZN++fW3+tnz//fds3LgRk8nEokWLnC6jc++99+Ll5UVLSwsfffSRw77PPvuMuro6PD09mT9/fqfnohwTd3Ip92VhYWH85je/AVrz4sKFC8a++vp69u/fD8CNN97o8DPe1diLVVRU8Pbbb3PNNdcwb948p8eYTCbjfexzrLi42Ghf3M1fOqZ1YqXbyszMpKCgwHh94MAB7rzzTpf+UGdkZJCUlMSECRMcZpm82LBhwwgJCSEvL49vvvmGUaNGUVJSQmZmJgB33XVX1y9E5Gf0v//9j7q6OrKzs3nhhRfw8/MjKiqK0tJSTp48SVhYGI899phLT22UR3K12rBhAxUVFXz22WckJiZy2223ERoaSlFREXv37sXT05O//OUv7Y5nDQkJYeHChWzZsoXk5GSGDBlCVFQUhw4dYufOnXh4eLB06dJOn8Iqx8SdWCwWvvrqK+P10aNHmTVrVod/Tx566CHOnj1LQUEB8fHxLFy4kOrqat59911KS0uJiIjgkUceueyx9jZu3EhdXR3Lly93WLP5YjfffDPp6el89913VFZWYjab+fLLLwHw9/fn+uuv7/Sz5AcmwAqOj+9FrmbHjx9nzZo1bbpoQes4ifvuu4+777673fiGhgaWL19ObW0tL730ksPaYM6UlJSwYsUKqqqqmDx5Mrm5ueTk5BAdHc2f//xnhxkiRX7psrKyePXVV6moqHDYPnDgQKZOncrs2bOdPlm6mPJIrmbJycns2LGjzb2Vn58fkZGRLFiwwKWlcb744gveeecdh6dEISEhLFiwgMjIyA5jlWPiTl588UWOHz/eZgIxk8lE3759iY+Pb/chQ1VVFRs2bCA1NdXY5uXlxbRp07jvvvvajE+9XLHQ+hR348aNxMTEOKwB3Z6EhASSk5MJCAhg3LhxfPrpp/j4+LBs2TKXhuAIxs+BiliRS3To0CGSkpK49957GT9+vEsxJSUlfPnll6SlpdG7d2+io6OZPn26umeJW2pqauLMmTN8//33+Pj44O/vT3Bw8CX9PCuP5GpXVlZGfn4+NTU1+Pn5ERIS4jDzr6saGxvJzs6moqKCwYMHExIS4tLPvHJMupvi4mLOnTuHt7c34eHhl7SG8o+JtVqtrFq1il69evGnP/3JpcmfrFYrqampHD58mMLCQoYOHcqdd97p8hI+oiJWRERERERE3IitiFXfEBEREREREXEbKmJFRERERETEbaiIFREREREREbehIlZERERERETchopYERERERERcRsqYkVERERERMRtqIgVERERERERt6EiVkRERERERNyGilgRERERERFxGypiRURERERExG2oiBURERERERG3oSJWRERERERE3IaKWBEREREREXEbKmJFRERERETEbaiIFREREREREbehIlZERERERETchopYERERERERcRsmwHqlT0JERERERETEFab//7cKWREREREREfnF+z9oMA7aaHdhXwAAAABJRU5ErkJggg==;" parent="1" vertex="1">
          <mxGeometry y="247" width="400" height="184.98" as="geometry" />
        </mxCell>
        <mxCell id="zQihhSDClOiV8K8tjyNQ-11" value="" style="shape=image;verticalLabelPosition=bottom;labelBackgroundColor=default;verticalAlign=top;aspect=fixed;imageAspect=0;image=data:image/png,iVBORw0KGgoAAAANSUhEUgAAA7EAAAG8CAYAAAAIIiKuAAAACXBIWXMAAAsTAAALEwEAmpwYAAAgAElEQVR4nOzde3xU9Z0//tc5c8uNkAQIucwkkJCglgQo4u5aWLv7Faut9happY96WXXrD7f99qGtF7ysshfdxbbbtesDb2h1BS2CUI2tzXa/FhWLSiQVxEJuJJOE3AlJ5n7mnN8fZ+bMmWQmmSSTTCZ5PR+PPnJmzmU+425tXnl/Pu+PAJUCIiIiIiIiotlNEMAAS0REREREREnCGDxQFGZZIiIiIiIimp0EQQAAiAkeBxEREREREVHMGGKJiIiIiIgoaTDEEhERERERUdJgiCUiIiIiIqKkwRBLRERERERESYMhloiIiIiIiJIGQywRERERERElDYZYIiIiIiIiShrG6XhoXV0djh49iltvvTWm69vb2/HZZ5+hra0NZrMZNpsNF110ERYtWhTT/V1dXfjggw/Q3d2N4uJiVFRUIC8vb8x7Ojo6UFtbi66uLlitVlxyySXIycmJ6fMaGxtRXV2NDRs2YN26dTHdQ0RERERERFMnAFAAQFGUKT1IURTU1tbiwIEDaG5uBgDs3r0bgiBEvUeSJLz66qv4zW9+A7/fH3bOYrHg2muvxZe//OUxn3HgwAG89tprEEUReXl5aG9vhyzLqKqqQlVVVcR73n33XezcuRM5OTlYsGABWlpakJWVhfvuuw9Wq3XM7+n1erFt2zY4HA7s2LEDmZmZY15PREREREREUxfMhXGpxH7yySfYvXs37Hb7hO7bu3cvqqurI57zeDzYvXs33G531DC6d+9eHDx4EBkZGXjggQdQVFSEgYEBbN++Hfv378fQ0BBuuummsHvq6+vx7LPPQhAE3H///cjPz8fjjz+OI0eO4IknnsCjjz465phffvllnD17FnfccQcDLBERERER0QyLy5pYSZJwzTXX4M477xyzaqrX2NiIN998E9nZ2fje976HJ598Ek8++SS2bt2KjIwM7Tp9ZVfv1KlTOHjwIACgqqoKRUVFAICsrCzccsstAICamhqcPn067L633noLPp8PJSUlyM/PBwBcdtllAICWlhYcP3486phPnDiBmpoabNy4EevXr4/pexIREREREVH8xCXEfv7zn8eGDRtw8cUXj7sWNeiPf/wjRFHEnXfeiS9+8YvIzMxEZmYmNm7ciO3bt8NsNgMAZFlGXV1d2L2KouCll14CoE47vvzyy8POr1q1CkuXLgUA7Nu3L+xcU1MTACA3N1d7r7CwUDseGXqDnE4nnn76aWRnZ+PGG2+M6TsSERERERFRfMW9O3F6enpM1x0/fhxf+9rXUFpaOupcfn4+vvKVr2ivz5w5E3a+qakJjY2NAICysjIYDIZRz1i5ciUAtXoaDKZOpxNdXV0AgLS0NO1afeW3u7s74nhffPFF9PX14bbbbgu7l4iIiIiIiGZO3ENspEAZyZYtW/CNb3wj6vlgCAXUKcJ6+srsihUrIt5fUlKiHR8+fFgbmyiqXznatOdI46+trcU777yDTZs2oaKiIuqYiYiIiIiIaHrFPcTGuiZ2zZo1YwZe/Tl9oAUQtm514cKFEe8PrncFQtVVi8WiTR12OBza+cHBQe04OA1Zf+6ZZ55BXl4etmzZEnW8RERERERENP3iHmLjRd/MaWSI1U/51U8F1tNP+dVfH5y+3NbWpr0XXCcLqNOT9Xbt2oXh4WFs3boVFotlIl+BiIiIiIiI4mzWhthTp04BANatW4dFixaFnRsaGtKOo4XY1NRU7bi3t1fbB/eb3/wmMjMzYbfbcezYMbjdbtTU1AAAKisrcdFFF2n3vffee/joo49w9dVXjwq3RERERERENPPisk9svDU3N+Pjjz+G0WjEd7/73bBzbrcbfr9fex0txOqnI/t8PgwNDSEzMxOLFy/GD3/4Q/z85z/HL37xC5jNZgwODmLVqlW4/fbbtXv6+/vxy1/+EkVFRbj22mtHPb+npweZmZmszhIREREREc2gWRlid+/eDUVR8I1vfGPUGlVBECAIglZZNRojfwWPxxP22mQyaccXXnghnnzySdTX16OjowPFxcVYtmyZtp5XURQ89dRT8Hq9uP3228M+o7q6GjU1Nejt7YXJZEJlZSVuvvlmZGdnx+W7ExERERERUXSzbjrx4cOHcfLkSaxbtw5f//rXR523WCxh1U+fzxfxOfoQazQaw6YXA2oYLi8vxxe/+EUsX748rCHV73//exw/fhxVVVUoKirS3j906BD27NkDURTx8MMP44orrkBtbS1+8pOfwOv1Tvo7ExERERERUWxmVYhtbGzEM888g8LCQvzDP/xD1E7HOTk52rG+y7CePsRGm3IcSWdnJ/bs2YOysjJcc8012vsDAwPYtWsXAOCqq65CeXk5vv3tbyMjIwPNzc3Yt29fzJ9BREREREREkzNrQmx/fz9++tOfIiMjA/fccw9SUlKiXqsPscPDw1GfF2S1WmMagyzL2LlzJwBg69at2p6ygBqwJUkCAK35k8Fg0Donf/bZZzF9BhEREREREU3erAixbrcbP/nJTyBJErZt24bFixePef3q1au1Y7vdHvEa/RY6lZWVMY2juroa9fX12LJlC/Ly8sLO6bfhSU9P144XLFgAAGhtbQ1rOEVERERERETxl/AQ63a78e///u/o7OzEPffcg8LCwlHXKIoSttfrxo0bte7DJ0+ejPhcfYhds2bNuONobW3Fvn37UFFRgU2bNo06r6/s6qvEZrMZgLo2d3BwcNzPISIiIiIiosmLe4iVZTnicSROpxOPPPIIzpw5gx//+McoLS0ddY2iKNi9ezf+8z//U3svMzMTa9euBaBWSF0uV9g9Xq9X22d27dq1404nliQJO3fuhNlsxm233RZxLW5xcbF2rF+HGzw2Go3Iysoa83OIiIiIiIhoauK+xY6+oZLX6x3VFThoeHgYjz76KJqbm2Gz2VBbW4va2lrtvN/vh9vtxsmTJ9Hb2ztqv9jNmzejrq4OkiTh9ddfx3XXXaede/vtt+FyuWAwGLBly5Zxx7x//360tLRg69atYett9UpKSrTjvr4+LFmyBAC0CnFubm7URlREREREREQUH3ENsQ0NDejo6NBeHzp0CF/60pdGhbvBwUE88sgjaG1tBaCua422thUARFHEpZdeGvaezWbDDTfcgOeeew7V1dUoKChARUUFDh8+jL1790IURXz/+98ftwpbX1+PN954A+vXr8fGjRujXrd8+XLYbDbY7XZ8+OGHuOCCC9DT04OGhgYAwJVXXjnm5xAREREREdHUCQAUQJ22O1mffvopfvazn42a1gsAJpMJ3/rWt/CVr3xFe+/VV1/FgQMHYn5+ZWUl7r333ojn3nvvPezevRvnz5/X3rPZbLj++uuxatWqMZ/r8Xiwbds2OJ1O7NixA5mZmWNe39PTgwcffBBDQ0PYsGEDWltb0dLSgsrKStx9991h3YyJiIiIiIgofoLF0biE2ETzer1obm7GwMAA8vPzYbPZYprae/jwYbzxxhvYvHkz1q1bF9Nn9fT04P3330ddXR3S09NRWVmJTZs2cSoxERERERHRNJpTIZaIiIiIiIjmtmCI5fxXIiIiIiIiShoMsURERERERJQ0GGKJiIiIiIgoaTDEEhERERERUdJgiCUiIiIiIqKkwRBLRERERERESYMhloiIiIiIiJIGQywRERERERElDYZYIiIiIiIiShoMsURERERERJQ0GGKJiIiIiIgoaTDEEhERERERUdJgiCUiIiIiIqKkwRBLRERERERESYMhloiIiIiIiJIGQywRERERERElDYZYIiIiIiIiShoMsURERERERJQ0GGKJiIiIiIgoaTDEEhERERERUdJgiCUiIiIiIqKkwRBLRERERERESYMhloiIiIiIiJIGQywRERERERElDYZYIiIiIiIiShoMsURERERERJQ0GGKJiIiIiIgoaTDEEhERERERUdJgiCUiIiIiIqKkwRBLRERERERESYMhloiIiIiIiJIGQywRERERERElDYZYIiIiIiIiShoMsURERERERJQ0GGKJiIiIiIgoaTDEEhERERERUdIwTsdD6+rqcPToUdx6660x39PV1YUPPvgA3d3dKC4uRkVFBfLy8qbt3o6ODtTW1qKrqwtWqxWXXHIJcnJyYvq8xsZGVFdXY8OGDVi3bl1M9xAREREREdHUCQAUAFAUZUoPUhQFtbW1OHDgAJqbmwEAu3fvhiAI49574MABvPbaaxBFEXl5eWhvb4csy6iqqkJVVVXc73333Xexc+dO5OTkYMGCBWhpaUFWVhbuu+8+WK3WMT/P6/Vi27ZtcDgc2LFjBzIzM8f9fkRERERERDQ1wWwZl0rsJ598gt27d8Nut0/43r179+LgwYPIyMjAAw88gKKiIgwMDGD79u3Yv38/hoaGcNNNN8Xt3vr6ejz77LMQBAH3338/8vPz8fjjj+PIkSN44okn8Oijj4453pdffhlnz57FHXfcwQBLREREREQ0w+KyJlaSJFxzzTW48847Y6q8Bp06dQoHDx4EAFRVVaGoqAgAkJWVhVtuuQUAUFNTg9OnT8ft3rfeegs+nw8lJSXIz88HAFx22WUAgJaWFhw/fjzqeE+cOIGamhps3LgR69evj/l7EhERERERUXzEJcR+/vOfx4YNG3DxxRfHvI5VURS89NJLAACLxYLLL7887PyqVauwdOlSAMC+ffvidm9TUxMAIDc3V3uvsLBQO44UmAHA6XTi6aefRnZ2Nm688caYviMRERERERHFV9y7E6enp8d0XVNTExobGwEAZWVlMBgMo65ZuXIlALUCqg+Xk73X6XSiq6sLAJCWlqZdm5GRoR13d3dHHO+LL76Ivr4+3HbbbWH3EhERERER0cyJe4iNFCgjqaur045XrFgR8ZqSkhLt+PDhw1O+12AwQBTVrxxt2nOk8dfW1uKdd97Bpk2bUFFREfE+IiIiIiIimn5xD7GxronVrz1duHBhxGuCa1aB8ArpZO+1WCza1GGHw6GdHxwc1I6D05D155555hnk5eVhy5Yt0b8QERERERERTbtp2Sc2FvpQqp/Oq6eftqu/fir3lpaWwm63o62tTXsvuE4WUKcn6+3atQvDw8P40Y9+BIvFEvX7EBERERHR7DXs8mPzPx6L+frfPnbxNI6GpiLuldhYDQ0NacfRgmhqaqp23Nvbq+1lO5V7v/nNbyIzMxN2ux3Hjh2D2+1GTU0NAKCyshIXXXSRdt97772Hjz76CFdfffWocEtERERERMljIgGWZreEVGLdbjf8fr/2OloQ1a9P9fl8GBoagtlsnvS9mZmZWLx4MX74wx/i5z//OX7xi1/AbDZjcHAQq1atwu23367d09/fj1/+8pcoKirCtddeO+r5PT09yMzMZHWWiIiIiIhoBiUkxAqCAEEQtOqo0Rh5GB6PJ+y1yWSa0r1BF154IZ588knU19ejo6MDxcXFWLZsmbaeV1EUPPXUU/B6vbj99tvDPqO6uho1NTXo7e2FyWRCZWUlbr75ZmRnZ0/wnwIREREREU2VLCtwe2W4vDLcHj+cHhlurx8u3U+Xxz/+gyhpJCTEWiwWWCwWuN1uAGqlNBJ9EDUajdoU4ancGyQIAsrLy1FeXj7q3t///vc4fvw4rrvuOhQVFWnvHzp0CHv27EFubi4efvhhfPTRR3jzzTfR39+Phx56CGazOZavT0REREQ0LykK4PYGgqbHrwVPl1cNmsHA6fbKcHr8cHtkuLyhn8Hz+sDq9cmJ/lo0wxLW2CknJwcdHR0AwjsF6+mDqH7a8FTuHU9nZyf27NmDsrIyXHPNNdr7AwMD2LVrFwDgqquuQnl5OUpLS3Ho0CE0Nzdj3759+M53vhPz5xARERERzWbBwOnSB0ld4HR7ZTjd6s/g61DIDFZCg2FUfe1h4KQ4mBUhdnh4OOI1/f392rHVao3LvWORZRk7d+4EAGzdulXbUxYAGhsbIUkSAGjNnwwGA1auXIna2lp89tlnMX0GEREREVG8qYFTDlQ5g5XLYLUyPGC69VXPQDh1ekaGUfUn0WyUsBC7evVqnDhxAgBgt9sjXqPfBqeysjIu946luroa9fX1uOmmm5CXlxd2Tr8NT3p6una8YMECAEBrayv8fn9YQykiIiIiopH0gTO4blM/vTZalVM/vXbkek8GTppPEhZiN27ciFdeeQV+vx8nT56MeI0+iK5ZsyYu90bT2tqKffv2oaKiAps2bRp1Xl/ZTUlJ0Y6D62B9Ph8GBwfZ4ImIiIhoDlEUwOMLVS5HTq8dWcHUB89ojYbcXhmBHqU0BpNRQKrFgFSzAakWESkWEWkWA1KCr82iet5iQKpZDLxnQGpK+Os0i4gUiwHXPsgtduaKuIdYWZbDjqNVJjMzM7F27VocPXoUTU1NcLlcYc2XvF4vTp06BQBYu3Zt2JTgqdwbiSRJ2LlzJ8xmM2677TatS7FecXGxduxwOJCWlqYdA2rzqKysrDE/h4iIiIimjz5wjl3BDIbSCOs2vbLuWgbOWBkNghowLSJSzYZQ4Ay8HhkoU83qT/1rNZCq11vMIoyG0b+TEwHTEGL1DZW8Xu+orsB6mzdvRl1dHSRJwuuvv47rrrtOO/f222/D5XLBYDBgy5Ytcb13pP3796OlpQVbt25FTk5OxGtKSkq0476+PixZsgQA0N3dDQDIzc2NGH6JiIiI4uGqu45O6PrfPnbxNI0kPhQF8ErqOs1R6zYnUOV0jZhey8A5PqNB0KqXWoBMGfHaEgqearAMVT1TRr5m4KQZFtcQ29DQoDVcAtQtab70pS9FDXc2mw033HADnnvuOVRXV6OgoAAVFRU4fPgw9u7dC1EU8f3vfz9iJXUq9+rV19fjjTfewPr167Fx48ao1y1fvhw2mw12ux0ffvghLrjgAvT09KChoQEAcOWVV8byj4iIiIgo6SgK4JPkyOs2R2yD4hzROCjSdipOBs6YGURBDZGBsKhVK0eG0JGhU/d+yojX8zVw/vaxiyf8xyCanQQACgAoU/i3yKeffoqf/exncLlco86ZTCZ861vfwle+8pWo97/33nvYvXs3zp8/r71ns9lw/fXXY9WqVWN+9lTu9Xg82LZtG5xOJ3bs2IHMzMwxr+/p6cGDDz6IoaEhbNiwAa2trWhpaUFlZSXuvvvusG7GRERERPE00V++X3l4jRo0I1U0IzQIcrrHbjTEwDk+MRg4I02fjRYwzeKY03CNBgGc7EekChZH4xJi48Hr9aK5uRkDAwPIz8+HzWaLeXruZO89fPgw3njjDWzevBnr1q2L6bN6enrw/vvvo66uDunp6aisrMSmTZs4lZiIiIjGpCiAzy/D61Pg8cnw+mR4vDI8UuBY/55PgVcKf+/VP3Qm+ivMKYKAQFgMNQEKq25GWMM5eoqtAakpofBpMogMnETTaNaFWCIiIqKZpCiAX1YCoTEQFqURQTIYLgOB0uPVBU5JGf1e4Bnqe7qwGngGf92aHEFAbNNnddXMVN37kabhmowMnETJJhhiE7bFDhEREdFIkn9EcBwZJgM/Q8dKhPdGXqdEuZehcjoIAsIqlSPXY6aYRaSlhIJlSlgVNLR1ilYltYgwM3ASkQ5DLBEREUXll5VRYTFyaFQmHSSDz/f4ZMgyU+VM01czo02f1VczR67hHHneYmLgJKLpxRBLREQzQpYVfOWe2piune1bgyRScB/MyQXJ8SqX6tRa/VpMyc9QORsYDcKE/2/x/32taNwutilmBk4iSj5cE0tERDNiru1xGRTcesQ9Ikx6fSPfU//j9obWUoa/FyFM6tdoBtZeMlTODgZRgMUswmJSp7qaTQIsJjH0XuB99VhAinnke2LoPZMIi1FQfwaeETxWrxcgisKc/e8QUSIp7iHAaIZgtCR6KBQDroklIqI5aWQH2GhhUKtKRmzYMyJIjmrYowurkpzor0xQtzaxmNTApwXAYCjUHWthM+w9/XXCGOdCzzeILF8SJTup+QMMvXQbAGDh96shZlsTPCKKFUMsERHNSnv+p0PrAOv2hqqWwUDp1iqZSth7PnaAnRXU5j7hlUd99TFYedRXH0NVTTUsjn5P/wwh7NlGA0MlEcVOOvMhhl/5v9rroRdvxYIbnmWQTRIMsURENO3ODfkmfM9/13RMw0jmL0FAzNXH0dcJY56L9FyDKHCtJRHNStKZDzH88g+gSB6Iti4oLgvkXmDov2/Fght2QcwqTPQQaRxcE0tERHF1bsiHhnYn6tucaGhz4HSbE33nvYke1qwjCAirJGph0izCMqLyGKpICqOrmsYIYTPCM4wGhso5R/bD++f/B2PBRfylm+Y2RQZkPxRZAmQ/4JcCx1Lg2K8eB34q/sA5OXDOHzyWIHeehvv956HIEoScQRjKWwAAUt1KwG2GuDCPQXYWC66JZYglIqJJGxiW0NDmQH2bE/XtDtTbnehN4sAae/VxvLWXY99rNgkwGdgVlqZA9sPx6wfgPfFbAEDm1gMwLF6e4EFR4ihqyPPrg5xPOw6dC4W5UBj068KgFAqDft11sm9EGAwPhhh5Lvg5fmnE5wee5ZcAJXiPf0QgjTA2ZXp6Dxgq6iGkuwEAck825EZ1KrG4MD8QZAum5XNp8hhiiYhoQs47JNS3OdDQ5sTpwM+egekNrPqur9EqjMG1k6OrmlHCZtgzQudMRoZKShIjAiwAiOmLkHHDswyyUSmALEcNS1qQCgQ/RV/Vk/2B90eGsUBIU6QIYTAU5MLDYOA47DNHB7nwMBj8TN+oz1df+6Yt5M1l+ips4B1IdeWA2wwAMFpXY8HfvZCYwVFU7E5MRERRDToktboaqLI2tDnQPc2BdaTf7LiYoZJopAgBFgBkRx+GX7x1CkFWARQlvHrnH6OqFmVa5+hzPoSHQWnE8/yjj3XVQP1nwu8LD4rKiGpghM8PqxTS/GWSALMPgtkHWHwQLD4Iuf0jLlIgFnRDblKrsYalK2d+nBQzhlgionlu0CmhQRdY69sc6D4Xn8CalWHECms6yq1p2PP7sxO6lwGW5gdFDWdeFxSfC4rXBfhCx4rPBXjdgdcOeI+/CX93Q8QnyY4+DD39LYhLyiAYDFEDaNT1hETJyOCHkOILhVSzNxRWAz8hxDbjVFwyALk9F+bSq5F25T3TPHCaCoZYIqJ5ZMgZqrCqwdWJrnOeuDx7YboRZdZ0lNnSUFaYjhXWNCxeaNbC6ERDLNHsoUDxedRwGQybPhfgHRE2w4Jn6DotmEa5N55TQRW/D/7Ok3F7HlFUogGCaAREI2Aw6l4bAIMx7JwgGMKvMZjU60QjBDF4TnePaIBgMEIRJUAYAsRhAOehYADAOQDnoMjnALkXihKf/w0DAAgKTJ8zI/2qR9Xx0azFEEtENEcNOSWtS3B9m9p0KV6BNTPdiHKrGlTLrGkos6aHBVaiGafIEQKje3RgHFnl1IfLiFVQ9TmBFiJEsRNENZgZwoOZGt5MuuNAkNOHvrAwaBjxvj4MGrX7QmFQd04whn+O7njU2LTPNIV95siwqh6LUFvrTIHshuxug+Jug+yxQ3HbIbuDP9vUY2lAvXYGZ4Mrls8ge1ohpnJ9+WzGxk5ERHPAsMsf6hIc+NnZH6fAmmZUq6vWdJRZ07DCmo4lkwysV911NKbrfvvYxRN/OM1+shQ1ME6kyjn6XjcUKY7VGJoZgjgijEUKS4FgJhh0gWtEMNOFuVAYjFAN1J1T7zeNqh6GPy/K2MKeETzWVRYNRvW7CWKi/wknjuKD7OnQAqni1oVUTyCgensSPcqoTIW3IOWipxM9DIqA3YmJiJKUFljbnVqn4M6++AXWFdZQYC2zpmNJFius84cCRfKqoXBClcrIYXTUvVx3Oe0EQYCYWw4xPSdikAsLbZGqgRGCXFg4HFkNHBksBUN4oAybJmoID6fzOeQlM0WG4u0MVE0DgdRjD3/t7Uxgx2QBgiUPYooNgsWq/kyxQUyxQXY3w3P63hgeYUT6F05BTF027aOliWF3YiKiJOBw+QNTgkNV1rNxCqwL0oxaUA1OC87NssxYYFU8w/Cd+gNMK74AIS17Zj50LlDk0dNkx6xcuqOHT8k9Onhyq464EEwpgCkVgjkVgkn9D4LHgZ/689BdJ5hTo94LxY/hV/4vJHvd6M80WpDx7cdhXP4XCfjGNDcoUHx9WtU0OL1XX1GVPe3qtkIJIpgWB0KpVQunQooNoiXw2lIAiOYIdyoYfndZbB+iSPA2P4qUi56K59ApjliJJSKaJRxuNbA2tDlw2u5EQ7sDHb3xCawZqYaw6uoKaxqWZs9cYB1JcZ3H0Eu3wd/5ZwBA1o8PQUhdmJjBTAfZP/402Vga/kQMnpw2GxeCGCEwpowKmzBFD54Rz5tTIRgt01plVLwODO/5h7AgywBLsVCk8yMCqX4tqlpFhexO2PgE48LwgGqx6YKqFWKKFRBTJ/VsRRrC8NtZMV8vZlQg/a9G/7GIEovTiYmIEsjp9oc1XWpoc6K9Nz6/OKSnGnRNl9TgmsjAOtLIAAsAhrwLsOC7T81gkJ3AtibjTZONVAX1+2boe8xxojFqYJxIlXP0vSkQjGZMuTFNAo0Msgu++xQD7Dyn+J1q1TS45nREoyTFY4ciDSVsfIIhDUKEKb5aaLXYIBgXTOsY/IMfQ3Z8FtO1hqwvcDrxLMQQS0Q0Q5xuPxo7nGFNl9p74hdYy6zpKCtMQ5lN/bk0Z/YE1pEiBdig0UE2ebY1mc8Eo0UNhROpVEYJo6PuFbnqaSyK1wHPhy/DWPKXMBasSvRwaDrJHsie9vAqqrYWNdA4ydefuPGJ5tB0Xv00X0votWDKRjL/4YhmB4ZYIqJp4PL40djuxOk2p9YtuL3XjXj8KzY9xTCq6VLeLA6sI40VYDUGEwRLOuDzcFuTuBHU9ZkTqFRGX6+ZMjp4sjkP0dQoEhTP2dCU3ghTfBVvV+LGJxggWApCU3pHTfG1QTAt4cGz5owAACAASURBVL8LaEYwxBIRTZHLI6sVVnuwU7ADbT1xDKzB6qo1DSsK05G/KHkCq558vhO+pvfh+n+/gOI8l+jhzE6iYfxpsuOeT4l8rckCVj+IEkSRofi6wwOpPqB67FA8HQmdGSKY88IDqT6gWmwQLHmAwFkRNDuwOzER0QS4PDKaOsK7BMcrsKYFA6u2D2saChalJGVghSLD390AyX4MUusxSPY6yIOdiR5VfBjM40yTTYltmmyk9ZsGU6K/HRFNmALF1z/mFF/Z3QYoiVsjL5gWjTnFV7QURunkSzS7McQSEY3g9spoDGxr09DuxGl7/AJrqsUQmAqsVlfLbEkcWAEoPhf87Scg2evU4Nr2JygeR8LGM13bmgimFHVfSyKaNxRpMNDBt21EkyR9J19XwsYnGDPDt5YZUUUVLFYIhrSEjY9oOjHEEtG85vYGK6yhKqu92xW3wKpWWNOwwpqOcmsaChYnb2AFANnRB7+9TquySp2fAbI/bs8XTKkwlV8GIWPRrNvWhIjmENkVZYpvKLQq0mDixiemRpniGwqtgjEzceMjSjCGWCKaNzw+tcIarK42tDnRGrfAKqK0MNRwqcyahsIkD6yAAn/vmVCV1X4Mcr998o8TRBiWlEAeOAvFO7paKy7Mx4IbdkHMKpjCmIlo3pO94Z18PSO2mnHbofj6Ejc+waSb3msNTO+1hU37FUw54Fp2ougYYoloTvL4wiusDW1OtHTFMbAWhLa0WWFNh3VJsgdWAH4vpLN/1gKrZK+D4hyY9OMEUyoM1koYbWthLFoLY+EqCOZ0yAMdGHrxFsjnz2rXMsASUUwUv9rJ1xOlUZLWyTdBDUsFEYI5P0IVtUjXyTeXs0aIpojdiYko6Xl9Mpo6XKhvd6De7kR9uwOtXW7I8tT/vZZiFlFaGL6tTeFiC0Qx2RMroLgHIdn/pFVa/R2fQpE8k36emLFYDau2NTDa1sKwdGXUdaRqkL0Z8vlOiAvzsOCG5xhgieY9BYo3QidffWD1dABK/JYwTJRgzo261Yw61beAnXyJphG32CGipOT1yWg+68LpQHW1vs2BljgFVotJ1PZhXVGYhnLb3AmsgAJ54Gyoa3BbHfzdDVN6omFJiVplDVRa1RAa+z8rebAT3k+qYa68GmJm3pTGQkSznQLFd27MKb6ypw2QvQkboWDKDu/cO2q7GSsgWhI2PiJiiCWiJOCV1MBab1cbLjW0O3Gm0xW3wFoaaLoUrLJal6TMkcAKQPbD33UaUluoCZM81D355xlMMBasClVarashpC6M33iJKKkp0tCIrWV003yDjZL8zoSNTzBkRNxqJmwdqiE9YeMjothwn1gimlW8kowzZ11hXYJbOl3wxyGwmk0iVhSmadXVFdY02OZSYAWgeJ3wtx/X1rJKbZ9A8U7+F0YhdaE2LdhYtBbG/AsBA/cSJJpNZGc9XB9fCWP+DbCUPjSNH+SOMsVX1yhJOj99nz8eMSUQREdO8dUFVONCsFES0dzBSiwRzTifpKD5rDNQXXXgtD2+gbW0IFRhXWFNgy03BYY5FFgBQB7uDUwNDqxn7fwzoMiTfp6YbYOxaA2MVjW0GhYVs/EI0SznqvsqpJ43AQAZl7VDME9iWr7ig+xuj7IfarCTb2+cRz4BghGipTA8kGqV1ECjJPNiMKASzQ+sxBLRjPBJCs50BrsEB9awdrog+eMQWI0iSgpTUR4Iq2WF6bAtnXuBFYoc2OrmmNaEST7XNvnnCSIMeRcEpgar04PFjMXxGy8RTTvZcRJSz2+0194zj8FS/tPwixQ/FG8XZHfr6E6+nmCjpE4krJMvBAiWEZ18Lbbw1+algBC5QRwRzV8MsUQUN5JfQfNZFxraHKhvd6Le7sCZOAfWskI1sJZb52hgBaBIHvjPfqZrwvQnKK7JT9UTzGkwWler04OL1sJQWAHBlBrHERPRTPM0/Qv04dPb+l+A7IXi69c1SmoHFClhYxTMS8IrpiOm+KqdfE0JGx8RJS9OJyaiSZH8Cs50qoH1dJsTDW0ONJ+NT2A1GQWUFIRva2PLTYHRMPcCKwAorvOBCqtaZZU6PgX8vkk/T1yQG1ZlNeSWRd3qhohmMUWG4j0L2dkE2dUE2dUIxdkI2XES/qFPEjo0wZg1ulFSii2wJtUKMcUKiCkJHSMRzT2cTkxEMZP8Clo6w5suNZ91xi+w5qep1VWburVN0dLUORtYAQXyufbA1GB1erC/p2kKzxNgyF2hBVZj0VqIC/PA9WFESUL2QHad0YVU9WcwuEJ2z/iQBEN6+BpUS4RGSYaMGR8XEVHQrAixXq8Xx44dQ0dHB/r6+pCdnY2CggKsW7cOZvP43TC7urrwwQcfoLu7G8XFxaioqEBe3tjNDTo6OlBbW4uuri5YrVZccsklyMnJiWm8jY2NqK6uxoYNG7Bu3bqY7iFKFpJfQWuXC6ftatOl+jYnmjriE1iNhmCFNVRlnduBFYGtbk6FNWGShyffJEUwWmAYudVNyoI4DpiI4k3xnVMDqqsZsrMxEFIbIbuaoLjbMKNrUkULRIs1tOZ0ZCdfiw2CKQv8QxgRzWYJn05cV1eH559/Hj09PSgpKUFeXh66urrQ2NiIxYsX4+/+7u+wdu3aqPcfOHAAr732GkRRRF5eHtrb2yHLMqqqqlBVVRXxnnfffRc7d+5ETk4OFixYgJaWFmRlZeG+++6D1Wodc7xerxfbtm2Dw+HAjh07kJmZOaXvT5RIwcAarLA2tDnRdNYJnxSfwLo8Pw3ltjSsKFQDa3HeHA+sABSvA1JbaKsbf9snUHyuST9PSMsKq7Ia8y4EDFxDRjSrKDIUT7taTQ2GVFeTVlVVfOdmcDACDJkXQ0griTDF1wbBvAQMqESUrILTiRMaYpubm/HQQw9BlmX84Ac/wF/8xV9o595//33813/9F0wmE/7xH/8RpaWlo+7fu3cvDh48iIyMDDzwwAMoKirCwMAAtm/fjq6uLlxxxRW46aabwu6pr6/Hv/zLv0CSJPzkJz9Bfn4+Hn/8cRw5cgTFxcV49NFHxxzzCy+8gN/97ne44447sH79+rj8cyCaCX5ZQWuXW5sOXN/mQFNHfAOrWmFVq6zzIbACgDzUra5lbVWnB/u7Tk9tq5ucovD1rIuKwV84iWYB2QXZ1axN81V0YVV2NQOyN9Ej1JiLfgjLyp8lehhERHE3K9bEPv/885AkCVdccUVYgAWASy+9FH/84x9RW1uLX/3qV7jvvvvCzp86dQoHDx4EAFRVVaGoqAgAkJWVhVtuuQWPPPIIampqcOmll6K8vFy776233oLP50NpaSny8/MBAJdddhmOHDmClpYWHD9+HBUVFRHHe+LECdTU1GDjxo0MsDSr6QNrQ5sTp9scaO5wwStNPlwFqYE1FSus6SgrTEOZLR3L5klghSLD39MUtp5VHuiY/PNEA4z5F6lVVttaGGyrIaYvit94iWgCFCi+vgghVZ0CrHjaZ2YYohli6nKIqSUQU0shpJWqx2kl8DQ+DKlr/7iP8LY9BfOyuyBY8mdgwEREMy9hIdbn86G5uRkAsHhx5P0Ji4uLUVtbi/r6+rD3FUXBSy+9BACwWCy4/PLLw86vWrUKS5cuRVdXF/bt2xcWgJua1AYqubm52nuFhYXa8enTpyOGWKfTiaeffhrZ2dm48cYbJ/JViaaVX1Zg73Kjvj0UWJs6XPD64hNYl+WpgbXcmoYVVjWwmozzILAisNVNx4lQpbXtT1DcQ5N+nmBJh9G6RlvPaihYBcHE7p1EM0bxq3ujatN+Q02UFFcjFGlwRoYhmLIDAbVEC6tiIKwKloKI+6LKztMxBVj1Yje8Lf8BS/mOOI+ciGh2SFiIdTgc8Pv9ANQK59VXXz3qmq6uLgCjQ25TUxMaGxsBAGVlZTAYRv/LfuXKlejq6sKJEydw+vRplJeXw+l0as9MS0vTrs3ICHXY6+7ujjjeF198EX19fbj33nvD7iWaSX5Zgb3bjQZdl+DGDmdcAqtBFLAsPzWs6dKyvLR5E1gBQHEOhLa5sR+D1HESkCe/x6K4MC8wLTi41c0KQBDjOGIiGknxO9SQqmuipGiBtQVQJr99VewEdf1p6vJAOFVDqpC6XA2vpuyJP3Kiy74M/F2FiOauhIXYrKws5Ofn4+zZs/jkk09w6NAhXHbZZdp5SZLw2WefAVCnFuvV1dVpxytWrIj4/JKSErzzzjsAgMOHD6O8vBwGgwGiKEKWZW0+9UiRAnFtbS3eeecdXHHFFVGnGhPFmywrsPeogfW03YGGdica253wxCmwFuelhjVdWpafCrNxPgUsBXK/PRRaW4/B33dmCs8TYFhapgbWQKVVzBy7SzoRTYYCxdsTVkFVw2pg2q+3c2aGIaZo03xDVdXA1N/UZYBoie/Hpa/Egv8zDMXviOFqw+SCMhFRkkjomtjVq1fj7NmzAIDnnnsORqMRX/jCFwAAL730Evr7+7F48WL8zd/8Tdh9x48f144XLlwY8dnB9a5AqLpqsVhQWFgIu90OhyP0PwKDg6HpQ0uXLg17zuDgIJ555hnk5eVhy5Ytk/maROOSZQVtPe6wfVjjHVjDKqzzLrACkCVInX8ONGBSg6vi6J/04wSjBQZrpbae1WithGDhvolEcaH4ILtbAyFV1/E38FrxD8/IMATT4kAldXlgbWpofapgzp/5mRViKgQxdWY/k4hoFkpoiP3617+Oo0ePore3Fz6fD0888QTa2togyzJqamqQn5+Pe+65B1lZWWH36af86qcC6+mn/OqvLy0thd1uR1tbm/ZecJ0soE5P1tu1axeGh4fxox/9CBZLfP+qSsnF65Pxtfs+juna3z52cdRzsqygvdejVVfr2xxobHfC7Z16YBXFwBrWwkCXYFs6ls/HwApA8QxDavskVGVtPw5F8kz6eUJ6TliV1Zh3ASDOiq22iZKSIg0Fpv02he2dqriaIbtbAMU//YMQRIgpRRBSS0LTfoMhNbUEgjHyH8qJiCixEvobWGZmJu666y7827/9G86dU/dQ+/Wvfw0A2LBhA2655ZaIwXFoKNRYJVqITU0N/aWyt7cXiqJAEAR885vfxMcffwy73Y5jx47hwgsvRE1NDQCgsrISF110kXbfe++9h48++ghf/epXR4Vbmn9iDbAAcNVdR/Hbxy6GoiBQYVWrqw1tanCNV2AtXpqiVVfLrIHAapp/gRUA5MHOsCqrv6segR3EJsWweHmoympbCzHHCm51QzQRChRPp1ZBlV3Bqb+BvVO9PTMyCsGQBiG1NDDtd0TH39RiQOC+y0REySbhZQSbzYbt27fj7rvvhtvt1t5vbW3F0NDQqBDrdru1hlBA9BCrX9vq8/kwNDSEzMxMLF68GD/84Q/x85//HL/4xS9gNpsxODiIVatW4fbbb9fu6e/vxy9/+UsUFRXh2muvHfX8np4eZGZmsjpLUd218xQa2x1weeITWIuWpqCsMB1ltjSUFaajpGD+BlYoMvzdDWFNmOTzU1gHJxphLLhI14RpNYQ0ricjGpfshew+E5r2q61PbYLsbAJk14wMQzAv1VVQQ51+1Wm/S8E/QBERzS0JD7GA2njJ4/FAEAQoge57ra2teOCBB7Bt2zYUFxdr1wqCEHad0Rj5K3g84dMGTabQX1ovvPBCPPnkk6ivr0dHRweKi4uxbNkyrdmToih46qmn4PV6cfvtt4d9RnV1NWpqatDb2wuTyYTKykrcfPPNyM7mL7wU7kTT5LZiEQSgeGkqyqzpWGFVpwWXFKTBMl8DKwDF5x6x1U0dFE8szU0iE1IWBKqsgf1ZCz4Hwcg/SBFFokjnA9N8w0Oq4myC7LEDytT/UDcuwQgxpThySE0tgWDgenQiovkk4SH2hRdewO9+9zsUFxfjwQcfxO7du/H2228DUJsqPfroo9i+fbvWcMliscBisWhVW58vcqt8fYg1Go1h04sBNQyXl5ejvLx81L2///3vcfz4cVx33XUoKirS3j906BD27NmD3NxcPPzww/joo4/w5ptvor+/Hw899BDMZvPU/mHQvBMMrCt0TZfme2AFAMXRr6uy1kE6exKQJ78+TswqCK1nta6BYUkJt7ohClJkKJ6OsGm/6rY0gZ++yTdAmwjBuEANqLqOv+q2NCUQU2yAkPBfWYiIaJZI6P8i/M///A9+97vfIS0tDXfeeSfS0tLw93//91i6dCleeeUVAGqQff7553Hvvfdq9+Xk5KCjowMAwroM6+lDbLQpx5F0dnZiz549KCsrwzXXXKO9PzAwgF27dgEArrrqKpSXl6O0tBSHDh1Cc3Mz9u3bh+985zuxf3madwQBKModHVhTzPM9TCnw97VoFVap9Rjk/tbJP04QYchbCaN1TWirmwW58RsuUTKS3ZBdZ7QmSmHb0riaAdk9/jPiQLDkB8Kpfm1qYO9U82Jw2i8REcUiYSHW7Xbj1VdfBaButbNkyRLt3Fe/+lX4fD7s378fAPDJJ5/AbrfDZrMBCA+xw8OR2+z394f+cmy1WmMakyzL2LlzJwBg69atEMVQuGhsbIQkSQCgNX8yGAxYuXIlamtrtT1tiYKKloZva8PAGuD3Qer8LNCESa20Ks6BST9OMKUGtroJdA22VkAwp8dxwETJQfH1h1VQg+tSZVcjFHc7ptLoLGaCSQ2lwZCqdf0tgZC6HIIhbfxnEBERjSNhIbapqUkLoJE6/1ZVVaG9vR1HjhwBAJw5c0YLsatXr8aJEycAAHa7PeLz9VvoVFZWxjSm6upq1NfX46abbkJeXt6o8Qalp4d+QV6wYAEAdQ2v3+8PayhF89tTP/5coocwKyjuIUhtf9LWs/o7TkxpqxsxY3FganBgPevSlYDI/97RPKD4IXvaAiE1tC2NEgirijT5PwZNhGDMCkzzXa5N+VWrqiUQLYWAwP8+EhHR9EpYiNVvk7No0aKI1/zt3/6tFmKDVVAA2LhxI1555RX4/X6cPHky4r36ELtmzZpxx9Pa2op9+/ahoqICmzZtGnVeX9lNSUnRjoPrYH0+HwYHB9ngieY5BfL5zrAqq7+7AVPa6mZJSajKalsLMbsQnHJIc5Xid6r7pEYIqbL7DCB7Z2AUAoSUwrBpv2JqiRpSU0shmHJmYAxERETRJSzEBquqgLoONZJly5ZFPM7MzMTatWtx9OhRNDU1weVyhTVu8nq9OHXqFABg7dq1404nliQJO3fuhNlsxm233aZ1KdbTd0h2OBxIS0vTjgG1eVRWVtaYn0M05ygy/F2nQ02YWo9BHuqe/PMMJhgLPqdrwrQaQurC+I2XKOEUKN5erYlSqONvYNqv5+zMDEO06Boojej4m7oMEFPGfQQREVGiJCzE5ufno6ysDPX19aipqcEVV1wxas/VP/3pTwDUAKnvEgwAmzdvRl1dHSRJwuuvv47rrrtOO/f222/D5XLBYDBgy5Yt445l//79aGlpwdatW5GTE/kvzCUlJdpxX1+ftoa3u1v9hT03Nzdi+CWaSxSfC/7244FKax2ktk+geKew1U3qQq3CarStgSH/Qm51Q8lPkSC7W9WKaqCaGmyipLgaoUiT235rogTTorAKaiiklkCwFLBDNxERJa2EhVhBEPC9730P//zP/4y+vj489thj2Lp1qza1+IMPPsDzzz+PlJQU/OAHPxi11tRms+GGG27Ac889h+rqahQUFKCiogKHDx/G3r17IYoivv/9749bha2vr8cbb7yB9evXY+PGjVGvW758OWw2G+x2Oz788ENccMEF6OnpQUNDAwDgyiuvnOI/EaLZRx7uDauy+jv/PKU9IcVsWyi0Fq2FYVExf5GmpKT4h0PTfLWqaqCi6m4BFGn8h0yVIEK02EaF1GAzJcHIWQxERDQ3CQgsVlOUGehaGMHg4CCeeeYZfPzxx1AUBYsXL4bT6YTT6cT69etx/fXXY/HixVHvf++997B7926cP39ee89ms+H666/HqlWrxvxsj8eDbdu2wel0YseOHcjMzBzz+p6eHjz44IMYGhrChg0b0NraipaWFlRWVuLuu+8O62ZMc9NVdx2N6brfPnbxNI9kOijw954JbHVzDFJrHeRzkRunxUQQYci7QNvmxmhbCzEj+n+XiWYXBYq3K7QNjbYtjdpUSfF2zcwwxNRQBTVsW5oSiCnFgMj9yYmIaP4IznxNeIgN8ng8aGtrQ29vLxYtWoSCggJt3el4vF4vmpubMTAwgPz8fNhstpim9h4+fBhvvPEGNm/ejHXr1sX0WT09PXj//fdRV1eH9PR0VFZWYtOmTZxKTMnH74V0dsRWN67z498XhWBOgzG41U3RWhgKVkEwczsNmsUUH2RXixpKg9N+g51+XU1Q/JOfKj8RgjlXC6mhtamBvVMteWAjMyIiItWsC7FENL0U1/mwrW6kjk8B/+Q7nYoLlsBY9HmtymrILeNWNzQhircbvo4XYCq8GYIpcpf6KX+GNBhWQQ2uT1VcTZDdrVOaHh8zwQAxpTgUUsP2Ti2BYFww/WMgIiKaAxhiieY0BfK59tB6Vnsd/D2NU3ieAEPuirAmTGJWPlghoqlwffxlSH2/A8QULPg/k6x6KjIU79mwkKpWVQMVVV9vfAcdhWDICEzzDe2dqlZVl0NMKQIE04yMg4iIaC4LhtiENXYiojiS/fB3nQrf6mZ48r+8C0YLDAWrQutZrZUQUsZeM040EbLjz2qABQDZDdnxZ4jpF0S52APZdUYXUvXb0jQBsntGxiyY83TrU3UhNbUUgnkJ+EcdIiKimcEQS5SEFK8DUvsJbT2rv+0TKD7XpJ8npGXpqqxrYcy/ADCwYQxNH2/zv4a/bnwIpmV3RdiWpgmKuw2BSUPTSzBBTF0WcVsaIXU5BEP69I+BiIiIxsXpxERJQB7q0aYFS/Zj8HeemtpWNzlFapXVuia01Q2rSDRDZMef4fhjxcysRx1BMC4MVFGX60Jq4HWKDRC4rpuIiGi24nRiotlKkeHvbdamBUv2OsgD7ZN/nmiAMe/CwNTgtTDYVkNMn54mOkTjUXy9cH+yeVoDrGApHDHttyR0bMoB/2BDRESU3BhiiRJMkTzwd3yqa8L0JyjuwUk/T7CkqxVW25rQVjemlDiOmGjiFF8/vC0/g6/lP6HIzqk9TLQEGiiVBKb+lgaqqiUQU5cBYmpcxkxERESzE0Ms0ST56t+B59hrSLviLohZhTHfpzgHILXVaVVW6exJwO+b9DjEzDytymq0rYEhdwUgiJN+HlE8Kb5z8Lb+B3ytj0ORhmK+TzDlhK9N1UJqCQRLIf9/nIiIaB7jmliiSfB++hYcr92rvV545/9GmaKrQO5v01VZj8Hf2zyFTxZgWFoW1oRJXJg3hecRTQ9FGoC35T/ha/05FGkCMwsEAWmX/BGGzPXTNzgiIiJKStwnlmiSvJ++BceB+8LW9BkWL0fGDc9CTF0IqfOUGlbtarVVdvRN+rMEowWGwopQpdVaCcGSEY+vQTQtFGkQvtbH4W35DyjSwKSeYcr/DlJW/XecR0ZERETJjiGWaBIiBdggwZQCBQrg80z6+UJ6jjYt2Fi0Fsa8CwCRs/5p9lOkIfjs/wVvy0+h+M5N+Xnpl34afd9YIiIimpfYnZhogsYKsACg+NwTfqZh0bKw9axijg3snErJRPEPw2d/At4zP4XiG2PWgWgGZG/Mz5V6fwMzQywRERFFwBBLFAPf6UNha2AnRTTCWHCRtpbVaFsNIS07PgMkmmGK3wGffSe8Zx6D4uuNep1gSIPJ9g8wFdwMqed1KH7HuM8WDOkwFdwYz+ESERHRHMIQSxQD3+lDE75HsGSEpgXb1qhb3Rgt0zA6opmj+J3wtT0F75kdULzd0S8UU2G2bYV52V0QzLkAAHP6j2dolERERDSXcU0sUQzkoW4MvXgr5P7Wca81Lf9LpF7xIxiWlHIbEJo7ZBe8bc/A2/zvULyd0a8TU2C23gbz8rshmNk5m4iIiOKHjZ2IJiiWIJvylzcgddMd4LpWmjNkN7ztu+BtfhSK52z060QLzNbvwbzsHgiW/JkbHxEREc0bDLFEkzBWkGWApTlF9sDX8Tw8TY9A8bRHv040w1R4KyzL74VgKZy58REREdG8wxBLNEmRgiwDLM0Zshe+jhfgaf5XKG579OsEE0yFN8OyfBuEFNvMjY+IiIjmLYZYoinQB1kGWJoTFB98HS/C2/SvkN0t0a8TjDAV3ARzyX0QU4pnbnxEREQ07zHEEk2R4nHA39MIo7UCDLCUtBQJvrMvwdv0L5BdzdGvEwwwFdwA8/L7IaYun7nxEREREQUwxBIRzWeKBF/ny/A2/jNkV2P06wQRpvzvwlzyAMTU0pkbHxEREdEIwRDLfWKJiOYTxQ9f56/gbfonyM766NcJIkx5W9TwmlY+c+MjIiIiGgdDLBHRfKD4IXXtg6fpnyA7/jzGhQJMed9Ww2v6BTM2PCIiIqJYMcQSEc1ligypez88jf8E2XFyjAsFGPM2w1LyIMT0i2ZseEREREQTxRBLRDQXKTKknoPwNG6HPHxizEuNS6tgKflHiBmrZmhwRERERJPHEEtENKcokLpfh6dpO+ShP415pTH362p4XbB6hsZGRERENHUMsUREc4ICqedNeBofhjx0bMwrjUuugaX0IYgL1s7Q2IiIiIjihyGWiCipKZB6fwtv43b4B4+OeaVx8ZdhLn0IhsyLZ2hsRERERPHHEEtElJQUSH018DY+DP/5D8e80rj4SphLHoJh4SUzNDYiIiKi6cMQS0SUVBRIff8bCK9/HPNK46JNauV14V/N0NiIiIiIph9DLBFRUlDg7/8DPI0PwT9weMwrDTl/C0vpwzBkfWGGxkZEREQ0cxhiiYhmOf+5Q/A0bof/3KExrzNkX6aG1+y/nqGREREREc08hlgiolnKf+5deJoehr//D2NeZ8jeCEvJwzDkfHFGkLzuPgAAIABJREFUxkVERESUSAyxRESzjH/gfXgaH4a//3/HvM6Qdalaec35WwDCzAyOiIiIKMEYYomIZgn/+Q/gbXwYUl/NmNcZFv4FzKXbYVx0ORheiYiIaL5hiCUiSjD/4FE1vPb+dszrDJkXq+F18ZfA8EpERETzFUMsEVGC+Ac/hrfpYUg9b455nSHz8zCXPAzjki+D4ZWIiIjmu1kbYh0OB1paWnDmzBl0dHSgvLwcf/3XkTtudnV14YMPPkB3dzeKi4tRUVGBvLy8MZ/f0dGB2tpadHV1wWq14pJLLkFOTk5MY2tsbER1dTU2bNiAdevWTfi7EdH8Jg/VwdO4HVLP62NeJy5YDUvpwzAuuQYMr0REREQqAYACAIqiJHgoqjNnzuDVV1/FsWPHYDAYsGzZMlx44YW45JJLsGLFilHXHzhwAK+99hpEUUReXh7a29shyzKqqqpQVVUV8TPeffdd7Ny5Ezk5OViwYAFaWlqQlZWF++67D1ardczxeb1ebNu2DQ6HAzt27EBmZmZcvjcRzX3y8HE1vHYfGPM6MaMCltKHYFzyNUAQZ2h0RERERLObIKh/1J81lVhFUfDrX/8ar776KhRFwapVq3D77bcjKysr6j179+7FwYMHkZGRgQceeABFRUUYGBjA9u3bsX//fgwNDeGmm24Ku6e+vh7PPvssBEHA/fffj/z8fDz++OM4cuQInnjiCTz66KNjjvPll1/G2bNncccddzDAElFM5OFP4Wn6J0hd+8a8Tsz4HCwlD8GY+w2GVyIiIqIoZsVvSX6/H48//jj27t0LALjuuuuwbdu2MQPsqVOncPDgQQBAVVUVioqKAABZWVm45ZZbAAA1NTU4ffp02H1vvfUWfD4fSkpKkJ+fDwC47LLLAAAtLS04fvx41M88ceIEampqsHHjRqxfv36S35aI5gvZ8Rlcx78Dxx9XjxlgxfQLkFrxMtL/sg7GpVUMsERERERjmBW/Ke3atQsffPABAOCrX/0qvva1r2ml4kgURcFLL70EALBYLLj88svDzq9atQpLly4FAOzbF/6LY1NTEwAgNzdXe6+wsFA7Hhl6g5xOJ55++mlkZ2fjxhtvjPWrEdE8JDtPw33iejjer4DU+SsEVm2MIqaVI6XiJaT/1Scw5n2L4ZWIiIgoBgn/jemNN97AH/7wBwDAypUrsXnz5nHvaWpqQmNjIwCgrKwMBoNh1DUrV64EoFZPg8HU6XSiq6sLAJCWlqZdm5GRoR13d3dH/MwXX3wRfX19uO2228LuJSIKkp0NcJ+4EY73Pwff2T2IHl5XIGXVC0i/9DhMeVsAYfS/w4iIiIgosoSG2L6+Puzfvx8AYDQa8YMf/ACiOP6Q6urqtONIzZ4AoKSkRDs+fPgwAMBgMGjPj1bpjRSIa2tr8c4772DTpk2oqKgYd3xENL/Iria4P70Zjvcvgu/sS4AiR7xOTC1ByueeQ/qln8KU/11AmDVtCYiIiIiSRkJ/g3rllVfg9XoBAOvWrYt5ixv9utWFCxdGvCa43hUIVVctFgsKCwtht9vhcDi084ODg9pxcBqy/twzzzyDvLw8bNmyJabxEdH8ILvOwNv8r/B1vAAo/qjXianLYF5+P0wF1wOCaQZHSERERDT3JCzEOhwOHDlyRHt98cUX49e//jUaGhrQ0dGB9PR0lJWV4eqrr0Z2dnbYvfopv/qpwHr6Kb/660tLS2G329HW1qa9F1wnC6jTk/V27dqF4eFh/OhHP4LFYpngtySiuUh2t8Lb/Ah87c8DihT1OjGlCOb/n707D4uqXPwA/j2zIiAhgoBssoiiiJKZuV2tXLKsvKKW3cpMy6t2q/ur22JW2npbb2W5ZLa5tGHlvoug1HXBBQVTNllEWWWHWc/vj7mcZmQGBgQG9Pt5Hp7nzDnve847wKN8591CXoLS92FApmrHFhIRERFduxwWYpOSkmAw/NlzsXr1agiCAHd3d1y6dAmiKCI9PR2JiYl48skn0a9fP6lsZWWldGwrxHbp0kU6Li4uhiiKEAQBU6ZMwbFjx5Cbm4vjx48jIiICu3btAgBERUVZPOfgwYM4cuQI7rnnngbhloiuP2JdHjRZb0N3YTUg6myWE5z8oQ5eCGXPRwAZP/wiIiIiak0OC7EpKSnSsaurK+69916MHz8eSqUSly9fxrvvvovs7GxUVFRg6dKl+OCDD+Ds7Iy6ujqL8GsrxJrPbdXpdKisrISbmxs8PT3x1FNP4aOPPsLSpUuhUqlQUVEh7Utbr7S0FF9//TUCAwMxderUBvcvKiqCm5sbe2eJrgOiJh/arH9De2EVYNTaLCeoe0Id/CKUfrMZXomIiIjaiMNCbElJiXR8991346677pJed+vWDf/617/w3HPPoaamBuXl5di4cSNmzJgBQRAgCAJE0bTqp0Jh/S1oNBqL10rln/PQIiIisGLFCqSlpSE/Px9BQUHo1auXtNiTKIpYuXIltFot5s+fb/GMLVu2YNeuXSguLoZSqURUVBQeffTRBkOeiajzEzUXoT3/DrR5nwNGjc1ygsoHquAXoPJ/DJA5tWMLiYiIiK4/Dguxly9flo67du3a4LqHhweGDx+OPXv2AADOnDkDwLQ4k1qtRl1dHQBTL6s15iFWoVBYDC8GTKsTh4eHIzw8vEHdPXv24NSpU7jvvvsQGBgonY+Pj8f69evRo0cPLF68GEeOHMHWrVtRWlqKV199FSoV57wRXQtEbQG059+FNncFYKyzWU5Q9YCq1/NQBcwFZF1sliMiIiKi1uOwLXbMezethVgAGDFihHScn58vHZuvYmy+yrA58xBra8ixNZcuXcL69evRu3dv3H333dL5srIyrF69GgAwceJEhIeH4/7774erqyuysrIQGxtr9zOIqGMStYXQnHsOVQdCoc3+yGaAFVReUIe/C5eR6VAFPc0AS0RERNSOHBZizXs4a2trrZYx3yZHq9VKQ4jNQ2xVVZXVuqWlpdKxv7+/XW0yGo1Yvnw5AGDevHkWe9ZmZGRArzetQlq/+JNcLkefPn0A/NlTTESdj6grhibtRVQfDIU2+wPAaP3fJEHZHereb/8vvD4DQe7Szi0lIiIiog4RYnNzc62W6dq1qzRP1cfHRzoeOHBgk3XNt9CJioqyq01btmxBWloaZsyYAR8fH4tr5tvwuLj8+YdrfS9yTk6OxYJTRNTxiboSaNJfQvWBUGjPvwvRUGO1nKDsBnXYG3AZmQFVr+cgyO0f3UFERERErcthITYoKEg6Ng+c5mpra6Xe14CAAOn8qFGjpNWHU1NTrdY1v+egQYOabE9OTg5iY2MxYMAAjBs3rsF1855dJ6c/F26pnwer0+lQUVHR5HOIyPFE3WVoMl4x9bxm/RuiwfqIDkHhDnXoa3AZmQlV8IsQFNanPhARERFR+3FYiO3Xr58UZJOTk3Hx4sUGZcyD6MSJE6VjNzc3REdHAzD1kF45HFmr1eLs2bMAgOjo6CaHE+v1eixfvhwqlQpz586VenzNmYdu83m49ccKhQLu7u6NPoeIHEvUl0GTsQTVB0OgzXwTor7SajlB4QZ16KtwGZUBVchLEBRu7dxSIiIiIrLFoQs7zZ8/H0qlEgaDAd98802DMps3bwYADB48GGFhYRbXpk2bBoVCAaPRiE2bNllci4uLQ21tLeRyOWbMmNFkWzZs2IDs7GzMnDnTYr6tuZCQEOnYfHugwsJCAECPHj2shl8icjxRXwFt5humYcOZr0HUWx81ISi6QhWyyNTzGvIKBAU/mCIiIiLqaBwWYgHTEOHp06cDMPXGbtiwAZWVldDpdFi3bh2SkpIQGRmJBQsWWK378MMPAzDNZT1w4ADKysqwdetWrF+/HjKZDE888USTvbBpaWnYvHkzhgwZglGjRtksFxwcLA1pPnz4MACgqKgI6enpAIA77rij+d8AImpTor4S2qy3UX0wBJqMVyHqy6yWE+SuUAW/CJeRmVCHLoGg5L7PRERERB2VAEAEIM09bW+iKCI+Ph5r165FTU0N5HI5ZDIZVCoVhg0bhpkzZ0rzX605ePAg1q1bh/LyculcQEAAHnroIURGRjb6bI1GgxdffBE1NTV499134ebW+JDBoqIivPzyy6isrMTIkSORk5OD7OxsREVF4bnnnrNYzZiIHEc0VEGX+xm05z+AqCuxWU6QO0MZ8ARUvZ6BoPRsxxYSERERUXPVj3x1eIitp9PpkJeXh8LCQvj7+6Nnz552D8/VarXIyspCWVkZfH19ERAQYFfdxMREbN68GdOmTcPgwYPtelZRURF+++03nDhxAi4uLoiKisK4ceM4lJioAxAN1dDlLof2/HsQdcW2C8q6QBUwH6pez0JQ9Wi/BhIRERFRi3W4EEtE1FKioQa6vJWmbXK0hbYLypygCpgHVa9/QVB5t18DiYiIiOiq1YdYhYPbQUTUcsZaaPNWQZv1DkTtJdvlZGqo/Oea9nhV+7Zf+4iIiIio1THEElHnY6yD9sJqaLPehqhpuD2XRKaCyu8xqIKfh6D2a7/2EREREVGbYYglos7DqIEu/ytoMt+CqLlgu5yghNJvNtTBL0BwCmi/9hERERFRm2OIJaKOz6iFLv8baLLehFiXa7ucoIDSbxZUwS9C5hTUfu0jIiIionbDEEtEHZeogy7/W2gz34SxLtt2OUEOZc+ZUAW/BFmXXu3WPCIiIiJqfwyxRNTxiHroLq6FNvMNGGuzbJcT5FD6PghVyEuQdQltv/YRERERkcMwxBJRxyHqobv0HbQZr8NYm2G7nCCD0udvUIUsgsw5rP3aR0REREQOxxBLRI4nGqC79AO0ma/BWJPWSEEBSt8ZUAUvgsylT7s1j4iIiIg6DoZYInIc0QBdwU/QZr4OY/UfjRQUoPCZDnXIy5C5RLRb84iIiIio42GIJaL2JxqhL9wATcZrMFanNlpU4T0V6pBXIHPt306NIyIiIqKOjCGWiNqPaIS+6FdoMpbAWHW60aKKHn+FOvQVyFyj2qlxRERERNQZMMQSUTsQoS/cBE3GYhirkhstqfC6B+rQVyHrOqid2kZEREREnQlDLBG1IRH6oq2m8Fp5vNGSCq9JUIW8Crnbje3UNiIiIiLqjBhiiagNiNAXb4c2YwkMFUcbLanwnAhV6KuQuw1pp7YRERERUWfGEEtErUiEvmQXtBmLYSg/3GhJRffxpvB6wy3t1DYiIiIiuhYwxBJRKxChL9n7v/D6e6Ml5R63Qx26GHL34e3UNiIiIiK6ljDEEtFVEGEo3Q9NxqswlCU2WlLuMQbqkMWQdxvVTm0jIiIiomsRQywRtYjhcjw0GYthuJzQaDl5t7+Yel67jW6nlhERERHRtYwhloiaxXD5ADSZi2Eo3d9oObn7CKhDl0DuMQaA0B5NIyIiIqLrAEMsEdnFUPabqee1dG+j5eQ3DIMqdDEU3W8HwysRERERtTaGWCJqlKH8ELQZi6Ev2dVoOfkNN/8vvI4HwysRERERtRWGWCKyylBx1BRei7c3Wk7uNtgUXj0nguGViIiIiNoaQywRWTBUHIM2czH0RVsbLSfrGg116KtQeE0CwysRERERtReGWCICABgrT0CTsQT6ok2NlpO5RkEduhiKHveA4ZWIiIiI2htDLNF1zlh1yhReC39ptJzMtb8pvHpNBgRZO7WOiIiIiMgSQyzRdcpYlQJN5mvQF8Q2Wk7m0g/q0Feg6BHD8EpEREREDscQS3SdMVafgSbzdegv/QhAtFlO5tIHqpBXoPSeBgjy9msgEREREVEjGGKJrhPG6rPQZr4O3aXv0Wh4de4NVcjLUPrcz/BKRERERB0OQyzRNc5Yk/6/8LoeEI02y8m6hEIVsghK3wcAgf80EBEREVHHxL9Uia5RxtpMaDPfgO7iWkA02Cwn69LL1PPq+zdAULZjC4mIiIiImo8hlugaY6w9D23Wm9Dlf9N4eHUKNPW89nyY4ZWIiIiIOg2GWKJrhLEuB9qst6C78BUg6m2WE5wCoA5eCGXPRwCZqv0aSERERNeMnJwc6HQ6m9eVSiUCAwPbsUXXjrVr12LYsGEIDQ11dFM6LIZYok5OrMuDJutt6C6sBkTb/5kI6p6m8Or3KCBTt2MLiYiI6Fqzfft2pKamoqioqME1FxcXDB48GH//+98d0LLOLTs7G9u2bUNJSQmeeuopRzenw2KIJeqkRM0FaLL+Dd2FLwCj1mY5Qe0LVfALUPnNAWRO7dhCIiIiulbNnTsXALBx40b88MMP0vm7774bMTExUKlad7RXbW0tDAYDXF1dW/W+V6Mt2rRz504AwNGjR1FWVgZ3d/dWu/e1ROboBhBR84iai9CcfRpVB3tDl7vMZoAVVN5Q9/kQriPToAp4ggGWiIiIWt0tt9xi8XrMmDGtHmAB4Pvvv8f27dtb/b5Xo7XbVFVVhd9++w0AYDAYsHfv3la797WGIZaokxC1BdCcewZVB8OgzVkKGDVWywkqL6jD34PLyHSoAp8CZF3auaVERER0vVCrLacoubi4tPozysvLkZCQ0Or3vRpt0aa4uDhotX92Tuzbtw8Gg+1FOq9nHXY48fbt25GdnY3hw4cjKiqq0bIFBQU4dOgQCgsLERQUhAEDBsDHx6fROvn5+UhKSkJBQQH8/f1x8803w8PDw662ZWRkYMuWLRg5ciQGDx5s93siaglRWwjt+fehzV0GGGttlhOUnlD1ehbKgPkQ5K3/HwgRERHRlWQyWaOvr5bBYMCnn34Kjcb6h/eO0BZtMhqN2L17t8W5y5cv48iRIw16u6mDhtjk5GSsWbMGAODn59doiP3ll1/w888/QyaTwcfHB/v374fRaERMTAxiYmKs1jlw4ACWL18ODw8PdO3aFfv27cOmTZuwcOFC+Pv7N9o2rVaLZcuWobq6GrNmzWr5myRqgqgrhvb8B9DlfgrRUGOznKD0+F94XQBB3nHmiRAREVHr0RtE3P1Ckt3lt793Uxu2pmVKS0uhVqstemvLy8uhVqvh5NRw2pPRaMRXX32FlJSUZj2ntrYWZWVl6NGjB+RyeYdoU1OSkpJQXFyM8ePHo7i4GMeOHQMA7Nq1q8UhVqfTobS0FN26dbN7iHdL6jhChwuxVVVVWLFihV1lf/zxR/z6669wdXXFokWLEBgYiLKyMixZsgQbNmxAZWUlHnnkEYs6aWlp+OKLLyAIAl566SX4+vrik08+wX//+1989tlnePvttxt95nfffYeLFy/in//8J9zc3Fr6NolsEnUl0GZ/CF3OpxANVTbLCQp3qHo9A2XAExAU/F0kIiK6ljUnwALAxH8d7RBB1mAw4OjRo9i7dy9SUlJwzz334L777sP+/fuxb98+ZGRkQC6Xo1+/fliwYAG6du0KACgsLMTSpUuRkZEh3SsuLk4Kj9HR0bj33nula3q9HrGxsTh8+DAKCgogiiIUCgXCwsLwyCOPWGz3015tao6dO3dCEARMmDABRUVFUoj9448/kJubi4CAALvuI4oiduzYgQMHDiA3NxcGgwGCICAwMBDTp09HdHR0q9RxtA43J3bVqlUoKytrstzZs2fx66+/AgBiYmKkX0x3d3fMnj0bgOmTi3PnzlnU27FjB3Q6HUJCQuDr6wsAGD16NADTktanTp2y+czTp09j165dGDVqFIYMGdL8N0fUCFF3GZqMV1B9MBTarH/bDLCC4gaoQxfDZVQmVMELGWCJiIioQzp27Bj+8Y9/4OOPP8bp06chiiIAYP369fj888+Rnp4OURSh1+uRnJyML774QqpbUVGBwMBAixGZXbt2hZ+fH/z8/NCtWzfpfHFxMV599VVs374dw4YNw5NPPomxY8fCYDDgjz/+wKJFi3DixIl2bVNz5ObmIjU1FVFRUfD19W0wNfLKYca2VFRU4N///jfWrFkDLy8v/POf/8ScOXPg4eGB7OxsvPfeew0Wi2pJnY6gQ/XEJiQk4MiRI+jRowcKCwttlhNFEWvXrgVgmkw+duxYi+uRkZHw9vZGQUEBYmNjsXDhQulaZmYmAKBHjx7SOT8/P+n43LlzGDBgQINn1tTU4PPPP0e3bt0wc+bMlr1BIitEfRm02R9Dl/MRRH2FzXKCwg3KwKegCnoagoLLrRMREXUm/00pw5pd+Siv1rfbMx98I7nZdW5wUeCh8T1xS/+r/1sjICAA8+bNw759+3Do0CEApi15nJ2dMWvWLAwcOBBlZWX44IMPUFlZiSNHjiAtLQ29e/dGWFgYwsLCkJqaiuRk0/u46aabMG3atAbP+eKLL5CVlYUFCxZgxIgRAIChQ4eie/fu+OGHH6DX67F69Wq899577dam5qjfVmfChAkAAEEQMG7cOGl65cGDBzFjxgx06dL4Yp2rVq3CqVOnMGLECCxYsEA6bzQa8eWXXwIwhfUxY8ZIw6xbUqcj6DA9sUVFRfj666/h7++PGTNmNFo2MzNT6sbv3bu31W9onz59AJh6T+t7Y2tqalBQUAAAcHZ2lsqa7+1kKzx/++23KCkpwdy5cy3qErWUqK+ANvMNVB8IhTbzNZsBVpC7QhW8EC4jM6AOXcwAS0RE1MmUVenx1toMZObXoKRc26KvlmjJczLza/DW2oxWCdteXl4YMGCAFCwBwMfHB6+//jrGjRuHHj16IDw8HLfddpt0PTs7u1nPOH78OJKTk9GtW7cGc0cnTZoEpVIJACgpKcGxY8fapU3NUVVVhcTERPj6+mLgwIHS+dGjR0srP9fV1TW5EnJSUhKSkpKgUChw3333WVwbNmyYtOCWRqNBbW1ti+t0FB2iJ9ZoNOKzzz6DwWDAE088gZKSkkbL1w8HAICwsDCrZUJCQqQfdmJiIsLDwyGXyyGTyWA0GiEIgtV61gJxUlISEhISMH78eKu9tETNIeoroctdCm32hxB1l22WE+QuUAb+A6qg/4Og7N6OLSQiIqLWdKlEA51edHQz7KbTi7hYrMENLq0TFcwXSBo6dKg0pa+e+XzVmhrbi1las3//fgCmkZrr169vcN1oNErHFy5caJc2Ncf+/fuh0WgwYcIEi3zi7OyMESNGYN++fQBMQ4rre2qtqd+vNigoCJ6enhbXXFxcsHDhQiQmJqJfv35SB15L6nQUHSLEbt68GefOncODDz6IwMDAJkOs+bzVG264wWoZ81/E+t5VtVoNPz8/5Obmorq6WrpeUfFnD5i3t7fFfSoqKrBq1Sr4+Pg02UNM1BjRUAVd7mfQnv8Aos7277ggd4YyYAFUQc9AUHm1YwuJiIioLYT4dYF3NzUKLnecbWIa491NjRC/1ttnvqltd8xHOTZ3X9RLly4BALp164aqqobriQwfPlw6Np9n2pZtslf9tjpyuRyDBg2yyCQAcMstt0ghNj8/H6dPn0ZkZKTVe9UHdPMpk+b69euHfv36XXWdjsLhITYrKwuxsbGIjIzExIkT7apjPuTX1qcC5r945uVDQ0ORm5uLvLw86Vz9PFnANDzZ3OrVq1FVVYVnnnmmwWbORPYQDdXQ5S6H9vx7EHXFtgvKukAVMA+qXv+CoLL+jwkRERF1PiqFDB8s6INNiYUtHqa783Ajf0PYMOFmz6YLXeEGFwXuGdEDKkXrzTpsKjDaGiHZFFEUpRAbFRXVYEisI9rUHMePH0dRUREA4Omnn26y/O7du62G2KqqKpSXlwMwrdJsj5bU6UgcGmK1Wi0+++wzdOnSBfPmzbP7l6WyslI6thVizSc+FxcXQxRFCIKAKVOm4NixY8jNzcXx48cRERGBXbt2ATD98pt/2nDw4EEcOXIE99xzT4NwS9QU0VADXd5KaM+/C1Fre6EyyJyg8p8LVfBzEFQ+tssRERFRp9X9BhVm3enf4votCbFPT+vV4ud1BlqtFjqdDsCfPbKdyY4dOyAIAmbPnm11T1rA1Nm2bds2AKYpjiUlJeje3XKamUbzZw9/fShuSkvqdCQODbHr169Hfn4+nn76abuXpK6rq7Po0rcVYs3ntup0OlRWVsLNzQ2enp546qmn8NFHH2Hp0qVQqVSoqKhAZGQk5s+fL9UpLS3F119/jcDAQEydOrXB/YuKiuDm5sbe2euYviAWukvr4RSx0nLYr7EW2rxV0Ga9A1HbyD+oMhVUfo9DFfw8BHXPtm8wERER0TVErVbD3d0dZWVlOHXqFKqqqmxmg/z8fBQXF1tsj+NIeXl5SElJwaBBgywWkbrSTTfdhISEBFRVVcFoNGLv3r2YPn26RRkPDw8olUrodDrk5OSguLi4wRzXeidPnoQoihg4cGCz6wwaNKjlb7iVOWx14pMnT2LXrl0YPXo0br75ZrvrCYJg0WOrUFjP4eafLgCQViYDgIiICKxYsQIvvPAC7r//frz55pt48cUX4eZm2m9TFEWsXLkSWq0W8+fPt3jGli1b8OSTT+Kpp57C448/jg8++ACXL9tenIeuTaKhCrXJ90FfuBG1J2NMJ4110OZ+hqqDvaE5+0/bAVamgjJgHlxHpEHd92MGWCIiIqIWqp/nWlNTg19++cVmuZ9++glnz55tr2Y16cptdWxRqVQYM2aM9Hrfvn0Nhv8KgiCt62M0GrFjxw6r9zIYDPj222+lRW6bW6cjcUiIraysxMqVK+Ht7d3sPVfVarVF72f9EIIrmYdYhULRYF8lQRAQHh6OMWPGIDg42CIY79mzB6dOnUJMTIzFymTx8fFYv349ZDIZFi9ejPHjxyMpKQnvv/8+tNqWLX1OnZMud5l0bKg4Cm32u6g6GA7NH09C1Fy0XklQQun/OFxGnIVT308hOLV8SBERERFdX7a/d1Oblm+pKwOVtUWQRNH+lZmvLGv+N7r53/f15fr37y+d27FjBzZu3NjgHnFxcTh06BAGDx7cLm1qSllZGRISEuDl5WVXz/Do0aOl44qKCqvb7ZjPld25c6e0B65527755huUl5dLz2xJnY7CIcPDGbApAAAgAElEQVSJv//+e5SVlcHT0xMrVqxocL20tFQ6jo+PR0ZGhjRe3NXVFR4eHsjPzwcAi1WGzZn/QjVnSehLly5h/fr16N27N+6++27pfFlZGVavXg0AmDhxIsLDwxEaGor4+HhpcaoHHnjA7udQ5yUaqqA9//6fJ4waaM69aLuCoICy50yoghdC1qVXm7ePiIiIrk3tFUybw3ytGsD0t/mVu4eYb1FjrePHPPjW1dVZXDOf/3nmzBnU1dUhNTUVa9aswYcffohJkyYhLi4OpaWlEEURP/zwA44dO4aoqCjo9XppLZxBgwYhJCSkXdrU1Do/P//8M3Q6HW688Ua71gTy8/ODp6cniotN86I3btyIESNGWHTsTZkyBQkJCaipqYHBYMCnn36K06dPIyIiAlqtFnv37kVGRgZiYmKkUaYtqdNROKQ1ZWVlAEwLLtX/MGzJz8+XAuuMGTMahFhrS2kDlkHY39++Hi+j0Yjly5cDAObNm2exallGRob0SVP94k9yuRx9+vRBUlISzpw5Y9czqPPT5S5rdIsciSCHsufD/wuvIU2XJyIiIupEcnJyEBsba3Fu48aN+Nvf/iZN06usrMTBgwel68nJyRZzV7VarcX1EydOYPLkydJOI56enlCr1dBoNMjKysJjjz0Gg8GAF154AYIgQK1W49FHH8XHH38sjdBMS0tDWlqadE83Nzc89thj0uu2bpMtOp0O8fHx2LNnDwAgNzcXFRUV0vfKGlEUkZOTYxGki4qK8J///AeTJ09Gnz59IAgCXF1dMXPmTHz++ecwGAwwGAzYu3cv9u7dK9Xr378/pkyZIr1uSZ2OQg5gMQAsXry43R5avyeRp6en1S+VSiV9qtO9e3dpA96RI0dCrVajoqJC2ivW19fX6lLTiYmJOHfuHABg7NixCA8Pb7JdmzdvRkJCAh566CEMHDiwwf3++OMPAMDkyZOl4cmnT5/G+fPnUVVVhXvuuafJ5bqpcxP1lahLvh8w1touJMig7PkQukT9AGXPRyAo7Vu0jIiIiKizWLhwIWJjY3HxouU0qpycHGzduhVJSUno1asX/vWvfyE3N1e6XllZic2bN6OwsBAajQavvPIKcnJypOsVFRXYvHkz5HI5+vbtC0EQ4Ofnh+PHj8NgMMDd3R1Tp07FyJEjpTq+vr648cYbcebMmQY9wxEREVi4cKG0iGxGRka7tMmaf/zjH/j999+l10VFRdiyZQtKS0sthjqbW7ZsGb766qsGvcUFBQWIj4+HSqVCnz59AABBQUGIiIhAcnKyReiVyWS48847MWfOnAY9qi2p40hLliwBAAgARKB548Lb2vHjx/Hee+8BMPW+mg/rBUy/SAsWLIDBYEBYWBhee+21Bvd49913ceLECem4qd7YnJwcLFq0CBEREVY/RVm5ciXi4+MBAF988YX0SczXX38tbdHz2Wef2b3KMnVO2vPvQJO20OZ1ZY8pUPV+EzLnpj80ISIiIiL76HQ65OfnIyAgoNFOo4KCAmRmZkIQBAQHB0uLFzmyTe1NFEXk5eUhKysLbm5uCA4ObjDEuzXqOEJ9Rus4sboZ3NzcEB0djaNHjyIzMxO1tbUWCzdptVpp9bHo6OgmA6xer8fy5cuhUqkwd+5cq8MAgoKCpOPq6mopxNbPyVUoFHB3d7/q90Ydl6ivhPb8B42WEZwCGGCJiIiIWplSqbT4e9wWb2/vNg2u5uxtU3sTBAEBAQEICAho0zqO1HE+MmimadOmQaFQwGg0YtOmTRbX4uLiUFtbC7lcjhkzZjR5rw0bNiA7OxszZ86Eh4eH1TLmE8FLSv6cD1lYWAgA6NGjh10Ts6nz0uU1PRdWm7fS9urERERERER01TptiA0ICMDDDz8MwLR364EDB1BWVoatW7dK2+A88cQTTfbCpqWlYfPmzRgyZAhGjRpls1xwcLD0ycThw4cBmMaxp6enAwDuuOOO1nhb1EHZ0wsLwLRX7Pn32r5BRERERETXqQ45nNh8THlj48vHjh0LJycnrFu3TlpVGDAF3Iceesjqgk/mNBoNli9fDldXV8yePbvRskqlEs8++yxefvll7Ny5E9XV1cjJyYEoioiKisJtt91m57ujzkiXt9y+FYkBaHM+hir4OQgqnzZuFRERERHR9adDLuzUXFqtFllZWSgrK4Ovry8CAgLsGtqbmJiIzZs3Y9q0aTZXBLtSUVERfvvtN5w4cQIuLi6IiorCuHHjOJT4GleX+jh0F1bbXd556H8hdxvShi0iIiIiIrq+1GeuayLEErU5owaG8v8Cor7JooLKGzLXxkcBEBERERFR8zDEEhERERERUadRH2I77cJOREREREREdP1hiCUiIiIiIqJOgyGWiIiIiIiIOg2GWCIiIiIiIuo0GGKJiIiIiIio02CIJSIiIiIiok6DIZaIiIiIiIg6DYZYIiIiIiIi6jQYYomIiIiIiKjTYIglIiIiIiKiToMhloiIiIiIiDoNhlgiIiIiIiLqNBhiiYiIiIiIqNNgiCUiIiIiIqJOgyGWiIiIiIiIOg2GWCIiIiIiIuo0GGKJiIiIiMihRFFEXl4e9Hq9o5tCnYDC0Q0gIiIiIqLO7eLFi0hJSUFeXh40Gg3CwsIQHh4Of39/CIKAffv2wcvLCwMGDLCoV1FRgbi4OOzbtw9FRUVYsmQJevfu7aB3YaLX65Gdnd2iujKZDMHBwY2WOXHiBI4ePYo5c+a06BnEEEtERERERC2k0+mwYcMGbN26FQaDAXK5HDKZDPHx8QAAFxcXREREICUlBdOnT7cIsd999x22b9/e4Xpfy8vLsWHDBqSnp6OqqqpZdZVKJb755psG50VRRFJSEn755RdkZWUBAGbPng1BEFqlzdcbhlgiIiIiImqRL7/8EvHx8XBycsKsWbMwevRoAEBaWhqOHTuGrVu34ujRo1brDhs2DEOGDMHSpUtRVFTUZm2sra2FwWCAq6urXeW7d++O5557DgaDAe+99x6Sk5MBAF5eXvjHP/5hUVar1aKkpAR79uxBWloadDodjEYjZLI/Z20mJydj3bp1yM3Nbb03dZ1jiCUiIiIiomY7fvy41OM6Z84cDB8+XLrWt29f9O3bFwEBAVi5ciWMRmOD+r169QIA9O/fH/v372+zdn7//fdwdXXFtGnTmlVPLpdjyJAhUoh1dnZGWFiY1bLDhw/H0qVLcfjwYWg0GnTp0kW6ptfrcffdd8PJyQn/+c9/IIpiy98MAeDCTkRERERE1ALHjx8HAAiCgKFDh1otM2rUKMycObPR+6jV6lZvW73y8nIkJCS0uL6Tk5Nd5eRyOaZOnQoA0Gg0FtduvPFGjBw5EjfddBN8fHxa3Bb6E0MsEREREVEnI+pqUf3rQpR/MhGirtYhbTh//rypLaKItLQ0m+XGjBnT6FBe86G3rclgMODTTz9tECqbozlzVv39/fHII4/A2dnZZhkXF5cWt4X+xBBLRERERNSJiLpaVH3/JLSntsFYfhFV3z/pkCDr5eUlHa9btw4VFRVWyymVSkRERNi8T3OCoiiKKCsra3LBJaPRiK+++gopKSl237uljEYjDAYDAGD8+PFQqVQ2y8rl8jZvz/WAc2KJiIiIiDqJ+gCrP39EOqc/fwRV3z8J1/s/gaDs0kjt1hUREYHff/8dAJCRkYFFixZh/vz56Nu3b4Oyt956q90LK1mTm5uLTZs24fDhw9DpdAAAT09PhIaGYurUqfDz85PKFhYWYunSpcjIyJDOxcXFSYE2Ojoa9957b4vbcqWdO3eipKQEDz74YJNluRpx62CIJSIiIiJqB6KuDqKmeVu2WNTX16H610Uw5J5ocE1//ggq182Dy+Q3ICjsm8dpjaB2haC0r/7QoUOxZcsWFBYWAgCKi4vx2muvYcSIEXjggQfQrVs3qeygQYNa3KZDhw5hxYoV0Ol0uPfee9G7d28UFRXhp59+wqFDh3Dy5EksWLAAgwcPBmDaezYwMBAuLi7Sokxdu3aVgq55u1rDsWPHEBAQ0Kr3pMYxxBIRERERtbG6375CbdyngNHQZs8w5J5AxdJJV3cTmQJdbl0Ap+GzmizatWtXPP/883j11VcthvcmJiYiKSkJ99xzD+666y4olcoWNycvLw/Lli2DTqfDAw88gEmT/nx/kZGRePnll1FTU4MPP/wQL730Evr164ewsDCEhYUhNTVVCrE33XRTs1cnvlJlZSWOHPmzB7yoqAhJSUk4c+YMQ2w745xYIiIiIqI2ZCy7gNq9H7dpgG01Rj1q934MY9kFu4r7+vpiyZIlDbaeqaurw48//ohnnnkGhw8fbnFzvvzyS+h0Onh7e1sE2Ppnjxs3DoBpruzatWvbdPua0tJS/Oc//5G+1q5dizNnzrTZ88g29sQSEREREbUhsdb6gkcdmVhbAbj7NV0QpjC5ePFi7Nq1C7GxsaipqZGuFRcX46OPPsJf/vIXzJ07t1lzQvPz8/HHH38AgM2ezokTJ2L79u3QarU4f/48UlJSEBkZafczmsPLywvz5s2TXldWViI1NRU7d+5sk+eRbQyxRERERERtSO7TB4rAwdDnJDm6KXZRBA6G3KdPs+rIZDLccccdGD58OH788UfExcVZ9IomJCSgW7duuO++++y+Z1LSn98v84WbzLm5uSEkJEQKu7m5uW0WYp2dnRssWjVkyBBUV1e3yfPINoZYIiIiIqK2JMjQ9cHl0J6Lh1hT1uLbGCsKUHd4HaC1sZ2Oqgucbv4bZG7eLX6G4OwOVfhoQGjZrEM3NzfMmTMH48aNw1dffYVz585J1zZu3IjBgwc3GHpsS1FRkXSsVqttlvP09JSO8/PzW9DqqxMWFiYtbkXtgyGWiIiIiKityVVQRYy76tuo+o1H5drHG4RhwdkdXR/8HHLv8Kt+hr12796Nnj17on///g2uBQUF4dVXX8VXX32FPXv2SOdPnTpld4itq6uTjktLS22W6969u3TsiH1Y6+flUvvhwk5ERERERJ2E3DscXR/8HIKzu3TOEQEWAM6fP28x5PdKgiBg1qxZGDBggHQuPT3d7vv7+PhIx+a9slcyD67mvbLtRRAE7v/azhhiiYiIiIg6ESnIOrlBcHJzSICtl5SU1OiKwIIgYOTIkdJrlUpl973N58GmpKRYbONjrqzsz15p88BM1y6GWCIiIiKiTkbuHY4bnt6JG57e6bAAC5h6SOPi4hotYzQapeN+/fo1WtY8EEdHR8Pd3dTjrNfrkZiYaLVOdnY2ANMKxkFBQdJ5895RjUZj9RlN0ev10rH5+2gp83u0xv2uVx1iTuyFCxdw5swZ5OXlQaVSISAgAP369bMY396YgoICHDp0CIWFhQgKCsKAAQMshh9Yk5+fj6SkJBQUFMDf3x8333wzPDw87HpeRkYGtmzZgpEjR2Lw4MF21SEiIiIiak2CsoujmwAAWL16NbRaLe64444G1+rq6rBp0yYAgLu7O4YOHWq1jLVjlUqFKVOm4MsvvwQAxMbGIioqCr6+vlKZ9PR0ZGRkAAAefvhhi/uaZ4kzZ86grq4OqampWLNmDT788EO7hgBXVPy5PVJrrEJsHqa1Wi26dOkYP8POxqEhVq/X46effsK2bdtgMFhu/qxWqzF16lTceeedjf6C/fLLL/j5558hk8ng4+OD/fv3w2g0IiYmBjExMVbrHDhwAMuXL4eHhwe6du2Kffv2YdOmTVi4cCH8/f0bbbNWq8WyZctQXV2NWbNmNf9NExERERFdQ0RRxLfffovk5GRERkaib9++cHFxQWZmJmJjY3Hx4kUoFAo88cQTcHNzs6hbVVWFU6dOSa9/++039O/fX5rnevvtt+PixYvYvn07qqur8e677+L+++9H3759kZGRgc8//xwAEBMT02CBKU9PT6jVamg0GmRlZeGxxx6DwWDACy+80GSAFUURJ0+eRHx8vHSutLQUu3fvxujRo5s1LLpeenq6xerJ8fHxmDBhAufTtoAAQASa163eWtavX48tW7Y0WqaxMPrjjz/i119/haurKxYtWoTAwECUlZVhyZIlKCgowPjx4/HII49Y1ElLS8Mbb7wBvV6P999/H76+vvjkk0/w3//+F0FBQXj77bcbbc8333yDnTt34p///CeGDBnSrPdLRERERHStWLVqFS5duoSBAwciOTkZZ8+ebdAxBQCRkZGYNWuWRQ8qAGzatAk//PBDgxwik8mwYMECDBs2TDq3a9cuxMbGNpgX6+Pjg2nTplmUNXfkyBEsW7YMGo0G3bp1w1133YU777yz0fdVUFCAl19+2eYcXIVCgdtuu61BzrAlJSUFH374IWprG26NpFQqMX36dNx111123et6Vx/4HRZiMzIy8Morr8Dd3R3Tpk3DjTfeCAA4efIk1qxZI/3SyGQyvP766wgODraof/bsWSxZsgQAMHPmTEyYMEG6dvr0abz11lsAgMWLFyM8/M95AkuXLsXvv/+O0NBQvP7669Iz33nnHQDAiy++aHNC+OnTp/H2229j5MiRmDdvXmt8G4iIiIiIOqWUlBS4u7tLCzBVV1fj3LlzuHz5MrRaLXx8fODn5wcvL69WeZ4oirh06RIyMjIgl8vh7e2N4ODgJnsydTod8vPzERAQAJmMSwJ1ZvU/a4cNJ/79998hk8nwf//3fwgNDZXOjxo1CmFhYXjxxReh1WphNBpx4sQJixAriiLWrl0LwDTseOzYsRb3joyMhLe3NwoKChAbG4uFCxdK1zIzMwEAPXr0kM6Zr3x27tw5qyG2pqYGn3/+Obp164aZM2de5bsnIiIiIurcrhy+6+Ligujo6DZ7niAI8PX1bdCj2xSlUmmx4BN1fg77KOLUqVO49957LQJsPV9fX4su9fPnz1tcz8zMlCZw9+7d2+qmxn369AFg6j09d+4cAFMQLSgoAAA4OztLZV1dXaXjwsJCq+399ttvUVJSgrlz51rUJSIiIiIiovbjsBA7Y8YM/PWvf7V5vT6EApCW1q534sQJ6TgsLMxq/ZCQEOm4fjluuVwuDSGwNezAWiBOSkpCQkICxo0bx72niIiIiIiIHMhhIXbQoEFWA2M982vmgRaAxQpmN9xwg9X65sMM6ntX1Wq1xZj9euZLZ3t7e1vcp6KiAqtWrYKPjw9mzJhhs71ERERERETU9jrszOasrCzp+MoQaz7k13wosDnzIb/m5euHL+fl5Unn6ufJAqbhyeZWr16NqqoqzJs3D2q1ujlvgYiIiIiIiFpZhw2xZ8+eBQAMHjzYYqNiAKisrJSObYVY842Di4uLpdWXp0yZAjc3N+Tm5uL48eOoq6vDrl27AABRUVHo16+fVO/gwYM4cuQIJk2a1CDcEhERERERUftz2OrEjcnKysKxY8egUCjw4IMPWlyrq6uz2H/KVog1H46s0+lQWVkJNzc3eHp64qmnnsJHH32EpUuXQqVSoaKiApGRkZg/f75Up7S0FF9//TUCAwMxderUBvcvKiqCm5sbe2eJiIiIiIjaUYcMsevWrYMoivjrX//aYI6qIAgQBEHqWVUorL8FjUZj8VqpVErHERERWLFiBdLS0pCfn4+goCD06tVLWuxJFEWsXLkSWq0W8+fPt3jGli1bsGvXLhQXF0OpVCIqKgqPPvoounXr1irvnYiIiIiIiGzrcMOJExMTkZqaisGDB2Py5MkNrqvVaoveT51OZ/U+5iFWoVBYDC8GTGE4PDwcY8aMabBJ8p49e3Dq1CnExMQgMDBQOh8fH4/169dDJpNh8eLFGD9+PJKSkvD+++9Dq9W2+D0TERERERGRfTpUiM3IyMCqVavg5+eHBQsW2NwGx8PDQzo2X2XYnHmItTXk2JpLly5h/fr16N27N+6++27pfFlZGVavXg0AmDhxIsLDw3H//ffD1dUVWVlZiI2NtfsZRERERERE1DIdJsSWlpbigw8+gKurK55//nk4OTnZLGseYquqqmzer56/v79dbTAajVi+fDkAYN68edKesoApYOv1egCQFn+Sy+XSyslnzpyx6xlERERERETUch0ixNbV1eH999+HXq/Hiy++CE9Pz0bLDxw4UDrOzc21WsZ8C52oqCi72rFlyxakpaVhxowZ8PHxsbhmvg2Pi4uLdNy1a1cAQE5OjsWCU0RERERERNT6HB5i6+rq8M477+DSpUt4/vnn4efn16CMKIoWe72OGjVKWn04NTXV6n3NQ+ygQYOabEdOTg5iY2MxYMAAjBs3rsF1855d815ilUoFwDQ3t6KiosnnEBERERERUcs5NMTW1NTgrbfewvnz5/Hss88iNDS0QRlRFLFu3Tp8/PHH0jk3NzdER0cDMPWQ1tbWWtTRarXSPrPR0dFNDifW6/VYvnw5VCoV5s6da3UublBQkHRsPg+3/lihUMDd3b2pt0xERERERERXwWFb7FRVVeHtt99GVlYWAgICkJSUhKSkJOm6wWBAXV0dUlNTUVxc3GC/2GnTpuHEiRPQ6/XYtGkT7rvvPulaXFwcamtrIZfLMWPGjCbbsmHDBmRnZ2PevHkW823NhYSESMclJSXw8vICAKmHuEePHjYXoiIiIiIiIqLW4ZAQW1FRgbfeegs5OTkATPNabc1tBQCZTIbhw4dbnAsICMDDDz+ML7/8Elu2bEHPnj0xYMAAJCYm4scff4RMJsMTTzzRZC9sWloaNm/ejCFDhmDUqFE2ywUHByMgIAC5ubk4fPgw+vbti6KiIqSnpwMA7rjjDnvfPhEREREREbWQQ0Lszp07pQBrj8jISKtDdceOHQsnJyesW7dOWlUYMAXchx56CJGRkY3eV6PRYPny5XB1dcXs2bMbLatUKvHss8/i5Zdfxs6dO1FdXY2cnByIooioqCjcdtttdr8fIiIiIiIiahkBgAiY5p52VlqtFllZWSgrK4Ovry8CAgLsGtqbmJiIzZs3Y9q0aRg8eLBdzyoqKsJvv/2GEydOwMXFBVFRURg3bhyHEhMREREREbWh+sx1TYRYIiIiIiIiurbVh1iHb7FDREREREREZC+GWCIiIiIiIuo0GGKJiIiIiIio02CIJSIiIiIiok6DIZaIiIiIiKiNVVRUoKSkxOZ1URSRl5cHvV7fjq3qnByyTywREREREV17jEYjLl68iJycHOTk5KC8vBxeXl4IDg5GSEgI3NzcHN3EdiWKIlJSUrB7924cO3YM/fv3xwsvvGBRpqKiAnFxcdi3bx+KioqwZMkS9O7du9XasHbtWgwbNgyhoaGtdk9HY4glIiIiIqKrlpycjC+//BKFhYUAAFdXV6hUKly+fFnazrN///6YN28ePDw8HNnUdpGfn4/3338fly5dslnmu+++w/bt29us9zU7Oxvbtm1DSUkJnnrqqTZ5hiMwxBIRERERUYtVVlZizZo1OHjwIABgzJgxmDx5Mnr06AEAqKurw5kzZ/DFF18gJSUFzz//PObMmYOhQ4c6stltztPTE48++igyMjLwww8/WC0zbNgwDBkyBEuXLkVRUVGrt2Hnzp0AgKNHj6KsrAzu7u6t/gxH4JxYIiIiIiJqEYPBgHfffVcKsI8++igef/xxKcACgJOTE6Kjo/HWW2+hd+/eqK6uxscff4zNmzc7qtntQqVSITIyEiNHjrRZplevXggLC0P//v1b/flVVVX47bffAJh+Tnv37m31ZzgKQywRERERUWckGk1fDvTDDz8gIyMDADBo0CCMHTvWZtkbbrgBc+bMgSAIAICffvoJFy5caJd2OpJarW6VMs0VFxcHrVYrvd63bx8MBkOrP8cRGGKJiIiIiDoboxbV/x2EqoMhgFHbdPk2kJycjK1bt0qvY2JimqwTEBCAG2+8EQCg1+vx+eefS/Nlr1UyWdORy54yzWE0GrF7926Lc5cvX8aRI0da9TmOwhBLRERERNTJ6PK/hrEqBWJdLnT53zikDT/99JMUQKOiouxe/Xby5MnScVpaGuLj49ukfYBpdeDCwkJUVFQ0WbasrAxVVVXS64qKCuh0OqtljUYjiouLUVxc3OR97Qmo9b3TrSUpKQnFxcUYP3689KEBAOzatavF99TpdCgoKLDo3W2LOvbgwk5ERERERJ2JUQtN1lvSS23WW1D2nAnIVO3WBI1Gg/Pnz0uvm7MlTGhoKNRqNTQaDQDgzJkzGDNmDJKSkmzOk33sscfg5+cHAPjjjz/w/fffW1yfPHkyBg0aJL3OyMjAd999h8zMTNTV1QEA3N3dMXbsWNx7772Qy+UATHNFjx07hj179uD06dOYNGkSJkyYgDVr1uDo0aNQq9WYPXs2hg0bBgBITU1FbGws0tLSpKG5bm5u6N27N2JiYtCrVy+7vw9taefOnRAEARMmTEBRURGOHTsGwPS9y83NRUBAgF33EUURO3bswIEDB5CbmwuDwQBBEBAYGIjp06cjOjq6Veo0F0MsEREREVGbE2EoPwxR23TPXVMMxTsg1uVKr411OdCcfRZyzwlXfW9B5Qn5DTcDaLxnMD093WJ+pZeXV7Oe0717d+Tn5wMAcnJyAAB9+vTB5cuXsX79eovg+fTTT8PX11eqGxwcjL/97W94++23UVdXhwceeABhYWHS9W3btuG7775Dr169MHv2bFRVVWHPnj24cOECYmNjcfr0aSxatAgnT57EqlWrUFZWJtU1GAz45JNPcO7cOQBATU0NtmzZgmHDhuHAgQNYsWIFRFHEnXfeicGDB+PEiRPYs2cPkpKSkJ6ejtdee63Z34vWlpubi9TUVAwcOBC+vr7w8fGBj4+PtNXP7t278eijjzZ5n4qKCnz22Wc4deoUhgwZgqlTp6KsrAy//PILsrOz8d5772H27Nm4/fbbr6pOSzDEEhERERG1KRG1yTOgL/ipzZ6gzfsMyPusVe6l8J6GLlHfobEge/bsWYvXnp6ezXqGeYjNz8+HwWCAq6srxo4dC5lMhi+++AIA4CtpUcIAACAASURBVOLigvDwcIu6arUaPj4+0Gg0GDp0KCZNmiRdO3fuHNauXQs/Pz8sXrxY6nEdOnQoXnnlFRQXF+OPP/7Arl27EB0djfnz52P//v3SKr7btm1Dz549MXPmTOzcuROXLl1CZGQkDAYD1q1bB1EU4efnhwcffBAAEBERARcXF3z//fcoLy9HQkKCXXOD21L9tjoTJpg+1BAEAePGjcOaNWsAAAcPHsSMGTPQpUuXRu+zatUqnDp1CiNGjMCCBQuk80ajEV9++SUAYP369RgzZoz0fW5JnZbgnFgiIiIiojZkrDrdpgG2tekLfoKx6nSjZa6cC+rh4dGsZ3Tv3l061ul0KCwslF6PHj1aut+FCxesrmB84MABiKJoERhFUcS3334LABg/frxFSHJ3d8ett94qvd69eze8vb0RGRmJUaNGSeflcjkWLFiACRMm4IMPPsAnn3yCGTNmQKPRoLKyEgAstg8CTD3I9crLy5v1fWhtVVVVSExMhK+vLwYOHCidHz16tLQCcl1dHRISEhq9T1JSEpKSkqBQKHDfffdZXBs2bJg0z1ej0aC2trbFdVqKPbFERERERG1JUDq6Bc3XRJu7du1q8bp++K+9lErL+7u4uEjHcrkcY8eOxY8//gjA1LN45fDXvXv3om/fvvD395fO5ebmIjMzEwCQlZUl9TzWq78GAAUFBdDr9VAoFBbb24wePRrBwcEATD2Y9T3Mzs7OGDVqFI4fP46//OUvFvc1X7iptRcwaq79+/dDo9FgwoQJFotFOTs7Y8SIEdi3bx8AU4iv76m1Zvv27QCAoKCgBr3sLi4uWLhwIRITE9GvXz+4urq2uE5LMcQSEREREbUhmUtfKAPmQZe73NFNsYsyYB5kLn0bLWMeHgFTz2xzFjUqLS2Vjt3c3ODm5mZx/bbbbsPPP/8MvV7fYPhramoqLl68iKlTp1rUqZ/zCZjmtpqvNAyYelDNe1HrQ6x5CDUP01f6+9//Lh0bjUYkJSVh3759OHnypHTekdsF1W+rI5fLMWjQoAYrMt9yyy1SiM3Pz8fp06cRGRlp9V71vd9X9jrX69evH/r163fVdVqKIZaIiIiIqI059f0UqqBnIepauLCTUYvak1MhagsaLSaovNFl4AZA1rLeX0HpCVmXXk2Wq18puJ49W82YMw+xVwZiwBRsb7nlFhw8eFAa/lrfc7h79264u7vj5ptvtqhTH2IFQcCcOXMa9Pa2BoPBgPj4ePz6668oLi7GoEGD8PDDD0vDmB3p+PHjKCoqAgA8/fTTTZbfvXu31RBbVVUlDYvW6/V2Pbslda4GQywRERERUTuQdekF2BEQrdHlrWgywAKAqC2AsSoZSv+5LXqOvfz8/CAIgtTz2NwQW1JSIh0HBgZaLTNhwgQcPHgQgGl/0/Hjx6O8vBxHjx7FPffc02BhoOrqagB/7g17ZdC+WsXFxfjkk0+Qnp4OLy8vvPHGGwgJCUFhYWGHCLE7duyAIAiYPXs2nJycrJbJzMzEtm3bAJjmsJaUlFjMTwYgbX0EQArFTWlJnavBhZ2IiIiIiDo0EZqMJXaXNpVt22GtarUaAwYMkF4fPnzYYsudxmRnZ0tDXQVBwPDhw62WCw0NRWhoKADg4sWLOH36NOLj4yGKIm677bYG5c2HsSYmJjbahri4OIvg1ZSamhq8+eabSE9PR2BgIN58802EhITYXb+t5eXlISUlBQMHDsRtt92G4cOHW/2aPn26NB/VaDRi7969De7l4eEh9WLn5OQ0+gHFyZMnceLEiRbVuRoMsUREREREHZy866D/HQmAILf+9b8tceRdB9q8T2uaNWuWFFyKi4ubXPG23q+//iodjx8/3mKP1yuNHz9eOt6xYwf27t2L6OjoBr2HACz2kt2+fbvF/q/mcnNz8c0339jV1nrHjx9HQYGpJ/z222+3uTCRo+bEXrmtji0qlQpjxoyRXu/bt6/B8F9BEODt7Q3AFHR37Nhh9V4GgwHffvstjEZji+pcDYZYIiIiIqIOTUCXG7ej6zgDuo7To+tYrfWvcXp0HWdAlxu3o7E9XluLt7c3pkyZIr3euHFjk72xeXl5OHz4MABTj9+VW7Fc6ZZbbpEWfTp+/DiKi4sxbtw4q2V79eoFZ2dnAKbhrW+99ZYUPOtVV1fj008/Rf/+/S1WJa5nq/3p6enS8ZUrMZtvF1Nf3/w+5sHWnpDb3CBcVlaGhIQEeHl5ISoqqsnyo0ePlo4rKiqsfvhgPld2586dOHToUIM2fvPNNygvL5ee2ZI6LcU5sURERERE1CKTJk3CqVOnkJqaisLCQixbtgyPP/641YCYlpaGjz76CKIowtnZGfPmzbM5d7OeUqnErbfeio0bNwIAfHx8LIYxm3N2dkZMTIy0tU5eXh5eeukl3HzzzfD390daWhpOnjwJjUaDOXPmSPXMeyIvXrxo9d7mWwrFxcXhpptugo+PDw4fPoyvvvpKulZYWIjs7GwsW7YM77zzDgDL0GtrKyJ7ytjy888/Q6fT4cYbb7TYVscWPz8/eHp6SkN+N27ciBEjRlj8zKZMmYKEhATU1NTAYDDg008/xenTpxEREQGtVou9e/ciIyMDMTExUCgULa7TUnIAiwFg8eLFV3UjIiIiIiK6vshkMvx/e/ceVVWZ/3H8fbh6PQKhgoIIKV4CkjHLJsmp0UpHu4iarEldZeXoOKMza1aTtprxV39U2jTNlIOJmstRHA0zBcvIiUztorFgvKaICAiCB5GbCBzg/P5g2HOOXERB5dTntVarh733c/beLjbP/p7n+zxPVFQUHh4eHD9+nJycHNLT0+nZsyddunTBxcWFjIwMvvjiC+Li4qisrGTYsGEsWbKEoKCgNp3D39+fTz/9FJvNxuOPP05oaGiLx4aEhPD9998bAZrVauXMmTMcOnSIvLw8amtreeKJJ4iKigIaxrru2LGD7OxsAEpLSxk2bBg+Pj4OAaGnpycpKSlAw0y8n332GZ988gn79u3jrrvuIjc3F4CLFy/y73//m3HjxhnLyaSkpHDo0CGgoSc4MjISLy8v47MrKirYtGkTlZWVxr9pZGSkw9I/zbFaraSkpLB161bjGkeMGNHsFwiNbDYbOTk5pKSkGGvaVlZWkpWVha+vL7fddhsmkwkPDw+8vb1JS0vDZrNhs9nIysriwIEDpKamcvHiRe644w6ef/5549/peupcq//7v4ax4Sb+O+r7Vq5pJCIiIiIizu3MmTNs2LCB06dPN+lNNJlM+Pv7M3bsWCZNmnTNQcxf//pX/vOf/7BixYpW13KFhlTehIQEEhMTHcZeenh4MGvWLGNSqPT0dJYvX95sHBQYGGj0pDbatWsX8fHxRs+tl5cXs2bNYvTo0Sxbtoz09HQ8PT2ZNGkS0dHR1NbWMnfuXId04ys/f8eOHWzevLnJNbi4uPDrX/+ae++9t8X7nD9/frPjfh944AGee+65ZuusWLGi1UmvZsyYwaOPPmr8fPz4cd555x2H87i4uDBhwgSmTp3abMB8PXXaqvH3RkGsiIiIiIh0GJvNRkFBAWfOnKG8vJygoCCCgoKumjrcmnPnzpGfn8/IkSPbXKe6upqsrCwKCgrw9/dn4MCB7QqgoKHX9OzZs/Tq1Qs/Pz8jqLLZbJw+fZr+/fu36z47I5vNxtmzZ8nKysJsNhMcHEyvXr06vE5bKIgVERERERERp9EYxGp2YhEREREREXEaCmJFRERERETEaSiIFREREREREaehIFZERERERESchoJYERERERERcRoKYkVERERERMRpKIgVERERERERp6EgVkRERERERJyG262+gI5QWFjIt99+y/nz5wkKCiI8PBw/P79W6+Tn55OamkphYSEBAQHcfffd+Pj4tOl8mZmZJCUlMWbMGEaOHNkRtyAiIiIiIiJtYAJsADab7RZfyvXZtm0bH374IS4uLvj5+ZGXl0d9fT3R0dFER0c3W2fv3r3Exsbi4+NDz549yc7OxsvLiyVLlhAQENDq+Wpqali8eDGXLl1i2bJlmM3mG3FbIiIiIiIiYsdkMgFOnk68ZcsWPvjgA7p27cqrr77KG2+8wbvvvkvfvn3ZunUr69ata1InIyOD1atXYzKZeOmll3jttdcYPXo0JSUlrFix4qrn3LRpE+fOnWPOnDkKYEVERERERG4ypw1iT5w4wUcffQRAdHQ0AwYMAMDLy4s5c+YAkJyczMmTJx3q7dq1C6vVSkhICP7+/gCMHTsWgOzsbA4fPtziOY8cOUJycjJRUVGMGjWqw+9JREREREREWueUQazNZmPDhg0AeHp6Mm7cOIf9YWFh9O3bF4CEhASHfadPnwagT58+xrb+/fsb5SuD3kaVlZWsWrUKb29vZs+e3f6bEBERERERkWvmlEHs6dOnyczMBGDw4MG4uro2OWbIkCFAQ+9pY2BaWVlJYWEhAN26dTOO7dGjh1E+f/58s+dcv349Fy5cYO7cuQ51RURERERE5OZxyiA2PT3dKA8aNKjZY0JCQozy/v37AXB1dcXFpeGWGwcFX6m5gDg1NZUvv/yS8ePHEx4eft3XLSIiIiIiIu3jlEGs/bjVXr16NXtM43hX+F/vqqenp5E6fOnSJWN/WVmZUW5MQ7bfFxcXh5+fHzExMe2/eBEREREREbluThnE2qf82qcC27NP+bU//vbbbwfg7NmzxrbGcbLQkJ5sb82aNVRUVDBv3jw8PT3bd+EiIiIiIiLSLk4ZxJaXlxvlloLYrl27GuWioiJjHdwpU6ZgNpvJzc0lLS2NqqoqkpOTAYiIiGD48OFGvX379nHw4EEmTZrUJLgVERERERGRm8/tVl/AtaqqqqKurs74uaUg1n5sq9Vqpby8HLPZjK+vLwsXLuTtt9/mnXfewcPDg7KyMsLCwpg/f75Rp7i4mHXr1jFgwACmTp3a5PMtFgtms/mG9862NFuyiIiIiIjIj0FoaKjDz04XxJpMJkwmk9Gz6ubW/C1UV1c7/Ozu7m6Uhw0bxsqVK8nIyCA/P5+goCAGDhxoTPZks9l47733qKmpYf78+Q7nSEpKIjk5maKiItzd3YmIiOCZZ57B29u7o29VREREREREruB0Qaynpyeenp5UVVUBDb2szbEPYt3c3BzSi6EhGA4NDW0S1QPs3r2bw4cP8+STTzJgwABj+549e4iPj6dPnz4sXbqUgwcPsnPnToqLi/nzn/+Mh4dHR9yig+auT0RERERE5MfKKcfE+vj4GGX7WYbt2QexLaUcN6egoID4+HgGDx7M5MmTje0lJSWsWbMGgAkTJhAaGsqMGTPo0aMHWVlZJCQkXOttiIiIiIiIyDVy+iC2oqKi2WOKi4uNckBAQJs+t76+ntjYWADmzZtnrCkLkJmZSW1tLYAx+ZOrqytDhgwB4Pjx49dwByIiIiIiInI9nDKIvfPOO41ybm5us8fYL6ETERHRps9NSkoiIyODmJgY/Pz8HPbZL8PTvXt3o9yzZ08AcnJyHCacEhERERERkY7nlEFsVFSUMfvwsWPHmj3GPogdMWLEVT8zJyeHhIQEwsPDGT9+fJP99j27Xbp0McqN42CtVitlZWVtuwERERERERG5Lk4ZxJrNZiIjI4GGHtLLly877K+pqeHEiRMAREZGXjWduLa2ltjYWDw8PJg7d64xS7G9oKAgo2w/Drex7ObmhpeX1/XdkIiIiIiIiLSJUwaxANOmTcPNzY36+np27NjhsC8lJYXLly/j6upKTEzMVT9r69atZGdnM3v2bIfxtvZCQkKM8oULF4zy+fPnAejTp0+zwa+IiIiIiIh0HKcNYgMDA5k1axbQMJZ17969lJSUsHPnTuLj43FxcWHBggVX7YXNyMggMTGRUaNGERUV1eJxwcHBBAYGAnDgwAEALBYLp06dAuCRRx7piNsSERERERGRVpgAG4DNZrvFl3J99u3bx8aNGyktLTW2BQYGMnPmTMLCwlqtW11dzeLFi6msrGTZsmWYzeZWj7dYLLz88suUl5czZswYcnJyyM7OJiIighdeeMFhNmMRERERERHpOI2Zr04fxELDGNisrCxKSkrw9/cnMDCwTam9+/fvJzExkWnTpjFy5Mg2nctisfDVV1+Rnp5O9+7diYiIYPz48UolFhERERERuYF+UEGsiIiIiIiI/LA1BrHKfxURERERERGnoSBWREREREREnIaCWBEREREREXEaCmJFRERERETEaSiIFREREREREaehIFZERERERESchoJYERERERERcRoKYkVERERERMRpKIgVERERERERp6EgVkRERERERJyGglgRERERERFxGgpiRURERERExGkoiBURERERERGnoSBWREREREREnIbbrb4Akc4iPT2d7777jmefffaqx+bn55OamkphYSEBAQHcfffd+Pj4tOk8mZmZJCUlMWbMGEaOHNneyxbpFHJzc6mpqWl2X69evfD19XXYVl1dzZEjRzh69Ciurq4MHz6cyMjINp8vPj6e0tJSfvWrX2Eymdp17SI3msViITU1lYKCAjw8PBgwYAARERGYzeY21S8sLOTbb7/l/PnzBAUFER4ejp+fX6t11E6JsyorK+PTTz9l0KBBbW4X6uvrOXDgAKdOncLFxYWwsDCGDh2Kh4fHDamrNuzWMwE2AJvNdosvReTms9lspKamsm3bNrKysgDYuHFjq39Q9u7dS2xsLD4+PvTs2ZPs7Gy8vLxYsmQJAQEBrZ6vpqaGxYsXc+nSJZYtW9bmFxiRzqywsJA//OEP1NXVNbv/scce48knnzR+rqqqYunSpeTk5DBs2DCysrKoqqrikUceYebMmVdt0L/44gtWrVrFlClTmDp1aofei0hHS0xMJCEhAavV6rDdy8uLBQsWMHz48Fbrb9u2jQ8//BAXFxf8/PzIy8ujvr6e6OhooqOjm62jdkqc0cWLF0lKSuLzzz+nurq6zX/jLRYLy5cv5+zZs/j6+lJbW0tJSQl9+/blxRdfpG/fvh1aV23YrdX476t0YvnROnToEC+++CJvvfWWEcBeTUZGBqtXr8ZkMvHSSy/x2muvMXr0aEpKSlixYsVV62/atIlz584xZ84cvRjID8b27dtbDGDd3Nx4+OGHjZ9tNhsrVqwgJyeH++67j5dffplXXnkFgF27dvHdd9+1ei6LxcL69esJDg7miSee6LibELkBkpOT2bRpE1arld69eztkJJSUlLB8+XKKioparL9lyxY++OADunbtyquvvsobb7zBu+++S9++fdm6dSvr1q1rUkftlDibqqoq3n//fRYtWsQnn3xCdXV1m+taLBZeeeUVzp49y4MPPsjbb7/NihUreOqppygsLGTp0qWcPXu2w+qqDes8FMTKj1ZtbS2TJ0/m97//fZtTOXbt2oXVaiUkJAR/f38Axo4dC0B2djaHDx9use6RI0dITk4mKiqKUaNGtf8GRDoBi8XC3r17GThwIPfff3+T/2JiYvDy8jKOP3fuHKmpqQDcd999AAQEBDBo0CAAdu7c2eK5bDYb7733HnV1dcyfPx9XV9cbeGci7VNcXEx8fDwjRozgL3/5C3/729/4+9//zsKFC3F3dwcaUhJ3797dbP0TJ07w0UcfARAdHc2AAQOAhh7cOXPmAA1B8smTJx3qqZ0SZ2MymfD29mbx4sXXlJILEBcXx4ULF/Dx8WHmzJm4uLhgMpmYOHEioaGhlJaWsn79+g6rqzas89CYWPnR+slPfmKU/fz8OHfu3FXrnD59GoA+ffoY2/r372+UT548SXh4eJN6lZWVrFq1Cm9vb2bPnt2eyxbpVLZv3059fT0LFiygX79+Vz2+8RkCHNK0+vXrx6lTp8jMzKSurq7Zxn3Xrl0cO3aMX/7ylw7PnUhn9PHHHxMSEsKiRYscxtbdc889FBQUsHnzZoBm2x6bzcaGDRsA8PT0ZNy4cQ77w8LC6Nu3L4WFhSQkJLBkyRJjn9opcTaenp48/vjjQMOXP2lpaW2ql5aWxpEjRwAYP348np6eDvt//vOfc/LkSY4cOcLJkycJDQ1td121YZ2HemJFgO7du1/1mMrKSgoLCwHo1q2bsb1Hjx5G+fz5883WXb9+PRcuXGDu3LkOdUWcWVFREXv27OHuu+9uUwALji8AXbt2Nco9e/YEoK6ujuLi4ib18vLy+Ne//sXQoUOZOHFiO69c5MabOnUqL774YrOTw4wYMcIo33777U32nz59mszMTAAGDx7c7AvxkCFDAIyXbFA7Jc6vLe9jjT777DOjPGzYsCb77bclJCR0SF21YZ2HglgRaFNKh6urKy4uDY9MS+nHzX1OamoqX375JePHj2/2228RZ7Vjxw7q6ur47rvvWL58Obt37251fB9gpFGC43NkP7nglc9RXV0dK1euxNXVlXnz5mkmR3EKXbp0aXF20/LycqPc3Oy/6enpRrkxTfFKISEhRnn//v2A2ilxfm1NsbVarRw7dgxo+F23fx4a+fr6GuO6jxw5QllZWbvrqg3rPBTEitByY2/P09PTSP+4dOmSsb3xDxvQZBa7srIy4uLi8PPzIyYmpoOuVuTWKy4uZs+ePUBDA52WlsbatWtZuHAhmzdvbnGiJ/tep8rKSqPc+FLv7u6Ot7e3Q53t27eTmZnJU089Re/evTv6VkRuuqNHjwIwefLkZtMK7cet9urVq9nPaBzvCv/rXVU7Jc6urQHe999/byzr1r17d9zcmh8hab8UVeNz0p66asM6DwWxIteg8Y+X/Wx19qklgwcPdjh+zZo1VFRUMG/evCbjLUSc2TfffNPsy4bNZmP79u386U9/oqCgoMl++2+8c3NzjXLjczRo0CCHz83KymLbtm2MGDGCBx98sCNvQeSWSE9P5+OPP+a+++5jxowZzR5jn/Jrnwpszz7l1/54tVPyY2CxWIxyS88IOD4njXXaU1dtWOehIFbkGkyZMgWz2Uxubi5paWlUVVWRnJwMQEREhMN6f/v27ePgwYNMmjSpyUuDiLObOHEi69atY/Xq1SxZsoSJEyc6jA/KysrizTffbLI2pq+vL5MmTQIa1s9sXKs5Ly8PwGE9WavVyj/+8Q+6du3K888/fxPuSuTGqaioYNeuXbz11ltYrVbOnDljpDReyT7duKWXbPvnraioyEhnVDslPwb22QWtBaL2z0ljINqeumrDOg/NTixyDXx9fVm4cCFvv/0277zzDh4eHpSVlREWFsb8+fON44qLi1m3bh0DBgxodiFri8WC2WzWt97i9Lp160ZYWBhhYWE8+uijbNy4kb179wKQn5/P5s2beeqppxzqxMTEUFRUxLfffsuiRYuwWCx4enryzDPPOMweuWXLFvLy8vjNb37jsEwPNKRxXb58mdtuu+3G36RIOyUmJvLBBx9QW1trbMvLy+P1119nwYIF3HPPPcb2qqoqh3T8ll6y7cfdWa1WysvLMZvNaqfkR8E+Xb61QLRxjDhgzNnQnrqgNqyzUBArco2GDRvGypUrycjIID8/n6CgIAYOHGikjzSuA1ZTU8P8+fMdxlokJSWRnJxMUVER7u7uRERE8MwzzzQZPyHijMxmM/PmzaNHjx588sknQMMMkDExMQ4v3CaTid/+9reUlZVx6NAhunbtyuDBg41JNKBhzNLHH3/Mvffey7333mtst1gsrF69mmPHjlFXV4efnx8TJ05ssgSJSGfywAMPEBQUxKlTp9i/f7+xrE5dXR3vvfceYWFhxqysJpMJk8lk9Ky2NF6vurra4Wf7CWfUTskPnX2A2dpkUI1jXwFjorX21AW1YZ2F0olFroPJZCI0NJSf/exnBAcHO4x/2L17N4cPH3ZYnB5gz549xMfH4+LiwtKlS3nooYdITU3lzTffdPhDKeLsZs6cacyoarVayc/Pb/Y4s9nMmDFjGDlypEPjX1VVRWxsLL169eLpp5922P7mm29y+PBhJk6cyNKlS6mrq2Pt2rV88803N/amRNqhR48eREREMGXKFN544w2io6ONfVVVVXz55ZfGz56eng69n1em5DeyD2Ld3NwcUh9B7ZT8sNlPeGaf4XAl++ekcRmc9tS1pzbs1lIQK9KBCgoKiI+PZ/DgwUyePNnYXlJSwpo1awCYMGECoaGhzJgxgx49epCVldVk/TIRZzdt2jSjbD/BTFts2LABi8XC888/75DqtWXLFnJzczGbzTz55JOEhoby0EMPAbBy5UqHcYQinZWbmxvR0dFERUUZ2xrH0zXy8fExyvapj/bsX7BbS4m8ktop+SGwzwxo6RmB5gPR9tRtC7VhN4eCWJEOUl9fT2xsLADz5s1zSFfJzMw0vu1rnFTD1dXVWKz++PHjN/lqRW6sIUOGGD0/9i/kV5Oens7nn3/Ogw8+yIgRIxz2NT4nQ4YMMZ6vO+64A2hI+8rMzOyISxe5KRpfXgEuX77ssM/+mamoqGi2fnFxsVEOCAho0znVTskPhf1Y0paeEXB8ThqXn2pP3atRG3bzKIgV6SBJSUlkZGQQExPjsLYYOC5v0DjuCf73zV5OTk6L62qKOCN3d3fc3NxwdXUlODi4TXUqKipYtWoVvXv3bjIZlNVqNXp07b/Ztv923P45E+nsBg4caIxj7devn8O+O++80yjbL+Nhzz7DISIiok3nVDslPxTBwcFGW2CxWKiqqmpyTHV1tTEhU7du3YxhLu2p2xq1YTeXgliRDpCTk0NCQgLh4eGMHz++yX77b/O6dOlilBsnCrBarQ5Tvos4u/z8fKxWK8HBwQ4TYrTm/fffp7S0lHnz5jk8JwClpaXGC7T9eEH7sv1zJtLZubi4GL0x9uNSAaKioowJZ1pahsc+iL2yx6c5aqfkh8Td3Z0xY8YADROknThxoskxeXl5xgRp4eHhxjPVnrqtURt2cymIFaEhxaq5clvU1tYSGxuLh4cHc+fOdZg8o1FQUJBRfo6AjwAABStJREFUth9/0Vh2c3NrMv26iDNrnBzmym+jW/L111/z9ddfM2HCBIYOHdpk/2233Wb0DlVWVhrb7Z8nLVUgzuT48eNUV1fj7+9PZGSkwz6z2WxsO336dJN045qaGuPFOzIy8qrpxGqnxFk0Bo5w9fexsWPHGuWjR4822X/o0CGgYZIz+/Hf7a3bHLVhN5+CWBEcB+9f6wyMW7duJTs7m9mzZ7c49i8kJMQoX7hwwSifP38egD59+jT7UiHSGV2+fJnFixfz7LPPsmnTJofemZqaGtauXUtaWhqPPfaYw5p5LSkpKeH999+nf//+DgvF2zOZTMZzZP8MFRYWGuUr0yNFbqX09HTi4uLYvXt3k3bl4sWLxMXFYTKZmD17drPL6EybNg03Nzfq6+vZsWOHw76UlBQuX76Mq6srMTExV70WtVPiLK7lfSwoKIif/vSnQMMzUVpaauyrqqri888/B2D06NEOv9/trXsltWG3htaJlR+9U6dOOSwBsmfPHh5++OE2NdYZGRkkJiYyatQoh5kmrxQcHExgYCC5ubkcOHCAoUOHYrFYOHXqFACPPPJI+29E5CYpKSkhJycHm81GYmIiO3fuZPjw4fTq1Yvjx49TWlrK9OnTefTRR9v0eXFxcUZgbL/W5ZXuv/9+Dh8+zPfff09ZWRlms5mvvvoKAF9fX+66664OuT+RjrBq1SpKSkpISUkhISGBBx54gAEDBlBQUMCuXbtwdXXlj3/8Y4vjWQMDA5k1axZr164lKSmJfv36ER4ezv79+9myZQsuLi4sWLDgqr2waqfEWVitVr7++mvj57S0NCZNmtRqBsDTTz/NmTNnyM/PJzY2llmzZlFRUcHmzZspKioiNDSU5557rsPr2lMbdmuYABs4dt+L/BgcPXqUt956q0maFjSMl5g+fTq/+MUvWqxfXV3N4sWLqaysZNmyZQ5rhDXHYrHw8ssvU15ezpgxY8jJySE7O5uIiAheeOEFh1kiRTq7f/7zn3z66acO6V6urq6EhYUxffr0Nk/mlJKSQlxcHNHR0Q5rZ7YkPj6epKQkevfuTWRkJJ999hkeHh4sWrTIYTIckVstKSmJTZs2NXm/8vb2JiwsjJkzZ7ZpaZx9+/axceNGh56iwMBAZs6cSVhYWKt11U6Js3j99dc5evRok8nDTCYTPXv2JDY2tsXOhfLyclatWkVqaqqxzc3NjXHjxjF9+vQm41M7qi6oDbsVGn8PFMSKXKf9+/eTmJjItGnTGDlyZJvqWCwWvvrqK9LT0+nevTsRERGMHz9eKVrilC5evEhWVhY1NTV4eXkREBBwTetV2mw2Xn31Vbp168bvfve7Nk2cYbPZSE1N5eDBg5w7d46BAwfy8MMPt3n5A5Gb6cKFC+Tl5XHp0iW8vb0JDAx0mPm3rWpqasjKyqKkpAR/f38CAwPb1G6onZIfk8LCQs6ePYu7uzshISHX1B5dT121YbeGglgRERERERFxGo1BrPJCRERERERExGkoiBURERERERGnoSBWREREREREnIaCWBEREREREXEaCmJFRERERETEaSiIFREREREREaehIFZERERERESchoJYERERERERcRoKYkVERERERMRpKIgVERERERERp6EgVkRERERERJyGglgRERERERFxGgpiRURERERExGkoiBURERERERGnoSBWREREREREnIaCWBEREREREXEaCmJFRERERETEaZgA262+CBEREREREZG2MP33/wpkRUREREREpLMz/T9S00n1n1BmtQAAAABJRU5ErkJggg==;" parent="1" vertex="1">
          <mxGeometry y="461" width="400" height="187.94" as="geometry" />
        </mxCell>
      </root>
    </mxGraphModel>
  </diagram>
</mxfile>
